SplineFontDB: 3.0
FontName: Monofett
FullName: Monofett
FamilyName: Monofett
Weight: Book
Copyright: Copyright (c) 2011 by vernon adams. All rights reserved.
Version: 1.000
ItalicAngle: 0
UnderlinePosition: -232
UnderlineWidth: 41
Ascent: 1638
Descent: 410
sfntRevision: 0x00010000
LayerCount: 2
Layer: 0 1 "Back"  1
Layer: 1 1 "Fore"  0
XUID: [1021 759 1887733602 16324635]
FSType: 0
OS2Version: 3
OS2_WeightWidthSlopeOnly: 0
OS2_UseTypoMetrics: 1
CreationTime: 1302251700
ModificationTime: 1303988249
PfmFamily: 17
TTFWeight: 400
TTFWidth: 5
LineGap: 0
VLineGap: 0
Panose: 2 0 5 6 2 0 0 2 0 3
OS2TypoAscent: 363
OS2TypoAOffset: 1
OS2TypoDescent: 95
OS2TypoDOffset: 1
OS2TypoLinegap: 0
OS2WinAscent: -6
OS2WinAOffset: 1
OS2WinDescent: 0
OS2WinDOffset: 1
HheadAscent: -6
HheadAOffset: 1
HheadDescent: 0
HheadDOffset: 1
OS2SubXSize: 1434
OS2SubYSize: 1331
OS2SubXOff: 0
OS2SubYOff: 287
OS2SupXSize: 1434
OS2SupYSize: 1331
OS2SupXOff: 0
OS2SupYOff: 977
OS2StrikeYSize: 102
OS2StrikeYPos: 512
OS2Vendor: '    '
OS2CodePages: 00000093.00000000
OS2UnicodeRanges: a00000ef.1200804a.04000000.00000000
MarkAttachClasses: 1
DEI: 91125
TtTable: prep
PUSHW_1
 511
SCANCTRL
PUSHB_1
 4
SCANTYPE
EndTTInstrs

StartChar: exclam
Encoding: 33 33 4
Width: 869
GlyphClass: 2
Flags: HMW
LayerCount: 2
Fore
SplineSet
438 1370 m 1,0,1
 537 1368 537 1368 617.5 1337.5 c 128,-1,2
 698 1307 698 1307 755 1255.5 c 128,-1,3
 812 1204 812 1204 842.5 1135.5 c 128,-1,4
 873 1067 873 1067 873 989 c 2,5,-1
 873 381 l 2,6,7
 873 303 873 303 842 233.5 c 128,-1,8
 811 164 811 164 753 112 c 128,-1,9
 695 60 695 60 613.5 30 c 128,-1,10
 532 0 532 0 430 0 c 0,11,12
 330 0 330 0 250 30.5 c 128,-1,13
 170 61 170 61 113.5 113.5 c 128,-1,14
 57 166 57 166 26.5 235 c 128,-1,15
 -4 304 -4 304 -4 381 c 2,16,-1
 -4 989 l 2,17,18
 -4 1067 -4 1067 27 1136.5 c 128,-1,19
 58 1206 58 1206 115.5 1258 c 128,-1,20
 173 1310 173 1310 255 1340 c 128,-1,21
 337 1370 337 1370 438 1370 c 1,0,1
371 1280 m 1,22,-1
 412 627 l 1,23,-1
 471 627 l 1,24,-1
 512 1280 l 1,25,-1
 371 1280 l 1,22,-1
389 438 m 1,26,-1
 512 438 l 1,27,-1
 496 545 l 1,28,-1
 389 545 l 1,29,-1
 389 438 l 1,26,-1
EndSplineSet
EndChar

StartChar: quotedbl
Encoding: 34 34 5
Width: 869
GlyphClass: 2
Flags: HMW
LayerCount: 2
Fore
SplineSet
438 1370 m 1,0,1
 537 1368 537 1368 617.5 1337.5 c 128,-1,2
 698 1307 698 1307 755 1255.5 c 128,-1,3
 812 1204 812 1204 842.5 1135.5 c 128,-1,4
 873 1067 873 1067 873 989 c 2,5,-1
 873 381 l 2,6,7
 873 303 873 303 842 233.5 c 128,-1,8
 811 164 811 164 753 112 c 128,-1,9
 695 60 695 60 613.5 30 c 128,-1,10
 532 0 532 0 430 0 c 0,11,12
 330 0 330 0 250 30.5 c 128,-1,13
 170 61 170 61 113.5 113.5 c 128,-1,14
 57 166 57 166 26.5 235 c 128,-1,15
 -4 304 -4 304 -4 381 c 2,16,-1
 -4 989 l 2,17,18
 -4 1067 -4 1067 27 1136.5 c 128,-1,19
 58 1206 58 1206 115.5 1258 c 128,-1,20
 173 1310 173 1310 255 1340 c 128,-1,21
 337 1370 337 1370 438 1370 c 1,0,1
324 1280 m 1,22,-1
 324 1024 l 1,23,-1
 424 1024 l 1,24,-1
 424 1280 l 1,25,-1
 324 1280 l 1,22,-1
473 1280 m 1,26,-1
 473 1024 l 1,27,-1
 574 1024 l 1,28,-1
 574 1280 l 1,29,-1
 473 1280 l 1,26,-1
EndSplineSet
EndChar

StartChar: numbersign
Encoding: 35 35 6
Width: 989
GlyphClass: 2
Flags: HMW
LayerCount: 2
Fore
SplineSet
551 1370 m 2,0,1
 652 1370 652 1370 734 1340 c 128,-1,2
 816 1310 816 1310 873.5 1258 c 128,-1,3
 931 1206 931 1206 962 1136.5 c 128,-1,4
 993 1067 993 1067 993 989 c 2,5,-1
 993 381 l 2,6,7
 993 303 993 303 962 233.5 c 128,-1,8
 931 164 931 164 873.5 112 c 128,-1,9
 816 60 816 60 734 30 c 128,-1,10
 652 0 652 0 551 0 c 2,11,-1
 438 0 l 2,12,13
 337 0 337 0 255 30 c 128,-1,14
 173 60 173 60 115.5 112 c 128,-1,15
 58 164 58 164 27 233.5 c 128,-1,16
 -4 303 -4 303 -4 381 c 2,17,-1
 -4 989 l 2,18,19
 -4 1067 -4 1067 27 1136.5 c 128,-1,20
 58 1206 58 1206 115.5 1258 c 128,-1,21
 173 1310 173 1310 255 1340 c 128,-1,22
 337 1370 337 1370 438 1370 c 2,23,-1
 551 1370 l 2,0,1
674 1055 m 1,24,-1
 686 1184 l 1,25,-1
 582 1184 l 1,26,-1
 567 1055 l 1,27,-1
 477 1055 l 1,28,-1
 492 1184 l 1,29,-1
 385 1184 l 1,30,-1
 371 1055 l 1,31,-1
 305 1055 l 1,32,-1
 295 950 l 1,33,-1
 361 950 l 1,34,-1
 338 729 l 1,35,-1
 272 729 l 1,36,-1
 260 623 l 1,37,-1
 326 623 l 1,38,-1
 313 494 l 1,39,-1
 418 494 l 1,40,-1
 432 623 l 1,41,-1
 522 623 l 1,42,-1
 510 494 l 1,43,-1
 614 494 l 1,44,-1
 629 623 l 1,45,-1
 692 623 l 1,46,-1
 703 729 l 1,47,-1
 639 729 l 1,48,-1
 662 950 l 1,49,-1
 727 950 l 1,50,-1
 737 1055 l 1,51,-1
 674 1055 l 1,24,-1
535 729 m 1,52,-1
 442 729 l 1,53,-1
 467 950 l 1,54,-1
 557 950 l 1,55,-1
 535 729 l 1,52,-1
EndSplineSet
EndChar

StartChar: dollar
Encoding: 36 36 7
Width: 1184
GlyphClass: 2
Flags: HMW
LayerCount: 2
Fore
SplineSet
498 559 m 1,0,-1
 436 569 l 1,1,-1
 420 647 l 1,2,-1
 311 637 l 1,3,-1
 330 528 l 1,4,-1
 393 465 l 1,5,-1
 496 453 l 1,6,-1
 565 453 l 1,7,-1
 565 334 l 1,8,-1
 647 334 l 1,9,-1
 647 453 l 1,10,-1
 705 453 l 1,11,-1
 807 465 l 1,12,-1
 870 528 l 1,13,-1
 885 614 l 1,14,-1
 885 717 l 1,15,-1
 870 803 l 1,16,-1
 807 866 l 1,17,-1
 703 877 l 1,18,-1
 647 877 l 1,19,-1
 647 1092 l 1,20,-1
 709 1092 l 1,21,-1
 770 1079 l 1,22,-1
 789 1004 l 1,23,-1
 893 1014 l 1,24,-1
 877 1120 l 1,25,-1
 811 1184 l 1,26,-1
 711 1198 l 1,27,-1
 647 1198 l 1,28,-1
 647 1280 l 1,29,-1
 565 1280 l 1,30,-1
 565 1198 l 1,31,-1
 494 1198 l 1,32,-1
 393 1184 l 1,33,-1
 328 1120 l 1,34,-1
 315 1036 l 1,35,-1
 315 932 l 1,36,-1
 328 848 l 1,37,-1
 393 784 l 1,38,-1
 494 772 l 1,39,-1
 565 772 l 1,40,-1
 565 559 l 1,41,-1
 498 559 l 1,0,-1
496 877 m 1,42,-1
 434 889 l 1,43,44
 429 906 429 906 427 919.5 c 128,-1,45
 425 933 425 933 420 948 c 1,46,-1
 420 1020 l 1,47,-1
 434 1079 l 1,48,-1
 500 1092 l 1,49,-1
 565 1092 l 1,50,-1
 565 877 l 1,51,-1
 496 877 l 1,42,-1
647 772 m 1,52,-1
 703 772 l 1,53,-1
 764 762 l 1,54,55
 767 746 767 746 771 733.5 c 128,-1,56
 775 721 775 721 778 707 c 1,57,-1
 778 625 l 1,58,59
 776 612 776 612 771.5 597 c 128,-1,60
 767 582 767 582 764 569 c 1,61,-1
 698 559 l 1,62,-1
 647 559 l 1,63,-1
 647 772 l 1,52,-1
746 1370 m 2,64,65
 847 1370 847 1370 929 1340 c 128,-1,66
 1011 1310 1011 1310 1068.5 1258 c 128,-1,67
 1126 1206 1126 1206 1157 1136.5 c 128,-1,68
 1188 1067 1188 1067 1188 989 c 2,69,-1
 1188 381 l 2,70,71
 1188 303 1188 303 1157 233.5 c 128,-1,72
 1126 164 1126 164 1068.5 112 c 128,-1,73
 1011 60 1011 60 929 30 c 128,-1,74
 847 0 847 0 746 0 c 2,75,-1
 438 0 l 2,76,77
 337 0 337 0 255 30 c 128,-1,78
 173 60 173 60 115.5 112 c 128,-1,79
 58 164 58 164 27 233.5 c 128,-1,80
 -4 303 -4 303 -4 381 c 2,81,-1
 -4 989 l 2,82,83
 -4 1067 -4 1067 27 1136.5 c 128,-1,84
 58 1206 58 1206 115.5 1258 c 128,-1,85
 173 1310 173 1310 255 1340 c 128,-1,86
 337 1370 337 1370 438 1370 c 2,87,-1
 746 1370 l 2,64,65
EndSplineSet
EndChar

StartChar: percent
Encoding: 37 37 8
Width: 1184
GlyphClass: 2
Flags: HMW
LayerCount: 2
Fore
SplineSet
653 1231 m 1,0,-1
 445 518 l 1,1,-1
 545 494 l 1,2,-1
 756 1200 l 1,3,-1
 653 1231 l 1,0,-1
514 1096 m 1,4,-1
 506 1153 l 1,5,-1
 445 1217 l 1,6,-1
 369 1227 l 1,7,-1
 326 1227 l 1,8,-1
 256 1212 l 1,9,-1
 191 1155 l 1,10,-1
 180 1096 l 1,11,-1
 180 1024 l 1,12,-1
 189 967 l 1,13,-1
 252 903 l 1,14,-1
 326 893 l 1,15,-1
 371 893 l 1,16,-1
 438 907 l 1,17,-1
 504 965 l 1,18,-1
 514 1024 l 1,19,-1
 514 1096 l 1,4,-1
399 1006 m 1,20,-1
 363 997 l 1,21,-1
 332 997 l 1,22,-1
 295 1006 l 1,23,-1
 285 1038 l 1,24,-1
 285 1081 l 1,25,-1
 295 1114 l 1,26,27
 307 1117 307 1117 315 1118 c 128,-1,28
 323 1119 323 1119 334 1122 c 1,29,-1
 363 1122 l 1,30,-1
 399 1114 l 1,31,-1
 410 1081 l 1,32,-1
 410 1038 l 1,33,-1
 399 1006 l 1,20,-1
1030 696 m 1,34,-1
 1018 756 l 1,35,-1
 952 813 l 1,36,-1
 883 827 l 1,37,-1
 840 827 l 1,38,-1
 766 817 l 1,39,-1
 703 754 l 1,40,-1
 694 696 l 1,41,-1
 694 625 l 1,42,-1
 705 565 l 1,43,-1
 770 508 l 1,44,-1
 838 494 l 1,45,-1
 883 494 l 1,46,-1
 957 504 l 1,47,-1
 1020 567 l 1,48,-1
 1030 625 l 1,49,-1
 1030 696 l 1,34,-1
914 606 m 1,50,-1
 877 598 l 1,51,-1
 846 598 l 1,52,-1
 809 606 l 1,53,-1
 799 639 l 1,54,-1
 799 682 l 1,55,-1
 809 715 l 1,56,-1
 846 723 l 1,57,-1
 875 723 l 1,58,-1
 914 715 l 1,59,-1
 924 682 l 1,60,-1
 924 639 l 1,61,-1
 914 606 l 1,50,-1
746 1370 m 2,62,63
 847 1370 847 1370 929 1340 c 128,-1,64
 1011 1310 1011 1310 1068.5 1258 c 128,-1,65
 1126 1206 1126 1206 1157 1136.5 c 128,-1,66
 1188 1067 1188 1067 1188 989 c 2,67,-1
 1188 381 l 2,68,69
 1188 303 1188 303 1157 233.5 c 128,-1,70
 1126 164 1126 164 1068.5 112 c 128,-1,71
 1011 60 1011 60 929 30 c 128,-1,72
 847 0 847 0 746 0 c 2,73,-1
 438 0 l 2,74,75
 337 0 337 0 255 30 c 128,-1,76
 173 60 173 60 115.5 112 c 128,-1,77
 58 164 58 164 27 233.5 c 128,-1,78
 -4 303 -4 303 -4 381 c 2,79,-1
 -4 989 l 2,80,81
 -4 1067 -4 1067 27 1136.5 c 128,-1,82
 58 1206 58 1206 115.5 1258 c 128,-1,83
 173 1310 173 1310 255 1340 c 128,-1,84
 337 1370 337 1370 438 1370 c 2,85,-1
 746 1370 l 2,62,63
EndSplineSet
EndChar

StartChar: ampersand
Encoding: 38 38 9
Width: 1184
GlyphClass: 2
Flags: HMW
LayerCount: 2
Fore
SplineSet
746 1370 m 2,0,1
 847 1370 847 1370 929 1340 c 128,-1,2
 1011 1310 1011 1310 1068.5 1258 c 128,-1,3
 1126 1206 1126 1206 1157 1136.5 c 128,-1,4
 1188 1067 1188 1067 1188 989 c 2,5,-1
 1188 381 l 2,6,7
 1188 303 1188 303 1157 233.5 c 128,-1,8
 1126 164 1126 164 1068.5 112 c 128,-1,9
 1011 60 1011 60 929 30 c 128,-1,10
 847 0 847 0 746 0 c 2,11,-1
 438 0 l 2,12,13
 337 0 337 0 255 30 c 128,-1,14
 173 60 173 60 115.5 112 c 128,-1,15
 58 164 58 164 27 233.5 c 128,-1,16
 -4 303 -4 303 -4 381 c 2,17,-1
 -4 989 l 2,18,19
 -4 1067 -4 1067 27 1136.5 c 128,-1,20
 58 1206 58 1206 115.5 1258 c 128,-1,21
 173 1310 173 1310 255 1340 c 128,-1,22
 337 1370 337 1370 438 1370 c 2,23,-1
 746 1370 l 2,0,1
801 1026 m 1,24,-1
 801 928 l 1,25,-1
 555 928 l 1,26,-1
 490 938 l 1,27,-1
 475 997 l 1,28,-1
 475 1108 l 1,29,-1
 485 1163 l 1,30,-1
 555 1174 l 1,31,-1
 721 1174 l 1,32,-1
 791 1163 l 1,33,-1
 830 1266 l 1,34,-1
 727 1280 l 1,35,-1
 549 1280 l 1,36,-1
 447 1266 l 1,37,-1
 383 1202 l 1,38,-1
 369 1118 l 1,39,-1
 369 981 l 1,40,-1
 404 918 l 1,41,-1
 469 874 l 1,42,-1
 404 829 l 1,43,-1
 369 766 l 1,44,-1
 369 614 l 1,45,-1
 383 528 l 1,46,-1
 449 465 l 1,47,-1
 549 453 l 1,48,-1
 727 453 l 1,49,-1
 830 465 l 1,50,-1
 893 528 l 1,51,-1
 907 614 l 1,52,-1
 907 821 l 1,53,-1
 991 928 l 1,54,-1
 907 928 l 1,55,-1
 907 1026 l 1,56,-1
 801 1026 l 1,24,-1
801 625 m 1,57,-1
 787 569 l 1,58,-1
 721 559 l 1,59,-1
 555 559 l 1,60,-1
 490 569 l 1,61,-1
 475 629 l 1,62,-1
 475 756 l 1,63,-1
 485 811 l 1,64,-1
 555 821 l 1,65,-1
 801 821 l 1,66,-1
 801 625 l 1,57,-1
EndSplineSet
EndChar

StartChar: quotesingle
Encoding: 39 39 10
Width: 869
GlyphClass: 2
Flags: HMW
LayerCount: 2
Fore
SplineSet
438 1370 m 1,0,1
 537 1368 537 1368 617.5 1337.5 c 128,-1,2
 698 1307 698 1307 755 1255.5 c 128,-1,3
 812 1204 812 1204 842.5 1135.5 c 128,-1,4
 873 1067 873 1067 873 989 c 2,5,-1
 873 381 l 2,6,7
 873 303 873 303 842 233.5 c 128,-1,8
 811 164 811 164 753 112 c 128,-1,9
 695 60 695 60 613.5 30 c 128,-1,10
 532 0 532 0 430 0 c 0,11,12
 330 0 330 0 250 30.5 c 128,-1,13
 170 61 170 61 113.5 113.5 c 128,-1,14
 57 166 57 166 26.5 235 c 128,-1,15
 -4 304 -4 304 -4 381 c 2,16,-1
 -4 989 l 2,17,18
 -4 1067 -4 1067 27 1136.5 c 128,-1,19
 58 1206 58 1206 115.5 1258 c 128,-1,20
 173 1310 173 1310 255 1340 c 128,-1,21
 337 1370 337 1370 438 1370 c 1,0,1
391 1280 m 1,22,-1
 391 1024 l 1,23,-1
 492 1024 l 1,24,-1
 492 1280 l 1,25,-1
 391 1280 l 1,22,-1
EndSplineSet
EndChar

StartChar: parenleft
Encoding: 40 40 11
Width: 991
GlyphClass: 2
Flags: HMW
LayerCount: 2
Fore
SplineSet
633 430 m 1,0,-1
 516 430 l 1,1,-1
 451 440 l 1,2,-1
 436 500 l 1,3,-1
 436 1106 l 1,4,5
 441 1121 441 1121 443.5 1135.5 c 128,-1,6
 446 1150 446 1150 451 1165 c 1,7,-1
 516 1176 l 1,8,-1
 633 1176 l 1,9,-1
 633 1282 l 1,10,-1
 510 1282 l 1,11,-1
 410 1270 l 1,12,-1
 344 1204 l 1,13,-1
 332 1120 l 1,14,-1
 332 485 l 1,15,-1
 344 399 l 1,16,-1
 410 336 l 1,17,-1
 510 324 l 1,18,-1
 633 324 l 1,19,-1
 633 430 l 1,0,-1
553 1370 m 2,20,21
 654 1370 654 1370 736 1340 c 128,-1,22
 818 1310 818 1310 875.5 1258 c 128,-1,23
 933 1206 933 1206 964 1136.5 c 128,-1,24
 995 1067 995 1067 995 989 c 2,25,-1
 995 381 l 2,26,27
 995 303 995 303 964 233.5 c 128,-1,28
 933 164 933 164 875.5 112 c 128,-1,29
 818 60 818 60 736 30 c 128,-1,30
 654 0 654 0 553 0 c 2,31,-1
 438 0 l 2,32,33
 337 0 337 0 255 30 c 128,-1,34
 173 60 173 60 115.5 112 c 128,-1,35
 58 164 58 164 27 233.5 c 128,-1,36
 -4 303 -4 303 -4 381 c 2,37,-1
 -4 989 l 2,38,39
 -4 1067 -4 1067 27 1136.5 c 128,-1,40
 58 1206 58 1206 115.5 1258 c 128,-1,41
 173 1310 173 1310 255 1340 c 128,-1,42
 337 1370 337 1370 438 1370 c 2,43,-1
 553 1370 l 2,20,21
EndSplineSet
EndChar

StartChar: parenright
Encoding: 41 41 12
Width: 991
GlyphClass: 2
Flags: HMW
LayerCount: 2
Fore
SplineSet
358 430 m 1,0,-1
 358 324 l 1,1,-1
 481 324 l 1,2,-1
 581 336 l 1,3,-1
 647 399 l 1,4,-1
 659 485 l 1,5,-1
 659 1120 l 1,6,-1
 647 1204 l 1,7,-1
 581 1270 l 1,8,-1
 481 1282 l 1,9,-1
 358 1282 l 1,10,-1
 358 1176 l 1,11,-1
 475 1176 l 1,12,-1
 540 1165 l 1,13,14
 545 1150 545 1150 547.5 1135.5 c 128,-1,15
 550 1121 550 1121 555 1106 c 1,16,-1
 555 500 l 1,17,-1
 540 440 l 1,18,-1
 475 430 l 1,19,-1
 358 430 l 1,0,-1
438 1370 m 2,20,-1
 553 1370 l 2,21,22
 654 1370 654 1370 736 1340 c 128,-1,23
 818 1310 818 1310 875.5 1258 c 128,-1,24
 933 1206 933 1206 964 1136.5 c 128,-1,25
 995 1067 995 1067 995 989 c 2,26,-1
 995 381 l 2,27,28
 995 303 995 303 964 233.5 c 128,-1,29
 933 164 933 164 875.5 112 c 128,-1,30
 818 60 818 60 736 30 c 128,-1,31
 654 0 654 0 553 0 c 2,32,-1
 438 0 l 2,33,34
 337 0 337 0 255 30 c 128,-1,35
 173 60 173 60 115.5 112 c 128,-1,36
 58 164 58 164 27 233.5 c 128,-1,37
 -4 303 -4 303 -4 381 c 2,38,-1
 -4 989 l 2,39,40
 -4 1067 -4 1067 27 1136.5 c 128,-1,41
 58 1206 58 1206 115.5 1258 c 128,-1,42
 173 1310 173 1310 255 1340 c 128,-1,43
 337 1370 337 1370 438 1370 c 2,20,-1
EndSplineSet
EndChar

StartChar: asterisk
Encoding: 42 42 13
Width: 877
GlyphClass: 2
Flags: HMW
LayerCount: 2
Fore
SplineSet
727 1096 m 1,0,-1
 574 1096 l 1,1,-1
 653 1229 l 1,2,-1
 561 1282 l 1,3,-1
 479 1149 l 1,4,-1
 399 1282 l 1,5,-1
 305 1229 l 1,6,-1
 383 1096 l 1,7,-1
 234 1096 l 1,8,-1
 234 989 l 1,9,-1
 385 989 l 1,10,-1
 305 856 l 1,11,-1
 399 803 l 1,12,13
 416 832 416 832 438.5 868 c 128,-1,14
 461 904 461 904 479 936 c 1,15,-1
 561 803 l 1,16,-1
 653 856 l 1,17,-1
 576 989 l 1,18,-1
 727 989 l 1,19,-1
 727 1096 l 1,0,-1
438 0 m 0,20,21
 337 0 337 0 255 30 c 128,-1,22
 173 60 173 60 115.5 112 c 128,-1,23
 58 164 58 164 27 233.5 c 128,-1,24
 -4 303 -4 303 -4 381 c 2,25,-1
 -4 989 l 2,26,27
 -4 1067 -4 1067 27 1136.5 c 128,-1,28
 58 1206 58 1206 115.5 1258 c 128,-1,29
 173 1310 173 1310 255 1340 c 128,-1,30
 337 1370 337 1370 438 1370 c 0,31,32
 540 1370 540 1370 621.5 1340 c 128,-1,33
 703 1310 703 1310 761 1258 c 128,-1,34
 819 1206 819 1206 850 1136.5 c 128,-1,35
 881 1067 881 1067 881 989 c 2,36,-1
 881 381 l 2,37,38
 881 303 881 303 850 233.5 c 128,-1,39
 819 164 819 164 761 112 c 128,-1,40
 703 60 703 60 621.5 30 c 128,-1,41
 540 0 540 0 438 0 c 0,20,21
EndSplineSet
EndChar

StartChar: plus
Encoding: 43 43 14
Width: 877
GlyphClass: 2
Flags: HMW
LayerCount: 2
Fore
SplineSet
694 1085 m 1,0,-1
 498 1085 l 1,1,-1
 498 1282 l 1,2,-1
 393 1282 l 1,3,-1
 393 1085 l 1,4,-1
 199 1085 l 1,5,-1
 199 979 l 1,6,-1
 393 979 l 1,7,-1
 393 784 l 1,8,-1
 498 784 l 1,9,-1
 498 979 l 1,10,-1
 694 979 l 1,11,-1
 694 1085 l 1,0,-1
438 0 m 0,12,13
 337 0 337 0 255 30 c 128,-1,14
 173 60 173 60 115.5 112 c 128,-1,15
 58 164 58 164 27 233.5 c 128,-1,16
 -4 303 -4 303 -4 381 c 2,17,-1
 -4 989 l 2,18,19
 -4 1067 -4 1067 27 1136.5 c 128,-1,20
 58 1206 58 1206 115.5 1258 c 128,-1,21
 173 1310 173 1310 255 1340 c 128,-1,22
 337 1370 337 1370 438 1370 c 0,23,24
 540 1370 540 1370 621.5 1340 c 128,-1,25
 703 1310 703 1310 761 1258 c 128,-1,26
 819 1206 819 1206 850 1136.5 c 128,-1,27
 881 1067 881 1067 881 989 c 2,28,-1
 881 381 l 2,29,30
 881 303 881 303 850 233.5 c 128,-1,31
 819 164 819 164 761 112 c 128,-1,32
 703 60 703 60 621.5 30 c 128,-1,33
 540 0 540 0 438 0 c 0,12,13
EndSplineSet
EndChar

StartChar: comma
Encoding: 44 44 15
Width: 877
GlyphClass: 2
Flags: HMW
LayerCount: 2
Fore
SplineSet
438 0 m 0,0,1
 337 0 337 0 255 30 c 128,-1,2
 173 60 173 60 115.5 112 c 128,-1,3
 58 164 58 164 27 233.5 c 128,-1,4
 -4 303 -4 303 -4 381 c 2,5,-1
 -4 989 l 2,6,7
 -4 1067 -4 1067 27 1136.5 c 128,-1,8
 58 1206 58 1206 115.5 1258 c 128,-1,9
 173 1310 173 1310 255 1340 c 128,-1,10
 337 1370 337 1370 438 1370 c 0,11,12
 540 1370 540 1370 621.5 1340 c 128,-1,13
 703 1310 703 1310 761 1258 c 128,-1,14
 819 1206 819 1206 850 1136.5 c 128,-1,15
 881 1067 881 1067 881 989 c 2,16,-1
 881 381 l 2,17,18
 881 303 881 303 850 233.5 c 128,-1,19
 819 164 819 164 761 112 c 128,-1,20
 703 60 703 60 621.5 30 c 128,-1,21
 540 0 540 0 438 0 c 0,0,1
463 324 m 1,22,-1
 524 453 l 1,23,-1
 524 582 l 1,24,-1
 373 582 l 1,25,-1
 373 453 l 1,26,-1
 438 453 l 1,27,-1
 399 352 l 1,28,-1
 463 324 l 1,22,-1
EndSplineSet
EndChar

StartChar: hyphen
Encoding: 45 45 16
Width: 877
GlyphClass: 2
Flags: HMW
LayerCount: 2
Fore
SplineSet
627 918 m 1,0,-1
 627 1026 l 1,1,-1
 250 1026 l 1,2,-1
 250 918 l 1,3,-1
 627 918 l 1,0,-1
438 0 m 0,4,5
 337 0 337 0 255 30 c 128,-1,6
 173 60 173 60 115.5 112 c 128,-1,7
 58 164 58 164 27 233.5 c 128,-1,8
 -4 303 -4 303 -4 381 c 2,9,-1
 -4 989 l 2,10,11
 -4 1067 -4 1067 27 1136.5 c 128,-1,12
 58 1206 58 1206 115.5 1258 c 128,-1,13
 173 1310 173 1310 255 1340 c 128,-1,14
 337 1370 337 1370 438 1370 c 0,15,16
 540 1370 540 1370 621.5 1340 c 128,-1,17
 703 1310 703 1310 761 1258 c 128,-1,18
 819 1206 819 1206 850 1136.5 c 128,-1,19
 881 1067 881 1067 881 989 c 2,20,-1
 881 381 l 2,21,22
 881 303 881 303 850 233.5 c 128,-1,23
 819 164 819 164 761 112 c 128,-1,24
 703 60 703 60 621.5 30 c 128,-1,25
 540 0 540 0 438 0 c 0,4,5
EndSplineSet
EndChar

StartChar: period
Encoding: 46 46 17
Width: 877
GlyphClass: 2
Flags: HMW
LayerCount: 2
Fore
SplineSet
504 453 m 1,0,-1
 504 582 l 1,1,-1
 373 582 l 1,2,-1
 373 453 l 1,3,-1
 504 453 l 1,0,-1
438 0 m 0,4,5
 337 0 337 0 255 30 c 128,-1,6
 173 60 173 60 115.5 112 c 128,-1,7
 58 164 58 164 27 233.5 c 128,-1,8
 -4 303 -4 303 -4 381 c 2,9,-1
 -4 989 l 2,10,11
 -4 1067 -4 1067 27 1136.5 c 128,-1,12
 58 1206 58 1206 115.5 1258 c 128,-1,13
 173 1310 173 1310 255 1340 c 128,-1,14
 337 1370 337 1370 438 1370 c 0,15,16
 540 1370 540 1370 621.5 1340 c 128,-1,17
 703 1310 703 1310 761 1258 c 128,-1,18
 819 1206 819 1206 850 1136.5 c 128,-1,19
 881 1067 881 1067 881 989 c 2,20,-1
 881 381 l 2,21,22
 881 303 881 303 850 233.5 c 128,-1,23
 819 164 819 164 761 112 c 128,-1,24
 703 60 703 60 621.5 30 c 128,-1,25
 540 0 540 0 438 0 c 0,4,5
EndSplineSet
EndChar

StartChar: slash
Encoding: 47 47 18
Width: 877
GlyphClass: 2
Flags: HMW
LayerCount: 2
Fore
SplineSet
438 1370 m 0,0,1
 540 1370 540 1370 621.5 1340 c 128,-1,2
 703 1310 703 1310 761 1258 c 128,-1,3
 819 1206 819 1206 850 1136.5 c 128,-1,4
 881 1067 881 1067 881 989 c 2,5,-1
 881 381 l 2,6,7
 881 303 881 303 850 233.5 c 128,-1,8
 819 164 819 164 761 112 c 128,-1,9
 703 60 703 60 621.5 30 c 128,-1,10
 540 0 540 0 438 0 c 0,11,12
 337 0 337 0 255 30 c 128,-1,13
 173 60 173 60 115.5 112 c 128,-1,14
 58 164 58 164 27 233.5 c 128,-1,15
 -4 303 -4 303 -4 381 c 2,16,-1
 -4 989 l 2,17,18
 -4 1067 -4 1067 27 1136.5 c 128,-1,19
 58 1206 58 1206 115.5 1258 c 128,-1,20
 173 1310 173 1310 255 1340 c 128,-1,21
 337 1370 337 1370 438 1370 c 0,0,1
453 1249 m 1,22,-1
 315 426 l 1,23,-1
 424 426 l 1,24,-1
 561 1249 l 1,25,-1
 453 1249 l 1,22,-1
EndSplineSet
EndChar

StartChar: zero
Encoding: 48 48 19
Width: 1184
GlyphClass: 2
Flags: HMW
LayerCount: 2
Fore
SplineSet
746 1370 m 2,0,1
 847 1370 847 1370 929 1340 c 128,-1,2
 1011 1310 1011 1310 1068.5 1258 c 128,-1,3
 1126 1206 1126 1206 1157 1136.5 c 128,-1,4
 1188 1067 1188 1067 1188 989 c 2,5,-1
 1188 381 l 2,6,7
 1188 303 1188 303 1157 233.5 c 128,-1,8
 1126 164 1126 164 1068.5 112 c 128,-1,9
 1011 60 1011 60 929 30 c 128,-1,10
 847 0 847 0 746 0 c 2,11,-1
 438 0 l 2,12,13
 337 0 337 0 255 30 c 128,-1,14
 173 60 173 60 115.5 112 c 128,-1,15
 58 164 58 164 27 233.5 c 128,-1,16
 -4 303 -4 303 -4 381 c 2,17,-1
 -4 989 l 2,18,19
 -4 1067 -4 1067 27 1136.5 c 128,-1,20
 58 1206 58 1206 115.5 1258 c 128,-1,21
 173 1310 173 1310 255 1340 c 128,-1,22
 337 1370 337 1370 438 1370 c 2,23,-1
 746 1370 l 2,0,1
946 1118 m 1,24,-1
 932 1202 l 1,25,-1
 868 1266 l 1,26,-1
 766 1280 l 1,27,-1
 498 1280 l 1,28,-1
 395 1266 l 1,29,-1
 332 1202 l 1,30,-1
 320 1118 l 1,31,-1
 320 614 l 1,32,-1
 332 528 l 1,33,-1
 397 465 l 1,34,-1
 498 453 l 1,35,-1
 766 453 l 1,36,-1
 868 465 l 1,37,-1
 932 528 l 1,38,-1
 946 614 l 1,39,-1
 946 1118 l 1,24,-1
825 569 m 1,40,-1
 760 559 l 1,41,-1
 504 559 l 1,42,-1
 438 569 l 1,43,-1
 424 629 l 1,44,-1
 424 1108 l 1,45,-1
 434 1163 l 1,46,-1
 504 1174 l 1,47,-1
 760 1174 l 1,48,-1
 830 1163 l 1,49,-1
 840 1104 l 1,50,-1
 840 625 l 1,51,-1
 825 569 l 1,40,-1
EndSplineSet
EndChar

StartChar: one
Encoding: 49 49 20
Width: 1184
GlyphClass: 2
Flags: HMW
LayerCount: 2
Fore
SplineSet
674 1282 m 1,0,-1
 584 1282 l 1,1,-1
 438 1231 l 1,2,-1
 438 1124 l 1,3,-1
 567 1169 l 1,4,-1
 567 455 l 1,5,-1
 674 455 l 1,6,-1
 674 1282 l 1,0,-1
746 1370 m 2,7,8
 847 1370 847 1370 929 1340 c 128,-1,9
 1011 1310 1011 1310 1068.5 1258 c 128,-1,10
 1126 1206 1126 1206 1157 1136.5 c 128,-1,11
 1188 1067 1188 1067 1188 989 c 2,12,-1
 1188 381 l 2,13,14
 1188 303 1188 303 1157 233.5 c 128,-1,15
 1126 164 1126 164 1068.5 112 c 128,-1,16
 1011 60 1011 60 929 30 c 128,-1,17
 847 0 847 0 746 0 c 2,18,-1
 438 0 l 2,19,20
 337 0 337 0 255 30 c 128,-1,21
 173 60 173 60 115.5 112 c 128,-1,22
 58 164 58 164 27 233.5 c 128,-1,23
 -4 303 -4 303 -4 381 c 2,24,-1
 -4 989 l 2,25,26
 -4 1067 -4 1067 27 1136.5 c 128,-1,27
 58 1206 58 1206 115.5 1258 c 128,-1,28
 173 1310 173 1310 255 1340 c 128,-1,29
 337 1370 337 1370 438 1370 c 2,30,-1
 746 1370 l 2,7,8
EndSplineSet
EndChar

StartChar: two
Encoding: 50 50 21
Width: 1184
GlyphClass: 2
Flags: HMW
LayerCount: 2
Fore
SplineSet
746 1370 m 2,0,1
 847 1370 847 1370 929 1340 c 128,-1,2
 1011 1310 1011 1310 1068.5 1258 c 128,-1,3
 1126 1206 1126 1206 1157 1136.5 c 128,-1,4
 1188 1067 1188 1067 1188 989 c 2,5,-1
 1188 381 l 2,6,7
 1188 303 1188 303 1157 233.5 c 128,-1,8
 1126 164 1126 164 1068.5 112 c 128,-1,9
 1011 60 1011 60 929 30 c 128,-1,10
 847 0 847 0 746 0 c 2,11,-1
 438 0 l 2,12,13
 337 0 337 0 255 30 c 128,-1,14
 173 60 173 60 115.5 112 c 128,-1,15
 58 164 58 164 27 233.5 c 128,-1,16
 -4 303 -4 303 -4 381 c 2,17,-1
 -4 989 l 2,18,19
 -4 1067 -4 1067 27 1136.5 c 128,-1,20
 58 1206 58 1206 115.5 1258 c 128,-1,21
 173 1310 173 1310 255 1340 c 128,-1,22
 337 1370 337 1370 438 1370 c 2,23,-1
 746 1370 l 2,0,1
922 1118 m 1,24,-1
 907 1202 l 1,25,-1
 844 1266 l 1,26,-1
 741 1280 l 1,27,-1
 500 1280 l 1,28,-1
 397 1266 l 1,29,-1
 334 1202 l 1,30,-1
 318 1096 l 1,31,-1
 424 1085 l 1,32,-1
 436 1163 l 1,33,-1
 506 1174 l 1,34,-1
 735 1174 l 1,35,-1
 805 1163 l 1,36,-1
 815 1104 l 1,37,-1
 815 979 l 1,38,39
 810 963 810 963 808 949 c 128,-1,40
 806 935 806 935 801 920 c 1,41,-1
 735 903 l 1,42,-1
 496 903 l 1,43,-1
 379 870 l 1,44,-1
 334 825 l 1,45,-1
 322 741 l 1,46,-1
 322 516 l 1,47,-1
 385 453 l 1,48,-1
 887 453 l 1,49,-1
 887 557 l 1,50,-1
 426 557 l 1,51,-1
 426 729 l 1,52,53
 429 741 429 741 430 756.5 c 128,-1,54
 431 772 431 772 434 786 c 1,55,-1
 506 803 l 1,56,-1
 746 803 l 1,57,-1
 862 836 l 1,58,-1
 907 879 l 1,59,-1
 922 965 l 1,60,-1
 922 1118 l 1,24,-1
EndSplineSet
EndChar

StartChar: three
Encoding: 51 51 22
Width: 1184
GlyphClass: 2
Flags: HMW
LayerCount: 2
Fore
SplineSet
746 1370 m 2,0,1
 847 1370 847 1370 929 1340 c 128,-1,2
 1011 1310 1011 1310 1068.5 1258 c 128,-1,3
 1126 1206 1126 1206 1157 1136.5 c 128,-1,4
 1188 1067 1188 1067 1188 989 c 2,5,-1
 1188 381 l 2,6,7
 1188 303 1188 303 1157 233.5 c 128,-1,8
 1126 164 1126 164 1068.5 112 c 128,-1,9
 1011 60 1011 60 929 30 c 128,-1,10
 847 0 847 0 746 0 c 2,11,-1
 438 0 l 2,12,13
 337 0 337 0 255 30 c 128,-1,14
 173 60 173 60 115.5 112 c 128,-1,15
 58 164 58 164 27 233.5 c 128,-1,16
 -4 303 -4 303 -4 381 c 2,17,-1
 -4 989 l 2,18,19
 -4 1067 -4 1067 27 1136.5 c 128,-1,20
 58 1206 58 1206 115.5 1258 c 128,-1,21
 173 1310 173 1310 255 1340 c 128,-1,22
 337 1370 337 1370 438 1370 c 2,23,-1
 746 1370 l 2,0,1
911 762 m 1,24,-1
 897 846 l 1,25,26
 892 849 892 849 885 856 c 128,-1,27
 878 863 878 863 873 868 c 1,28,-1
 897 893 l 1,29,-1
 911 977 l 1,30,-1
 911 1116 l 1,31,-1
 897 1200 l 1,32,-1
 834 1264 l 1,33,-1
 731 1278 l 1,34,-1
 465 1278 l 1,35,-1
 363 1264 l 1,36,-1
 299 1200 l 1,37,-1
 281 1094 l 1,38,-1
 389 1083 l 1,39,-1
 402 1161 l 1,40,-1
 471 1171 l 1,41,-1
 725 1171 l 1,42,-1
 795 1161 l 1,43,-1
 805 1102 l 1,44,-1
 805 981 l 1,45,46
 803 969 803 969 798.5 953.5 c 128,-1,47
 794 938 794 938 791 926 c 1,48,-1
 725 915 l 1,49,-1
 447 915 l 1,50,-1
 447 821 l 1,51,-1
 727 821 l 1,52,-1
 795 813 l 1,53,-1
 805 754 l 1,54,-1
 805 623 l 1,55,56
 803 610 803 610 798.5 595 c 128,-1,57
 794 580 794 580 791 567 c 1,58,-1
 725 557 l 1,59,-1
 467 557 l 1,60,-1
 406 567 l 1,61,-1
 389 645 l 1,62,-1
 281 635 l 1,63,-1
 299 526 l 1,64,-1
 363 463 l 1,65,-1
 465 451 l 1,66,-1
 731 451 l 1,67,-1
 834 463 l 1,68,-1
 897 526 l 1,69,-1
 911 612 l 1,70,-1
 911 762 l 1,24,-1
EndSplineSet
EndChar

StartChar: four
Encoding: 52 52 23
Width: 1184
GlyphClass: 2
Flags: HMW
LayerCount: 2
Fore
SplineSet
746 1370 m 2,0,1
 847 1370 847 1370 929 1340 c 128,-1,2
 1011 1310 1011 1310 1068.5 1258 c 128,-1,3
 1126 1206 1126 1206 1157 1136.5 c 128,-1,4
 1188 1067 1188 1067 1188 989 c 2,5,-1
 1188 381 l 2,6,7
 1188 303 1188 303 1157 233.5 c 128,-1,8
 1126 164 1126 164 1068.5 112 c 128,-1,9
 1011 60 1011 60 929 30 c 128,-1,10
 847 0 847 0 746 0 c 2,11,-1
 438 0 l 2,12,13
 337 0 337 0 255 30 c 128,-1,14
 173 60 173 60 115.5 112 c 128,-1,15
 58 164 58 164 27 233.5 c 128,-1,16
 -4 303 -4 303 -4 381 c 2,17,-1
 -4 989 l 2,18,19
 -4 1067 -4 1067 27 1136.5 c 128,-1,20
 58 1206 58 1206 115.5 1258 c 128,-1,21
 173 1310 173 1310 255 1340 c 128,-1,22
 337 1370 337 1370 438 1370 c 2,23,-1
 746 1370 l 2,0,1
541 647 m 1,24,-1
 711 647 l 1,25,-1
 711 453 l 1,26,-1
 817 453 l 1,27,-1
 817 647 l 1,28,-1
 971 647 l 1,29,-1
 971 754 l 1,30,-1
 817 754 l 1,31,-1
 817 1280 l 1,32,-1
 711 1280 l 1,33,-1
 711 752 l 1,34,-1
 547 752 l 1,35,-1
 477 762 l 1,36,-1
 467 821 l 1,37,-1
 467 1280 l 1,38,-1
 361 1280 l 1,39,-1
 361 807 l 1,40,-1
 375 723 l 1,41,-1
 438 659 l 1,42,-1
 541 647 l 1,24,-1
EndSplineSet
EndChar

StartChar: five
Encoding: 53 53 24
Width: 1184
GlyphClass: 2
Flags: HMW
LayerCount: 2
Fore
SplineSet
746 1370 m 2,0,1
 847 1370 847 1370 929 1340 c 128,-1,2
 1011 1310 1011 1310 1068.5 1258 c 128,-1,3
 1126 1206 1126 1206 1157 1136.5 c 128,-1,4
 1188 1067 1188 1067 1188 989 c 2,5,-1
 1188 381 l 2,6,7
 1188 303 1188 303 1157 233.5 c 128,-1,8
 1126 164 1126 164 1068.5 112 c 128,-1,9
 1011 60 1011 60 929 30 c 128,-1,10
 847 0 847 0 746 0 c 2,11,-1
 438 0 l 2,12,13
 337 0 337 0 255 30 c 128,-1,14
 173 60 173 60 115.5 112 c 128,-1,15
 58 164 58 164 27 233.5 c 128,-1,16
 -4 303 -4 303 -4 381 c 2,17,-1
 -4 989 l 2,18,19
 -4 1067 -4 1067 27 1136.5 c 128,-1,20
 58 1206 58 1206 115.5 1258 c 128,-1,21
 173 1310 173 1310 255 1340 c 128,-1,22
 337 1370 337 1370 438 1370 c 2,23,-1
 746 1370 l 2,0,1
936 797 m 1,24,-1
 922 881 l 1,25,-1
 858 944 l 1,26,-1
 758 958 l 1,27,-1
 512 958 l 1,28,-1
 438 946 l 1,29,-1
 438 1176 l 1,30,-1
 895 1176 l 1,31,-1
 895 1280 l 1,32,-1
 395 1280 l 1,33,-1
 332 1217 l 1,34,-1
 332 840 l 1,35,-1
 434 840 l 1,36,-1
 518 852 l 1,37,-1
 752 852 l 1,38,-1
 819 842 l 1,39,-1
 830 782 l 1,40,-1
 830 623 l 1,41,42
 828 610 828 610 823 596 c 128,-1,43
 818 582 818 582 815 569 c 1,44,-1
 756 557 l 1,45,-1
 514 557 l 1,46,-1
 451 569 l 1,47,-1
 440 616 l 1,48,-1
 326 604 l 1,49,-1
 348 526 l 1,50,-1
 412 465 l 1,51,-1
 512 453 l 1,52,-1
 758 453 l 1,53,-1
 858 465 l 1,54,-1
 922 528 l 1,55,-1
 936 612 l 1,56,-1
 936 797 l 1,24,-1
EndSplineSet
EndChar

StartChar: six
Encoding: 54 54 25
Width: 1184
GlyphClass: 2
Flags: HMW
LayerCount: 2
Fore
SplineSet
746 1370 m 2,0,1
 847 1370 847 1370 929 1340 c 128,-1,2
 1011 1310 1011 1310 1068.5 1258 c 128,-1,3
 1126 1206 1126 1206 1157 1136.5 c 128,-1,4
 1188 1067 1188 1067 1188 989 c 2,5,-1
 1188 381 l 2,6,7
 1188 303 1188 303 1157 233.5 c 128,-1,8
 1126 164 1126 164 1068.5 112 c 128,-1,9
 1011 60 1011 60 929 30 c 128,-1,10
 847 0 847 0 746 0 c 2,11,-1
 438 0 l 2,12,13
 337 0 337 0 255 30 c 128,-1,14
 173 60 173 60 115.5 112 c 128,-1,15
 58 164 58 164 27 233.5 c 128,-1,16
 -4 303 -4 303 -4 381 c 2,17,-1
 -4 989 l 2,18,19
 -4 1067 -4 1067 27 1136.5 c 128,-1,20
 58 1206 58 1206 115.5 1258 c 128,-1,21
 173 1310 173 1310 255 1340 c 128,-1,22
 337 1370 337 1370 438 1370 c 2,23,-1
 746 1370 l 2,0,1
961 799 m 1,24,-1
 946 883 l 1,25,-1
 883 946 l 1,26,-1
 780 961 l 1,27,-1
 512 961 l 1,28,-1
 438 948 l 1,29,-1
 438 1108 l 1,30,-1
 449 1163 l 1,31,-1
 516 1163 l 1,32,-1
 774 1163 l 1,33,-1
 879 1151 l 1,34,-1
 899 1255 l 1,35,-1
 782 1280 l 1,36,-1
 512 1280 l 1,37,-1
 410 1266 l 1,38,-1
 346 1202 l 1,39,-1
 332 1118 l 1,40,-1
 332 612 l 1,41,-1
 346 528 l 1,42,-1
 410 465 l 1,43,-1
 512 453 l 1,44,-1
 780 453 l 1,45,-1
 881 465 l 1,46,-1
 946 528 l 1,47,-1
 961 612 l 1,48,-1
 961 799 l 1,24,-1
840 569 m 1,49,-1
 774 557 l 1,50,-1
 514 557 l 1,51,-1
 453 569 l 1,52,53
 451 581 451 581 445.5 600.5 c 128,-1,54
 440 620 440 620 438 629 c 1,55,-1
 438 788 l 1,56,-1
 449 844 l 1,57,-1
 518 854 l 1,58,-1
 774 854 l 1,59,-1
 844 844 l 1,60,-1
 854 784 l 1,61,-1
 854 629 l 1,62,-1
 840 569 l 1,49,-1
EndSplineSet
EndChar

StartChar: seven
Encoding: 55 55 26
Width: 1184
GlyphClass: 2
Flags: HMW
LayerCount: 2
Fore
SplineSet
852 1194 m 1,0,-1
 852 1280 l 1,1,-1
 420 1280 l 1,2,-1
 420 1174 l 1,3,-1
 731 1174 l 1,4,-1
 469 453 l 1,5,-1
 592 453 l 1,6,-1
 852 1194 l 1,0,-1
746 1370 m 2,7,8
 847 1370 847 1370 929 1340 c 128,-1,9
 1011 1310 1011 1310 1068.5 1258 c 128,-1,10
 1126 1206 1126 1206 1157 1136.5 c 128,-1,11
 1188 1067 1188 1067 1188 989 c 2,12,-1
 1188 381 l 2,13,14
 1188 303 1188 303 1157 233.5 c 128,-1,15
 1126 164 1126 164 1068.5 112 c 128,-1,16
 1011 60 1011 60 929 30 c 128,-1,17
 847 0 847 0 746 0 c 2,18,-1
 438 0 l 2,19,20
 337 0 337 0 255 30 c 128,-1,21
 173 60 173 60 115.5 112 c 128,-1,22
 58 164 58 164 27 233.5 c 128,-1,23
 -4 303 -4 303 -4 381 c 2,24,-1
 -4 989 l 2,25,26
 -4 1067 -4 1067 27 1136.5 c 128,-1,27
 58 1206 58 1206 115.5 1258 c 128,-1,28
 173 1310 173 1310 255 1340 c 128,-1,29
 337 1370 337 1370 438 1370 c 2,30,-1
 746 1370 l 2,7,8
EndSplineSet
EndChar

StartChar: eight
Encoding: 56 56 27
Width: 1184
GlyphClass: 2
Flags: HMW
LayerCount: 2
Fore
SplineSet
746 1370 m 2,0,1
 847 1370 847 1370 929 1340 c 128,-1,2
 1011 1310 1011 1310 1068.5 1258 c 128,-1,3
 1126 1206 1126 1206 1157 1136.5 c 128,-1,4
 1188 1067 1188 1067 1188 989 c 2,5,-1
 1188 381 l 2,6,7
 1188 303 1188 303 1157 233.5 c 128,-1,8
 1126 164 1126 164 1068.5 112 c 128,-1,9
 1011 60 1011 60 929 30 c 128,-1,10
 847 0 847 0 746 0 c 2,11,-1
 438 0 l 2,12,13
 337 0 337 0 255 30 c 128,-1,14
 173 60 173 60 115.5 112 c 128,-1,15
 58 164 58 164 27 233.5 c 128,-1,16
 -4 303 -4 303 -4 381 c 2,17,-1
 -4 989 l 2,18,19
 -4 1067 -4 1067 27 1136.5 c 128,-1,20
 58 1206 58 1206 115.5 1258 c 128,-1,21
 173 1310 173 1310 255 1340 c 128,-1,22
 337 1370 337 1370 438 1370 c 2,23,-1
 746 1370 l 2,0,1
762 1280 m 1,24,-1
 494 1280 l 1,25,-1
 391 1266 l 1,26,-1
 328 1202 l 1,27,-1
 313 1118 l 1,28,-1
 313 981 l 1,29,-1
 328 897 l 1,30,-1
 352 874 l 1,31,-1
 328 850 l 1,32,-1
 313 766 l 1,33,-1
 313 614 l 1,34,-1
 328 528 l 1,35,-1
 393 465 l 1,36,-1
 494 453 l 1,37,-1
 762 453 l 1,38,-1
 862 465 l 1,39,-1
 928 528 l 1,40,-1
 942 614 l 1,41,-1
 942 766 l 1,42,-1
 928 850 l 1,43,-1
 903 874 l 1,44,-1
 928 897 l 1,45,-1
 942 981 l 1,46,-1
 942 1118 l 1,47,-1
 928 1202 l 1,48,-1
 864 1266 l 1,49,-1
 762 1280 l 1,24,-1
756 559 m 1,50,-1
 500 559 l 1,51,-1
 434 569 l 1,52,-1
 420 629 l 1,53,-1
 420 756 l 1,54,-1
 430 811 l 1,55,-1
 500 821 l 1,56,-1
 756 821 l 1,57,-1
 825 811 l 1,58,-1
 836 756 l 1,59,-1
 836 629 l 1,60,-1
 821 569 l 1,61,-1
 756 559 l 1,50,-1
756 928 m 1,62,-1
 500 928 l 1,63,-1
 434 938 l 1,64,-1
 420 997 l 1,65,-1
 420 1108 l 1,66,-1
 430 1163 l 1,67,-1
 500 1174 l 1,68,-1
 756 1174 l 1,69,-1
 825 1163 l 1,70,-1
 836 1108 l 1,71,-1
 836 997 l 1,72,-1
 821 938 l 1,73,-1
 756 928 l 1,62,-1
EndSplineSet
EndChar

StartChar: nine
Encoding: 57 57 28
Width: 1184
GlyphClass: 2
Flags: HMW
LayerCount: 2
Fore
SplineSet
746 1370 m 2,0,1
 847 1370 847 1370 929 1340 c 128,-1,2
 1011 1310 1011 1310 1068.5 1258 c 128,-1,3
 1126 1206 1126 1206 1157 1136.5 c 128,-1,4
 1188 1067 1188 1067 1188 989 c 2,5,-1
 1188 381 l 2,6,7
 1188 303 1188 303 1157 233.5 c 128,-1,8
 1126 164 1126 164 1068.5 112 c 128,-1,9
 1011 60 1011 60 929 30 c 128,-1,10
 847 0 847 0 746 0 c 2,11,-1
 438 0 l 2,12,13
 337 0 337 0 255 30 c 128,-1,14
 173 60 173 60 115.5 112 c 128,-1,15
 58 164 58 164 27 233.5 c 128,-1,16
 -4 303 -4 303 -4 381 c 2,17,-1
 -4 989 l 2,18,19
 -4 1067 -4 1067 27 1136.5 c 128,-1,20
 58 1206 58 1206 115.5 1258 c 128,-1,21
 173 1310 173 1310 255 1340 c 128,-1,22
 337 1370 337 1370 438 1370 c 2,23,-1
 746 1370 l 2,0,1
301 934 m 1,24,-1
 315 850 l 1,25,-1
 379 786 l 1,26,-1
 481 772 l 1,27,-1
 750 772 l 1,28,-1
 823 784 l 1,29,-1
 823 625 l 1,30,-1
 813 569 l 1,31,-1
 746 569 l 1,32,-1
 488 569 l 1,33,-1
 383 582 l 1,34,-1
 363 477 l 1,35,-1
 479 453 l 1,36,-1
 750 453 l 1,37,-1
 852 467 l 1,38,-1
 916 530 l 1,39,-1
 930 614 l 1,40,-1
 930 1120 l 1,41,-1
 916 1204 l 1,42,-1
 852 1268 l 1,43,-1
 750 1280 l 1,44,-1
 481 1280 l 1,45,-1
 381 1268 l 1,46,-1
 315 1204 l 1,47,-1
 301 1120 l 1,48,-1
 301 934 l 1,24,-1
422 1163 m 1,49,-1
 488 1176 l 1,50,-1
 748 1176 l 1,51,-1
 809 1163 l 1,52,-1
 823 1110 l 1,53,-1
 823 944 l 1,54,-1
 813 889 l 1,55,-1
 744 879 l 1,56,-1
 488 879 l 1,57,-1
 418 889 l 1,58,-1
 408 948 l 1,59,-1
 408 1104 l 1,60,-1
 422 1163 l 1,49,-1
EndSplineSet
EndChar

StartChar: colon
Encoding: 58 58 29
Width: 877
GlyphClass: 2
Flags: HMW
LayerCount: 2
Fore
SplineSet
504 453 m 1,0,-1
 504 582 l 1,1,-1
 373 582 l 1,2,-1
 373 453 l 1,3,-1
 504 453 l 1,0,-1
438 0 m 0,4,5
 337 0 337 0 255 30 c 128,-1,6
 173 60 173 60 115.5 112 c 128,-1,7
 58 164 58 164 27 233.5 c 128,-1,8
 -4 303 -4 303 -4 381 c 2,9,-1
 -4 989 l 2,10,11
 -4 1067 -4 1067 27 1136.5 c 128,-1,12
 58 1206 58 1206 115.5 1258 c 128,-1,13
 173 1310 173 1310 255 1340 c 128,-1,14
 337 1370 337 1370 438 1370 c 0,15,16
 540 1370 540 1370 621.5 1340 c 128,-1,17
 703 1310 703 1310 761 1258 c 128,-1,18
 819 1206 819 1206 850 1136.5 c 128,-1,19
 881 1067 881 1067 881 989 c 2,20,-1
 881 381 l 2,21,22
 881 303 881 303 850 233.5 c 128,-1,23
 819 164 819 164 761 112 c 128,-1,24
 703 60 703 60 621.5 30 c 128,-1,25
 540 0 540 0 438 0 c 0,4,5
504 741 m 1,26,-1
 504 870 l 1,27,-1
 373 870 l 1,28,-1
 373 741 l 1,29,-1
 504 741 l 1,26,-1
EndSplineSet
EndChar

StartChar: semicolon
Encoding: 59 59 30
Width: 877
GlyphClass: 2
Flags: HMW
LayerCount: 2
Fore
SplineSet
438 0 m 0,0,1
 337 0 337 0 255 30 c 128,-1,2
 173 60 173 60 115.5 112 c 128,-1,3
 58 164 58 164 27 233.5 c 128,-1,4
 -4 303 -4 303 -4 381 c 2,5,-1
 -4 989 l 2,6,7
 -4 1067 -4 1067 27 1136.5 c 128,-1,8
 58 1206 58 1206 115.5 1258 c 128,-1,9
 173 1310 173 1310 255 1340 c 128,-1,10
 337 1370 337 1370 438 1370 c 0,11,12
 540 1370 540 1370 621.5 1340 c 128,-1,13
 703 1310 703 1310 761 1258 c 128,-1,14
 819 1206 819 1206 850 1136.5 c 128,-1,15
 881 1067 881 1067 881 989 c 2,16,-1
 881 381 l 2,17,18
 881 303 881 303 850 233.5 c 128,-1,19
 819 164 819 164 761 112 c 128,-1,20
 703 60 703 60 621.5 30 c 128,-1,21
 540 0 540 0 438 0 c 0,0,1
463 324 m 1,22,-1
 524 453 l 1,23,-1
 524 582 l 1,24,-1
 373 582 l 1,25,-1
 373 453 l 1,26,-1
 438 453 l 1,27,-1
 399 352 l 1,28,-1
 463 324 l 1,22,-1
520 741 m 1,29,-1
 520 870 l 1,30,-1
 389 870 l 1,31,-1
 389 741 l 1,32,-1
 520 741 l 1,29,-1
EndSplineSet
EndChar

StartChar: less
Encoding: 60 60 31
Width: 989
GlyphClass: 2
Flags: MW
LayerCount: 2
Fore
SplineSet
488 1559 m 1,0,-1
 516 1559 l 2,1,2
 625 1559 625 1559 713.5 1527 c 128,-1,3
 802 1495 802 1495 864 1439.5 c 128,-1,4
 926 1384 926 1384 959.5 1310.5 c 128,-1,5
 993 1237 993 1237 993 1153 c 2,6,-1
 993 504 l 2,7,8
 993 412 993 412 957 336.5 c 128,-1,9
 921 261 921 261 854.5 207.5 c 128,-1,10
 788 154 788 154 693.5 125 c 128,-1,11
 599 96 599 96 481 96 c 0,12,13
 370 96 370 96 280.5 127.5 c 128,-1,14
 191 159 191 159 128 214 c 128,-1,15
 65 269 65 269 30.5 343.5 c 128,-1,16
 -4 418 -4 418 -4 504 c 2,17,-1
 -4 1153 l 2,18,19
 -4 1237 -4 1237 29 1310.5 c 128,-1,20
 62 1384 62 1384 123 1439.5 c 128,-1,21
 184 1495 184 1495 271.5 1527 c 128,-1,22
 359 1559 359 1559 467 1559 c 2,23,-1
 488 1559 l 1,0,-1
596 408 m 1,24,-1
 643 453 l 1,25,-1
 344 797 l 1,26,-1
 643 1141 l 1,27,-1
 596 1188 l 1,28,-1
 270 811 l 1,29,-1
 270 784 l 1,30,-1
 596 408 l 1,24,-1
EndSplineSet
EndChar

StartChar: equal
Encoding: 61 61 32
Width: 989
GlyphClass: 2
Flags: HMW
LayerCount: 2
Fore
SplineSet
469 96 m 2,0,1
 360 96 360 96 272.5 128 c 128,-1,2
 185 160 185 160 123.5 215.5 c 128,-1,3
 62 271 62 271 29 345.5 c 128,-1,4
 -4 420 -4 420 -4 504 c 2,5,-1
 -4 1153 l 2,6,7
 -4 1237 -4 1237 29.5 1310.5 c 128,-1,8
 63 1384 63 1384 125 1439.5 c 128,-1,9
 187 1495 187 1495 275 1527 c 128,-1,10
 363 1559 363 1559 473 1559 c 2,11,-1
 522 1559 l 2,12,13
 630 1559 630 1559 717.5 1527 c 128,-1,14
 805 1495 805 1495 866 1439.5 c 128,-1,15
 927 1384 927 1384 960 1310.5 c 128,-1,16
 993 1237 993 1237 993 1153 c 2,17,-1
 993 504 l 2,18,19
 993 418 993 418 959 343.5 c 128,-1,20
 925 269 925 269 862 214 c 128,-1,21
 799 159 799 159 710 127.5 c 128,-1,22
 621 96 621 96 510 96 c 2,23,-1
 469 96 l 2,0,1
709 768 m 1,24,-1
 318 768 l 1,25,-1
 318 700 l 1,26,-1
 709 700 l 1,27,-1
 709 768 l 1,24,-1
709 963 m 1,28,-1
 318 963 l 1,29,-1
 318 899 l 1,30,-1
 709 899 l 1,31,-1
 709 963 l 1,28,-1
EndSplineSet
EndChar

StartChar: greater
Encoding: 62 62 33
Width: 989
GlyphClass: 2
Flags: MW
LayerCount: 2
Fore
SplineSet
469 96 m 2,0,1
 360 96 360 96 272.5 128 c 128,-1,2
 185 160 185 160 123.5 215.5 c 128,-1,3
 62 271 62 271 29 345.5 c 128,-1,4
 -4 420 -4 420 -4 504 c 2,5,-1
 -4 1153 l 2,6,7
 -4 1237 -4 1237 29.5 1310.5 c 128,-1,8
 63 1384 63 1384 125 1439.5 c 128,-1,9
 187 1495 187 1495 275 1527 c 128,-1,10
 363 1559 363 1559 473 1559 c 2,11,-1
 522 1559 l 2,12,13
 630 1559 630 1559 717.5 1527 c 128,-1,14
 805 1495 805 1495 866 1439.5 c 128,-1,15
 927 1384 927 1384 960 1310.5 c 128,-1,16
 993 1237 993 1237 993 1153 c 2,17,-1
 993 504 l 2,18,19
 993 418 993 418 959 343.5 c 128,-1,20
 925 269 925 269 862 214 c 128,-1,21
 799 159 799 159 710 127.5 c 128,-1,22
 621 96 621 96 510 96 c 2,23,-1
 469 96 l 2,0,1
719 784 m 1,24,-1
 719 811 l 1,25,-1
 393 1188 l 1,26,-1
 346 1141 l 1,27,-1
 645 797 l 1,28,-1
 346 453 l 1,29,-1
 393 408 l 1,30,-1
 719 784 l 1,24,-1
EndSplineSet
EndChar

StartChar: question
Encoding: 63 63 34
Width: 1184
GlyphClass: 2
Flags: HMW
LayerCount: 2
Fore
SplineSet
572 565 m 1,0,-1
 572 463 l 1,1,-1
 678 463 l 1,2,-1
 678 565 l 1,3,-1
 572 565 l 1,0,-1
582 818 m 1,4,-1
 582 622 l 1,5,-1
 668 622 l 1,6,-1
 668 787 l 1,7,-1
 753 787 l 1,8,-1
 852 801 l 1,9,-1
 909 858 l 1,10,-1
 924 940 l 1,11,-1
 924 1116 l 1,12,-1
 909 1198 l 1,13,-1
 852 1255 l 1,14,-1
 754 1270 l 1,15,-1
 549 1270 l 1,16,-1
 451 1255 l 1,17,-1
 394 1198 l 1,18,-1
 377 1105 l 1,19,-1
 464 1097 l 1,20,21
 467 1113 467 1113 469.5 1134.5 c 128,-1,22
 472 1156 472 1156 475 1173 c 1,23,-1
 751 1184 l 1,24,-1
 827 1173 l 1,25,-1
 838 1106 l 1,26,-1
 838 950 l 1,27,-1
 827 883 l 1,28,-1
 624 872 l 1,29,-1
 582 818 l 1,4,-1
746 1370 m 2,30,31
 847 1370 847 1370 929 1340 c 128,-1,32
 1011 1310 1011 1310 1068.5 1258 c 128,-1,33
 1126 1206 1126 1206 1157 1136.5 c 128,-1,34
 1188 1067 1188 1067 1188 989 c 2,35,-1
 1188 381 l 2,36,37
 1188 303 1188 303 1157 233.5 c 128,-1,38
 1126 164 1126 164 1068.5 112 c 128,-1,39
 1011 60 1011 60 929 30 c 128,-1,40
 847 0 847 0 746 0 c 2,41,-1
 438 0 l 2,42,43
 337 0 337 0 255 30 c 128,-1,44
 173 60 173 60 115.5 112 c 128,-1,45
 58 164 58 164 27 233.5 c 128,-1,46
 -4 303 -4 303 -4 381 c 2,47,-1
 -4 989 l 2,48,49
 -4 1067 -4 1067 27 1136.5 c 128,-1,50
 58 1206 58 1206 115.5 1258 c 128,-1,51
 173 1310 173 1310 255 1340 c 128,-1,52
 337 1370 337 1370 438 1370 c 2,53,-1
 746 1370 l 2,30,31
EndSplineSet
EndChar

StartChar: at
Encoding: 64 64 35
Width: 1184
GlyphClass: 2
Flags: HMW
LayerCount: 2
Fore
SplineSet
746 1370 m 2,0,1
 847 1370 847 1370 929 1340 c 128,-1,2
 1011 1310 1011 1310 1068.5 1258 c 128,-1,3
 1126 1206 1126 1206 1157 1136.5 c 128,-1,4
 1188 1067 1188 1067 1188 989 c 2,5,-1
 1188 381 l 2,6,7
 1188 303 1188 303 1157 233.5 c 128,-1,8
 1126 164 1126 164 1068.5 112 c 128,-1,9
 1011 60 1011 60 929 30 c 128,-1,10
 847 0 847 0 746 0 c 2,11,-1
 438 0 l 2,12,13
 337 0 337 0 255 30 c 128,-1,14
 173 60 173 60 115.5 112 c 128,-1,15
 58 164 58 164 27 233.5 c 128,-1,16
 -4 303 -4 303 -4 381 c 2,17,-1
 -4 989 l 2,18,19
 -4 1067 -4 1067 27 1136.5 c 128,-1,20
 58 1206 58 1206 115.5 1258 c 128,-1,21
 173 1310 173 1310 255 1340 c 128,-1,22
 337 1370 337 1370 438 1370 c 2,23,-1
 746 1370 l 2,0,1
490 764 m 1,24,-1
 590 776 l 1,25,-1
 633 776 l 1,26,-1
 737 766 l 1,27,-1
 737 659 l 1,28,-1
 629 647 l 1,29,-1
 590 647 l 1,30,-1
 498 659 l 1,31,-1
 481 715 l 1,32,-1
 490 764 l 1,24,-1
832 915 m 1,33,-1
 815 1008 l 1,34,-1
 746 1077 l 1,35,-1
 637 1090 l 1,36,-1
 555 1090 l 1,37,-1
 436 1065 l 1,38,-1
 455 993 l 1,39,-1
 557 1014 l 1,40,-1
 635 1014 l 1,41,-1
 721 999 l 1,42,-1
 737 942 l 1,43,-1
 737 848 l 1,44,-1
 637 860 l 1,45,-1
 582 860 l 1,46,-1
 473 846 l 1,47,-1
 404 776 l 1,48,-1
 386 731 l 1,49,-1
 386 696 l 1,50,-1
 404 649 l 1,51,-1
 473 580 l 1,52,-1
 582 567 l 1,53,-1
 637 567 l 1,54,-1
 754 596 l 1,55,-1
 803 496 l 1,56,-1
 993 496 l 1,57,-1
 1034 565 l 1,58,-1
 1049 659 l 1,59,60
 1048 669 1048 669 1047.5 684 c 128,-1,61
 1047 699 1047 699 1047 725 c 128,-1,62
 1047 751 1047 751 1047 790.5 c 128,-1,63
 1047 830 1047 830 1047 889 c 0,64,65
 1047 928 1047 928 1043 973 c 128,-1,66
 1039 1018 1039 1018 1026 1063 c 128,-1,67
 1013 1108 1013 1108 988 1149.5 c 128,-1,68
 963 1191 963 1191 920.5 1223.5 c 128,-1,69
 878 1256 878 1256 815.5 1275 c 128,-1,70
 753 1294 753 1294 666 1294 c 0,71,72
 531 1294 531 1294 443 1274 c 128,-1,73
 355 1254 355 1254 301.5 1220 c 128,-1,74
 248 1186 248 1186 222.5 1141.5 c 128,-1,75
 197 1097 197 1097 188 1048 c 0,76,77
 180 1005 180 1005 180 961 c 0,78,79
 180 951 180 951 180 946 c 0,80,81
 182 931 182 931 182 847 c 0,82,83
 182 765 182 765 184.5 695.5 c 128,-1,84
 187 626 187 626 198 569.5 c 128,-1,85
 209 513 209 513 231 470.5 c 128,-1,86
 253 428 253 428 292.5 399 c 128,-1,87
 332 370 332 370 391 355 c 1,88,-1
 655 340 l 1,89,-1
 662 430 l 1,90,91
 609 427 609 427 566 427 c 0,92,93
 459 427 459 427 399 446 c 128,-1,94
 339 465 339 465 310 511.5 c 128,-1,95
 281 558 281 558 274.5 637 c 128,-1,96
 268 716 268 716 268 836 c 2,97,-1
 268 946 l 2,98,99
 268 994 268 994 278.5 1040 c 128,-1,100
 289 1086 289 1086 329 1122.5 c 128,-1,101
 369 1159 369 1159 448.5 1181.5 c 128,-1,102
 528 1204 528 1204 666 1204 c 0,103,104
 763 1204 763 1204 821 1177.5 c 128,-1,105
 879 1151 879 1151 910 1108.5 c 128,-1,106
 941 1066 941 1066 951 1013.5 c 128,-1,107
 961 961 961 961 961 909 c 2,108,-1
 961 625 l 1,109,-1
 944 565 l 1,110,-1
 848 565 l 1,111,-1
 832 625 l 1,112,-1
 832 915 l 1,33,-1
EndSplineSet
EndChar

StartChar: A
Encoding: 65 65 36
Width: 1184
GlyphClass: 2
Flags: HMW
LayerCount: 2
Fore
SplineSet
746 1370 m 2,0,1
 847 1370 847 1370 929 1340 c 128,-1,2
 1011 1310 1011 1310 1068.5 1258 c 128,-1,3
 1126 1206 1126 1206 1157 1136.5 c 128,-1,4
 1188 1067 1188 1067 1188 989 c 2,5,-1
 1188 381 l 2,6,7
 1188 303 1188 303 1157 233.5 c 128,-1,8
 1126 164 1126 164 1068.5 112 c 128,-1,9
 1011 60 1011 60 929 30 c 128,-1,10
 847 0 847 0 746 0 c 2,11,-1
 438 0 l 2,12,13
 337 0 337 0 255 30 c 128,-1,14
 173 60 173 60 115.5 112 c 128,-1,15
 58 164 58 164 27 233.5 c 128,-1,16
 -4 303 -4 303 -4 381 c 2,17,-1
 -4 989 l 2,18,19
 -4 1067 -4 1067 27 1136.5 c 128,-1,20
 58 1206 58 1206 115.5 1258 c 128,-1,21
 173 1310 173 1310 255 1340 c 128,-1,22
 337 1370 337 1370 438 1370 c 2,23,-1
 746 1370 l 2,0,1
838 453 m 1,24,-1
 952 453 l 1,25,-1
 873 1198 l 1,26,-1
 811 1260 l 1,27,-1
 678 1280 l 1,28,-1
 571 1280 l 1,29,-1
 438 1260 l 1,30,-1
 377 1198 l 1,31,-1
 295 453 l 1,32,-1
 414 453 l 1,33,-1
 430 666 l 1,34,-1
 440 758 l 1,35,-1
 809 758 l 1,36,-1
 819 666 l 1,37,-1
 838 453 l 1,24,-1
768 1159 m 1,38,39
 775 1078 775 1078 784 1006 c 128,-1,40
 793 934 793 934 801 854 c 1,41,-1
 449 854 l 1,42,-1
 479 1159 l 1,43,44
 507 1162 507 1162 527.5 1166 c 128,-1,45
 548 1170 548 1170 576 1174 c 1,46,-1
 674 1174 l 1,47,-1
 768 1159 l 1,38,39
EndSplineSet
EndChar

StartChar: B
Encoding: 66 66 37
Width: 1184
GlyphClass: 2
Flags: HMW
LayerCount: 2
Fore
SplineSet
746 1370 m 2,0,1
 847 1370 847 1370 929 1340 c 128,-1,2
 1011 1310 1011 1310 1068.5 1258 c 128,-1,3
 1126 1206 1126 1206 1157 1136.5 c 128,-1,4
 1188 1067 1188 1067 1188 989 c 2,5,-1
 1188 381 l 2,6,7
 1188 303 1188 303 1157 233.5 c 128,-1,8
 1126 164 1126 164 1068.5 112 c 128,-1,9
 1011 60 1011 60 929 30 c 128,-1,10
 847 0 847 0 746 0 c 2,11,-1
 438 0 l 2,12,13
 337 0 337 0 255 30 c 128,-1,14
 173 60 173 60 115.5 112 c 128,-1,15
 58 164 58 164 27 233.5 c 128,-1,16
 -4 303 -4 303 -4 381 c 2,17,-1
 -4 989 l 2,18,19
 -4 1067 -4 1067 27 1136.5 c 128,-1,20
 58 1206 58 1206 115.5 1258 c 128,-1,21
 173 1310 173 1310 255 1340 c 128,-1,22
 337 1370 337 1370 438 1370 c 2,23,-1
 746 1370 l 2,0,1
907 770 m 1,24,-1
 888 844 l 1,25,-1
 808 879 l 1,26,-1
 888 909 l 1,27,-1
 907 985 l 1,28,-1
 907 1118 l 1,29,-1
 893 1202 l 1,30,-1
 830 1266 l 1,31,-1
 727 1280 l 1,32,-1
 307 1280 l 1,33,-1
 307 453 l 1,34,-1
 727 453 l 1,35,-1
 830 465 l 1,36,-1
 893 528 l 1,37,-1
 907 612 l 1,38,-1
 907 770 l 1,24,-1
787 569 m 1,39,-1
 721 559 l 1,40,-1
 414 559 l 1,41,-1
 414 823 l 1,42,-1
 723 823 l 1,43,-1
 791 815 l 1,44,-1
 801 756 l 1,45,-1
 801 623 l 1,46,-1
 787 569 l 1,39,-1
787 940 m 1,47,-1
 721 928 l 1,48,-1
 414 928 l 1,49,-1
 414 1174 l 1,50,-1
 721 1174 l 1,51,-1
 791 1163 l 1,52,-1
 787 1104 l 1,53,-1
 801 993 l 1,54,-1
 787 940 l 1,47,-1
EndSplineSet
EndChar

StartChar: D
Encoding: 68 68 39
Width: 1184
GlyphClass: 2
Flags: HMW
LayerCount: 2
Fore
SplineSet
746 1370 m 2,0,1
 847 1370 847 1370 929 1340 c 128,-1,2
 1011 1310 1011 1310 1068.5 1258 c 128,-1,3
 1126 1206 1126 1206 1157 1136.5 c 128,-1,4
 1188 1067 1188 1067 1188 989 c 2,5,-1
 1188 381 l 2,6,7
 1188 303 1188 303 1157 233.5 c 128,-1,8
 1126 164 1126 164 1068.5 112 c 128,-1,9
 1011 60 1011 60 929 30 c 128,-1,10
 847 0 847 0 746 0 c 2,11,-1
 438 0 l 2,12,13
 337 0 337 0 255 30 c 128,-1,14
 173 60 173 60 115.5 112 c 128,-1,15
 58 164 58 164 27 233.5 c 128,-1,16
 -4 303 -4 303 -4 381 c 2,17,-1
 -4 989 l 2,18,19
 -4 1067 -4 1067 27 1136.5 c 128,-1,20
 58 1206 58 1206 115.5 1258 c 128,-1,21
 173 1310 173 1310 255 1340 c 128,-1,22
 337 1370 337 1370 438 1370 c 2,23,-1
 746 1370 l 2,0,1
954 1118 m 1,24,-1
 940 1202 l 1,25,-1
 877 1266 l 1,26,-1
 774 1280 l 1,27,-1
 328 1280 l 1,28,-1
 328 453 l 1,29,-1
 774 453 l 1,30,-1
 877 465 l 1,31,-1
 940 528 l 1,32,-1
 954 614 l 1,33,-1
 954 1118 l 1,24,-1
834 569 m 1,34,-1
 768 559 l 1,35,-1
 432 559 l 1,36,-1
 432 1174 l 1,37,-1
 768 1174 l 1,38,-1
 838 1163 l 1,39,-1
 848 1104 l 1,40,-1
 848 625 l 1,41,-1
 834 569 l 1,34,-1
EndSplineSet
EndChar

StartChar: E
Encoding: 69 69 40
Width: 1184
GlyphClass: 2
Flags: HMW
LayerCount: 2
Fore
SplineSet
905 559 m 1,0,-1
 506 559 l 1,1,-1
 506 813 l 1,2,-1
 840 813 l 1,3,-1
 840 918 l 1,4,-1
 506 918 l 1,5,-1
 506 1174 l 1,6,-1
 891 1174 l 1,7,-1
 891 1280 l 1,8,-1
 402 1280 l 1,9,-1
 402 453 l 1,10,-1
 905 453 l 1,11,-1
 905 559 l 1,0,-1
746 1370 m 2,12,13
 847 1370 847 1370 929 1340 c 128,-1,14
 1011 1310 1011 1310 1068.5 1258 c 128,-1,15
 1126 1206 1126 1206 1157 1136.5 c 128,-1,16
 1188 1067 1188 1067 1188 989 c 2,17,-1
 1188 381 l 2,18,19
 1188 303 1188 303 1157 233.5 c 128,-1,20
 1126 164 1126 164 1068.5 112 c 128,-1,21
 1011 60 1011 60 929 30 c 128,-1,22
 847 0 847 0 746 0 c 2,23,-1
 438 0 l 2,24,25
 337 0 337 0 255 30 c 128,-1,26
 173 60 173 60 115.5 112 c 128,-1,27
 58 164 58 164 27 233.5 c 128,-1,28
 -4 303 -4 303 -4 381 c 2,29,-1
 -4 989 l 2,30,31
 -4 1067 -4 1067 27 1136.5 c 128,-1,32
 58 1206 58 1206 115.5 1258 c 128,-1,33
 173 1310 173 1310 255 1340 c 128,-1,34
 337 1370 337 1370 438 1370 c 2,35,-1
 746 1370 l 2,12,13
EndSplineSet
EndChar

StartChar: F
Encoding: 70 70 41
Width: 1184
GlyphClass: 2
Flags: HMW
LayerCount: 2
Fore
SplineSet
838 936 m 1,0,-1
 504 936 l 1,1,-1
 504 1174 l 1,2,-1
 895 1174 l 1,3,-1
 895 1280 l 1,4,-1
 397 1280 l 1,5,-1
 397 453 l 1,6,-1
 504 453 l 1,7,-1
 504 831 l 1,8,-1
 838 831 l 1,9,-1
 838 936 l 1,0,-1
746 1370 m 2,10,11
 847 1370 847 1370 929 1340 c 128,-1,12
 1011 1310 1011 1310 1068.5 1258 c 128,-1,13
 1126 1206 1126 1206 1157 1136.5 c 128,-1,14
 1188 1067 1188 1067 1188 989 c 2,15,-1
 1188 381 l 2,16,17
 1188 303 1188 303 1157 233.5 c 128,-1,18
 1126 164 1126 164 1068.5 112 c 128,-1,19
 1011 60 1011 60 929 30 c 128,-1,20
 847 0 847 0 746 0 c 2,21,-1
 438 0 l 2,22,23
 337 0 337 0 255 30 c 128,-1,24
 173 60 173 60 115.5 112 c 128,-1,25
 58 164 58 164 27 233.5 c 128,-1,26
 -4 303 -4 303 -4 381 c 2,27,-1
 -4 989 l 2,28,29
 -4 1067 -4 1067 27 1136.5 c 128,-1,30
 58 1206 58 1206 115.5 1258 c 128,-1,31
 173 1310 173 1310 255 1340 c 128,-1,32
 337 1370 337 1370 438 1370 c 2,33,-1
 746 1370 l 2,10,11
EndSplineSet
EndChar

StartChar: G
Encoding: 71 71 42
Width: 1184
GlyphClass: 2
Flags: HMW
LayerCount: 2
Fore
SplineSet
524 1176 m 1,0,-1
 784 1176 l 1,1,-1
 887 1159 l 1,2,-1
 907 1266 l 1,3,-1
 791 1280 l 1,4,-1
 522 1280 l 1,5,-1
 420 1264 l 1,6,-1
 356 1200 l 1,7,-1
 342 1116 l 1,8,-1
 342 614 l 1,9,-1
 356 528 l 1,10,-1
 422 465 l 1,11,-1
 522 453 l 1,12,-1
 772 453 l 1,13,-1
 873 465 l 1,14,-1
 938 528 l 1,15,-1
 952 614 l 1,16,-1
 952 877 l 1,17,-1
 662 877 l 1,18,-1
 662 770 l 1,19,-1
 846 770 l 1,20,-1
 846 629 l 1,21,22
 841 613 841 613 839 599 c 128,-1,23
 837 585 837 585 832 569 c 1,24,-1
 766 559 l 1,25,-1
 524 559 l 1,26,-1
 463 569 l 1,27,-1
 449 633 l 1,28,-1
 449 1106 l 1,29,-1
 459 1161 l 1,30,-1
 524 1176 l 1,0,-1
746 1370 m 2,31,32
 847 1370 847 1370 929 1340 c 128,-1,33
 1011 1310 1011 1310 1068.5 1258 c 128,-1,34
 1126 1206 1126 1206 1157 1136.5 c 128,-1,35
 1188 1067 1188 1067 1188 989 c 2,36,-1
 1188 381 l 2,37,38
 1188 303 1188 303 1157 233.5 c 128,-1,39
 1126 164 1126 164 1068.5 112 c 128,-1,40
 1011 60 1011 60 929 30 c 128,-1,41
 847 0 847 0 746 0 c 2,42,-1
 438 0 l 2,43,44
 337 0 337 0 255 30 c 128,-1,45
 173 60 173 60 115.5 112 c 128,-1,46
 58 164 58 164 27 233.5 c 128,-1,47
 -4 303 -4 303 -4 381 c 2,48,-1
 -4 989 l 2,49,50
 -4 1067 -4 1067 27 1136.5 c 128,-1,51
 58 1206 58 1206 115.5 1258 c 128,-1,52
 173 1310 173 1310 255 1340 c 128,-1,53
 337 1370 337 1370 438 1370 c 2,54,-1
 746 1370 l 2,31,32
EndSplineSet
EndChar

StartChar: H
Encoding: 72 72 43
Width: 1184
GlyphClass: 2
Flags: HMW
LayerCount: 2
Fore
SplineSet
954 1280 m 1,0,-1
 850 1280 l 1,1,-1
 850 930 l 1,2,-1
 434 930 l 1,3,-1
 434 1280 l 1,4,-1
 328 1280 l 1,5,-1
 328 453 l 1,6,-1
 434 453 l 1,7,-1
 434 825 l 1,8,-1
 850 825 l 1,9,-1
 850 453 l 1,10,-1
 954 453 l 1,11,-1
 954 1280 l 1,0,-1
746 1370 m 2,12,13
 847 1370 847 1370 929 1340 c 128,-1,14
 1011 1310 1011 1310 1068.5 1258 c 128,-1,15
 1126 1206 1126 1206 1157 1136.5 c 128,-1,16
 1188 1067 1188 1067 1188 989 c 2,17,-1
 1188 381 l 2,18,19
 1188 303 1188 303 1157 233.5 c 128,-1,20
 1126 164 1126 164 1068.5 112 c 128,-1,21
 1011 60 1011 60 929 30 c 128,-1,22
 847 0 847 0 746 0 c 2,23,-1
 438 0 l 2,24,25
 337 0 337 0 255 30 c 128,-1,26
 173 60 173 60 115.5 112 c 128,-1,27
 58 164 58 164 27 233.5 c 128,-1,28
 -4 303 -4 303 -4 381 c 2,29,-1
 -4 989 l 2,30,31
 -4 1067 -4 1067 27 1136.5 c 128,-1,32
 58 1206 58 1206 115.5 1258 c 128,-1,33
 173 1310 173 1310 255 1340 c 128,-1,34
 337 1370 337 1370 438 1370 c 2,35,-1
 746 1370 l 2,12,13
EndSplineSet
EndChar

StartChar: I
Encoding: 73 73 44
Width: 1184
GlyphClass: 2
Flags: HMW
LayerCount: 2
Fore
SplineSet
358 559 m 1,0,-1
 358 453 l 1,1,-1
 936 453 l 1,2,-1
 936 559 l 1,3,-1
 701 559 l 1,4,-1
 701 1174 l 1,5,-1
 936 1174 l 1,6,-1
 936 1280 l 1,7,-1
 358 1280 l 1,8,-1
 358 1174 l 1,9,-1
 594 1174 l 1,10,-1
 594 559 l 1,11,-1
 358 559 l 1,0,-1
746 1370 m 2,12,13
 847 1370 847 1370 929 1340 c 128,-1,14
 1011 1310 1011 1310 1068.5 1258 c 128,-1,15
 1126 1206 1126 1206 1157 1136.5 c 128,-1,16
 1188 1067 1188 1067 1188 989 c 2,17,-1
 1188 381 l 2,18,19
 1188 303 1188 303 1157 233.5 c 128,-1,20
 1126 164 1126 164 1068.5 112 c 128,-1,21
 1011 60 1011 60 929 30 c 128,-1,22
 847 0 847 0 746 0 c 2,23,-1
 438 0 l 2,24,25
 337 0 337 0 255 30 c 128,-1,26
 173 60 173 60 115.5 112 c 128,-1,27
 58 164 58 164 27 233.5 c 128,-1,28
 -4 303 -4 303 -4 381 c 2,29,-1
 -4 989 l 2,30,31
 -4 1067 -4 1067 27 1136.5 c 128,-1,32
 58 1206 58 1206 115.5 1258 c 128,-1,33
 173 1310 173 1310 255 1340 c 128,-1,34
 337 1370 337 1370 438 1370 c 2,35,-1
 746 1370 l 2,12,13
EndSplineSet
EndChar

StartChar: J
Encoding: 74 74 45
Width: 1184
GlyphClass: 2
Flags: HMW
LayerCount: 2
Fore
SplineSet
746 1370 m 2,0,1
 847 1370 847 1370 929 1340 c 128,-1,2
 1011 1310 1011 1310 1068.5 1258 c 128,-1,3
 1126 1206 1126 1206 1157 1136.5 c 128,-1,4
 1188 1067 1188 1067 1188 989 c 2,5,-1
 1188 381 l 2,6,7
 1188 303 1188 303 1157 233.5 c 128,-1,8
 1126 164 1126 164 1068.5 112 c 128,-1,9
 1011 60 1011 60 929 30 c 128,-1,10
 847 0 847 0 746 0 c 2,11,-1
 438 0 l 2,12,13
 337 0 337 0 255 30 c 128,-1,14
 173 60 173 60 115.5 112 c 128,-1,15
 58 164 58 164 27 233.5 c 128,-1,16
 -4 303 -4 303 -4 381 c 2,17,-1
 -4 989 l 2,18,19
 -4 1067 -4 1067 27 1136.5 c 128,-1,20
 58 1206 58 1206 115.5 1258 c 128,-1,21
 173 1310 173 1310 255 1340 c 128,-1,22
 337 1370 337 1370 438 1370 c 2,23,-1
 746 1370 l 2,0,1
682 1280 m 1,24,-1
 682 631 l 1,25,-1
 668 571 l 1,26,-1
 602 559 l 1,27,-1
 453 559 l 1,28,-1
 453 453 l 1,29,-1
 608 453 l 1,30,-1
 709 467 l 1,31,-1
 787 528 l 1,32,-1
 787 1280 l 1,33,-1
 682 1280 l 1,24,-1
EndSplineSet
EndChar

StartChar: K
Encoding: 75 75 46
Width: 1184
GlyphClass: 2
Flags: HMW
LayerCount: 2
Fore
SplineSet
654 885 m 1,0,-1
 998 1225 l 1,1,-1
 926 1309 l 1,2,-1
 514 901 l 1,3,-1
 514 1280 l 1,4,-1
 408 1280 l 1,5,-1
 408 453 l 1,6,-1
 514 453 l 1,7,-1
 514 766 l 1,8,9
 531 780 531 780 543.5 791.5 c 128,-1,10
 556 803 556 803 572 817 c 1,11,-1
 899 434 l 1,12,-1
 985 508 l 1,13,-1
 654 885 l 1,0,-1
746 1370 m 2,14,15
 847 1370 847 1370 929 1340 c 128,-1,16
 1011 1310 1011 1310 1068.5 1258 c 128,-1,17
 1126 1206 1126 1206 1157 1136.5 c 128,-1,18
 1188 1067 1188 1067 1188 989 c 2,19,-1
 1188 381 l 2,20,21
 1188 303 1188 303 1157 233.5 c 128,-1,22
 1126 164 1126 164 1068.5 112 c 128,-1,23
 1011 60 1011 60 929 30 c 128,-1,24
 847 0 847 0 746 0 c 2,25,-1
 438 0 l 2,26,27
 337 0 337 0 255 30 c 128,-1,28
 173 60 173 60 115.5 112 c 128,-1,29
 58 164 58 164 27 233.5 c 128,-1,30
 -4 303 -4 303 -4 381 c 2,31,-1
 -4 989 l 2,32,33
 -4 1067 -4 1067 27 1136.5 c 128,-1,34
 58 1206 58 1206 115.5 1258 c 128,-1,35
 173 1310 173 1310 255 1340 c 128,-1,36
 337 1370 337 1370 438 1370 c 2,37,-1
 746 1370 l 2,14,15
EndSplineSet
EndChar

StartChar: L
Encoding: 76 76 47
Width: 1184
GlyphClass: 2
Flags: HMW
LayerCount: 2
Fore
SplineSet
862 559 m 1,0,-1
 555 559 l 1,1,-1
 555 1280 l 1,2,-1
 449 1280 l 1,3,-1
 449 453 l 1,4,-1
 862 453 l 1,5,-1
 862 559 l 1,0,-1
746 1370 m 2,6,7
 847 1370 847 1370 929 1340 c 128,-1,8
 1011 1310 1011 1310 1068.5 1258 c 128,-1,9
 1126 1206 1126 1206 1157 1136.5 c 128,-1,10
 1188 1067 1188 1067 1188 989 c 2,11,-1
 1188 381 l 2,12,13
 1188 303 1188 303 1157 233.5 c 128,-1,14
 1126 164 1126 164 1068.5 112 c 128,-1,15
 1011 60 1011 60 929 30 c 128,-1,16
 847 0 847 0 746 0 c 2,17,-1
 438 0 l 2,18,19
 337 0 337 0 255 30 c 128,-1,20
 173 60 173 60 115.5 112 c 128,-1,21
 58 164 58 164 27 233.5 c 128,-1,22
 -4 303 -4 303 -4 381 c 2,23,-1
 -4 989 l 2,24,25
 -4 1067 -4 1067 27 1136.5 c 128,-1,26
 58 1206 58 1206 115.5 1258 c 128,-1,27
 173 1310 173 1310 255 1340 c 128,-1,28
 337 1370 337 1370 438 1370 c 2,29,-1
 746 1370 l 2,6,7
EndSplineSet
EndChar

StartChar: M
Encoding: 77 77 48
Width: 1184
GlyphClass: 2
Flags: HMW
LayerCount: 2
Fore
SplineSet
746 1370 m 2,0,1
 847 1370 847 1370 929 1340 c 128,-1,2
 1011 1310 1011 1310 1068.5 1258 c 128,-1,3
 1126 1206 1126 1206 1157 1136.5 c 128,-1,4
 1188 1067 1188 1067 1188 989 c 2,5,-1
 1188 381 l 2,6,7
 1188 303 1188 303 1157 233.5 c 128,-1,8
 1126 164 1126 164 1068.5 112 c 128,-1,9
 1011 60 1011 60 929 30 c 128,-1,10
 847 0 847 0 746 0 c 2,11,-1
 438 0 l 2,12,13
 337 0 337 0 255 30 c 128,-1,14
 173 60 173 60 115.5 112 c 128,-1,15
 58 164 58 164 27 233.5 c 128,-1,16
 -4 303 -4 303 -4 381 c 2,17,-1
 -4 989 l 2,18,19
 -4 1067 -4 1067 27 1136.5 c 128,-1,20
 58 1206 58 1206 115.5 1258 c 128,-1,21
 173 1310 173 1310 255 1340 c 128,-1,22
 337 1370 337 1370 438 1370 c 2,23,-1
 746 1370 l 2,0,1
590 1264 m 1,24,-1
 535 1280 l 1,25,-1
 404 1280 l 1,26,-1
 320 1266 l 1,27,-1
 256 1202 l 1,28,-1
 256 453 l 1,29,-1
 363 453 l 1,30,-1
 363 1165 l 1,31,32
 377 1168 377 1168 388 1169 c 128,-1,33
 399 1170 399 1170 412 1174 c 1,34,-1
 526 1174 l 1,35,36
 537 1170 537 1170 547.5 1169 c 128,-1,37
 558 1168 558 1168 569 1165 c 1,38,-1
 569 741 l 1,39,-1
 676 741 l 1,40,-1
 676 1165 l 1,41,-1
 719 1174 l 1,42,-1
 834 1174 l 1,43,44
 846 1170 846 1170 858 1169 c 128,-1,45
 870 1168 870 1168 883 1165 c 1,46,-1
 883 453 l 1,47,-1
 989 453 l 1,48,-1
 989 1202 l 1,49,-1
 926 1266 l 1,50,-1
 842 1280 l 1,51,-1
 711 1280 l 1,52,-1
 657 1264 l 1,53,-1
 623 1195 l 1,54,-1
 590 1264 l 1,24,-1
EndSplineSet
EndChar

StartChar: O
Encoding: 79 79 50
Width: 1184
GlyphClass: 2
Flags: HMW
LayerCount: 2
Fore
SplineSet
746 1370 m 2,0,1
 847 1370 847 1370 929 1340 c 128,-1,2
 1011 1310 1011 1310 1068.5 1258 c 128,-1,3
 1126 1206 1126 1206 1157 1136.5 c 128,-1,4
 1188 1067 1188 1067 1188 989 c 2,5,-1
 1188 381 l 2,6,7
 1188 303 1188 303 1157 233.5 c 128,-1,8
 1126 164 1126 164 1068.5 112 c 128,-1,9
 1011 60 1011 60 929 30 c 128,-1,10
 847 0 847 0 746 0 c 2,11,-1
 438 0 l 2,12,13
 337 0 337 0 255 30 c 128,-1,14
 173 60 173 60 115.5 112 c 128,-1,15
 58 164 58 164 27 233.5 c 128,-1,16
 -4 303 -4 303 -4 381 c 2,17,-1
 -4 989 l 2,18,19
 -4 1067 -4 1067 27 1136.5 c 128,-1,20
 58 1206 58 1206 115.5 1258 c 128,-1,21
 173 1310 173 1310 255 1340 c 128,-1,22
 337 1370 337 1370 438 1370 c 2,23,-1
 746 1370 l 2,0,1
952 1118 m 1,24,-1
 938 1202 l 1,25,-1
 875 1266 l 1,26,-1
 772 1280 l 1,27,-1
 504 1280 l 1,28,-1
 402 1266 l 1,29,-1
 338 1202 l 1,30,-1
 326 1118 l 1,31,-1
 326 614 l 1,32,-1
 338 528 l 1,33,-1
 404 465 l 1,34,-1
 504 453 l 1,35,-1
 772 453 l 1,36,-1
 875 465 l 1,37,-1
 938 528 l 1,38,-1
 952 614 l 1,39,-1
 952 1118 l 1,24,-1
832 569 m 1,40,-1
 766 559 l 1,41,-1
 510 559 l 1,42,-1
 445 569 l 1,43,-1
 430 629 l 1,44,-1
 430 1108 l 1,45,-1
 440 1163 l 1,46,-1
 510 1174 l 1,47,-1
 766 1174 l 1,48,-1
 836 1163 l 1,49,-1
 846 1104 l 1,50,-1
 846 625 l 1,51,-1
 832 569 l 1,40,-1
EndSplineSet
EndChar

StartChar: P
Encoding: 80 80 51
Width: 1184
GlyphClass: 2
Flags: HMW
LayerCount: 2
Fore
SplineSet
746 1370 m 2,0,1
 847 1370 847 1370 929 1340 c 128,-1,2
 1011 1310 1011 1310 1068.5 1258 c 128,-1,3
 1126 1206 1126 1206 1157 1136.5 c 128,-1,4
 1188 1067 1188 1067 1188 989 c 2,5,-1
 1188 381 l 2,6,7
 1188 303 1188 303 1157 233.5 c 128,-1,8
 1126 164 1126 164 1068.5 112 c 128,-1,9
 1011 60 1011 60 929 30 c 128,-1,10
 847 0 847 0 746 0 c 2,11,-1
 438 0 l 2,12,13
 337 0 337 0 255 30 c 128,-1,14
 173 60 173 60 115.5 112 c 128,-1,15
 58 164 58 164 27 233.5 c 128,-1,16
 -4 303 -4 303 -4 381 c 2,17,-1
 -4 989 l 2,18,19
 -4 1067 -4 1067 27 1136.5 c 128,-1,20
 58 1206 58 1206 115.5 1258 c 128,-1,21
 173 1310 173 1310 255 1340 c 128,-1,22
 337 1370 337 1370 438 1370 c 2,23,-1
 746 1370 l 2,0,1
930 1118 m 1,24,-1
 916 1202 l 1,25,-1
 852 1266 l 1,26,-1
 750 1280 l 1,27,-1
 377 1280 l 1,28,-1
 377 453 l 1,29,-1
 481 453 l 1,30,-1
 481 748 l 1,31,-1
 750 748 l 1,32,-1
 852 760 l 1,33,-1
 916 823 l 1,34,-1
 930 909 l 1,35,-1
 930 1118 l 1,24,-1
809 864 m 1,36,-1
 744 854 l 1,37,-1
 481 854 l 1,38,-1
 481 1174 l 1,39,-1
 744 1174 l 1,40,-1
 813 1163 l 1,41,-1
 823 1104 l 1,42,-1
 823 920 l 1,43,-1
 809 864 l 1,36,-1
EndSplineSet
EndChar

StartChar: Q
Encoding: 81 81 52
Width: 1184
GlyphClass: 2
Flags: HMW
LayerCount: 2
Fore
SplineSet
746 1370 m 2,0,1
 847 1370 847 1370 929 1340 c 128,-1,2
 1011 1310 1011 1310 1068.5 1258 c 128,-1,3
 1126 1206 1126 1206 1157 1136.5 c 128,-1,4
 1188 1067 1188 1067 1188 989 c 2,5,-1
 1188 381 l 2,6,7
 1188 303 1188 303 1157 233.5 c 128,-1,8
 1126 164 1126 164 1068.5 112 c 128,-1,9
 1011 60 1011 60 929 30 c 128,-1,10
 847 0 847 0 746 0 c 2,11,-1
 438 0 l 2,12,13
 337 0 337 0 255 30 c 128,-1,14
 173 60 173 60 115.5 112 c 128,-1,15
 58 164 58 164 27 233.5 c 128,-1,16
 -4 303 -4 303 -4 381 c 2,17,-1
 -4 989 l 2,18,19
 -4 1067 -4 1067 27 1136.5 c 128,-1,20
 58 1206 58 1206 115.5 1258 c 128,-1,21
 173 1310 173 1310 255 1340 c 128,-1,22
 337 1370 337 1370 438 1370 c 2,23,-1
 746 1370 l 2,0,1
954 1118 m 1,24,-1
 940 1202 l 1,25,-1
 877 1266 l 1,26,-1
 774 1280 l 1,27,-1
 506 1280 l 1,28,-1
 404 1266 l 1,29,-1
 340 1202 l 1,30,-1
 328 1118 l 1,31,-1
 328 614 l 1,32,-1
 340 528 l 1,33,-1
 406 465 l 1,34,-1
 506 453 l 1,35,-1
 684 453 l 1,36,-1
 762 299 l 1,37,-1
 856 344 l 1,38,-1
 801 457 l 1,39,-1
 877 465 l 1,40,-1
 940 528 l 1,41,-1
 954 614 l 1,42,-1
 954 1118 l 1,24,-1
834 569 m 1,43,-1
 768 559 l 1,44,-1
 748 559 l 1,45,-1
 688 676 l 1,46,-1
 596 625 l 1,47,-1
 627 559 l 1,48,-1
 512 559 l 1,49,-1
 447 569 l 1,50,-1
 432 629 l 1,51,-1
 432 1108 l 1,52,-1
 442 1163 l 1,53,-1
 512 1174 l 1,54,-1
 768 1174 l 1,55,-1
 838 1163 l 1,56,-1
 848 1104 l 1,57,-1
 848 625 l 1,58,-1
 834 569 l 1,43,-1
EndSplineSet
EndChar

StartChar: R
Encoding: 82 82 53
Width: 1184
GlyphClass: 2
Flags: HMW
LayerCount: 2
Fore
SplineSet
746 1370 m 2,0,1
 847 1370 847 1370 929 1340 c 128,-1,2
 1011 1310 1011 1310 1068.5 1258 c 128,-1,3
 1126 1206 1126 1206 1157 1136.5 c 128,-1,4
 1188 1067 1188 1067 1188 989 c 2,5,-1
 1188 381 l 2,6,7
 1188 303 1188 303 1157 233.5 c 128,-1,8
 1126 164 1126 164 1068.5 112 c 128,-1,9
 1011 60 1011 60 929 30 c 128,-1,10
 847 0 847 0 746 0 c 2,11,-1
 438 0 l 2,12,13
 337 0 337 0 255 30 c 128,-1,14
 173 60 173 60 115.5 112 c 128,-1,15
 58 164 58 164 27 233.5 c 128,-1,16
 -4 303 -4 303 -4 381 c 2,17,-1
 -4 989 l 2,18,19
 -4 1067 -4 1067 27 1136.5 c 128,-1,20
 58 1206 58 1206 115.5 1258 c 128,-1,21
 173 1310 173 1310 255 1340 c 128,-1,22
 337 1370 337 1370 438 1370 c 2,23,-1
 746 1370 l 2,0,1
797 700 m 1,24,-1
 797 453 l 1,25,-1
 903 453 l 1,26,-1
 903 711 l 1,27,-1
 868 803 l 1,28,-1
 754 844 l 1,29,-1
 864 897 l 1,30,-1
 895 987 l 1,31,-1
 895 1098 l 1,32,-1
 883 1182 l 1,33,-1
 817 1266 l 1,34,-1
 717 1280 l 1,35,-1
 344 1280 l 1,36,-1
 344 453 l 1,37,-1
 451 453 l 1,38,-1
 451 786 l 1,39,-1
 711 786 l 1,40,-1
 782 754 l 1,41,-1
 797 700 l 1,24,-1
711 1174 m 1,42,-1
 782 1143 l 1,43,-1
 789 1085 l 1,44,-1
 789 979 l 1,45,-1
 774 924 l 1,46,-1
 711 893 l 1,47,-1
 451 893 l 1,48,-1
 451 1174 l 1,49,-1
 711 1174 l 1,42,-1
EndSplineSet
EndChar

StartChar: S
Encoding: 83 83 54
Width: 1184
GlyphClass: 2
Flags: HMW
LayerCount: 2
Fore
SplineSet
746 1370 m 2,0,1
 847 1370 847 1370 929 1340 c 128,-1,2
 1011 1310 1011 1310 1068.5 1258 c 128,-1,3
 1126 1206 1126 1206 1157 1136.5 c 128,-1,4
 1188 1067 1188 1067 1188 989 c 2,5,-1
 1188 381 l 2,6,7
 1188 303 1188 303 1157 233.5 c 128,-1,8
 1126 164 1126 164 1068.5 112 c 128,-1,9
 1011 60 1011 60 929 30 c 128,-1,10
 847 0 847 0 746 0 c 2,11,-1
 438 0 l 2,12,13
 337 0 337 0 255 30 c 128,-1,14
 173 60 173 60 115.5 112 c 128,-1,15
 58 164 58 164 27 233.5 c 128,-1,16
 -4 303 -4 303 -4 381 c 2,17,-1
 -4 989 l 2,18,19
 -4 1067 -4 1067 27 1136.5 c 128,-1,20
 58 1206 58 1206 115.5 1258 c 128,-1,21
 173 1310 173 1310 255 1340 c 128,-1,22
 337 1370 337 1370 438 1370 c 2,23,-1
 746 1370 l 2,0,1
934 766 m 1,24,-1
 920 852 l 1,25,-1
 856 915 l 1,26,-1
 752 926 l 1,27,-1
 528 926 l 1,28,-1
 467 938 l 1,29,30
 462 955 462 955 460 968.5 c 128,-1,31
 458 982 458 982 453 997 c 1,32,-1
 453 1102 l 1,33,-1
 467 1161 l 1,34,-1
 533 1174 l 1,35,-1
 787 1174 l 1,36,-1
 881 1155 l 1,37,-1
 905 1264 l 1,38,-1
 789 1280 l 1,39,-1
 526 1280 l 1,40,-1
 426 1266 l 1,41,-1
 361 1202 l 1,42,-1
 348 1118 l 1,43,-1
 348 981 l 1,44,-1
 361 897 l 1,45,-1
 426 834 l 1,46,-1
 526 821 l 1,47,-1
 752 821 l 1,48,-1
 813 811 l 1,49,50
 816 796 816 796 820 783 c 128,-1,51
 824 770 824 770 827 756 c 1,52,-1
 827 625 l 1,53,54
 825 612 825 612 820.5 597 c 128,-1,55
 816 582 816 582 813 569 c 1,56,-1
 748 559 l 1,57,-1
 500 559 l 1,58,-1
 402 575 l 1,59,-1
 377 467 l 1,60,-1
 494 453 l 1,61,-1
 754 453 l 1,62,-1
 856 465 l 1,63,-1
 920 528 l 1,64,-1
 934 614 l 1,65,-1
 934 766 l 1,24,-1
EndSplineSet
EndChar

StartChar: T
Encoding: 84 84 55
Width: 1184
GlyphClass: 2
Flags: HMW
LayerCount: 2
Fore
SplineSet
936 1280 m 1,0,-1
 358 1280 l 1,1,-1
 358 1174 l 1,2,-1
 594 1174 l 1,3,-1
 594 453 l 1,4,-1
 701 453 l 1,5,-1
 701 1174 l 1,6,-1
 936 1174 l 1,7,-1
 936 1280 l 1,0,-1
746 1370 m 2,8,9
 847 1370 847 1370 929 1340 c 128,-1,10
 1011 1310 1011 1310 1068.5 1258 c 128,-1,11
 1126 1206 1126 1206 1157 1136.5 c 128,-1,12
 1188 1067 1188 1067 1188 989 c 2,13,-1
 1188 381 l 2,14,15
 1188 303 1188 303 1157 233.5 c 128,-1,16
 1126 164 1126 164 1068.5 112 c 128,-1,17
 1011 60 1011 60 929 30 c 128,-1,18
 847 0 847 0 746 0 c 2,19,-1
 438 0 l 2,20,21
 337 0 337 0 255 30 c 128,-1,22
 173 60 173 60 115.5 112 c 128,-1,23
 58 164 58 164 27 233.5 c 128,-1,24
 -4 303 -4 303 -4 381 c 2,25,-1
 -4 989 l 2,26,27
 -4 1067 -4 1067 27 1136.5 c 128,-1,28
 58 1206 58 1206 115.5 1258 c 128,-1,29
 173 1310 173 1310 255 1340 c 128,-1,30
 337 1370 337 1370 438 1370 c 2,31,-1
 746 1370 l 2,8,9
EndSplineSet
EndChar

StartChar: U
Encoding: 85 85 56
Width: 1184
GlyphClass: 2
Flags: HMW
LayerCount: 2
Fore
SplineSet
746 1370 m 2,0,1
 847 1370 847 1370 929 1340 c 128,-1,2
 1011 1310 1011 1310 1068.5 1258 c 128,-1,3
 1126 1206 1126 1206 1157 1136.5 c 128,-1,4
 1188 1067 1188 1067 1188 989 c 2,5,-1
 1188 381 l 2,6,7
 1188 303 1188 303 1157 233.5 c 128,-1,8
 1126 164 1126 164 1068.5 112 c 128,-1,9
 1011 60 1011 60 929 30 c 128,-1,10
 847 0 847 0 746 0 c 2,11,-1
 438 0 l 2,12,13
 337 0 337 0 255 30 c 128,-1,14
 173 60 173 60 115.5 112 c 128,-1,15
 58 164 58 164 27 233.5 c 128,-1,16
 -4 303 -4 303 -4 381 c 2,17,-1
 -4 989 l 2,18,19
 -4 1067 -4 1067 27 1136.5 c 128,-1,20
 58 1206 58 1206 115.5 1258 c 128,-1,21
 173 1310 173 1310 255 1340 c 128,-1,22
 337 1370 337 1370 438 1370 c 2,23,-1
 746 1370 l 2,0,1
946 1280 m 1,24,-1
 840 1280 l 1,25,-1
 840 625 l 1,26,27
 838 612 838 612 833.5 597 c 128,-1,28
 829 582 829 582 825 569 c 1,29,-1
 760 559 l 1,30,-1
 504 559 l 1,31,-1
 438 569 l 1,32,-1
 424 629 l 1,33,-1
 424 1280 l 1,34,-1
 320 1280 l 1,35,-1
 320 614 l 1,36,-1
 332 528 l 1,37,-1
 397 465 l 1,38,-1
 498 453 l 1,39,-1
 766 453 l 1,40,-1
 868 465 l 1,41,-1
 932 528 l 1,42,-1
 946 614 l 1,43,-1
 946 1280 l 1,24,-1
EndSplineSet
EndChar

StartChar: V
Encoding: 86 86 57
Width: 1184
GlyphClass: 2
Flags: HMW
LayerCount: 2
Fore
SplineSet
629 446 m 1,0,-1
 696 465 l 1,1,-1
 756 524 l 1,2,-1
 952 1260 l 1,3,-1
 836 1280 l 1,4,-1
 655 565 l 1,5,-1
 633 557 l 1,6,-1
 606 563 l 1,7,-1
 426 1280 l 1,8,-1
 309 1260 l 1,9,-1
 506 524 l 1,10,-1
 565 465 l 1,11,-1
 629 446 l 1,0,-1
746 1370 m 2,12,13
 847 1370 847 1370 929 1340 c 128,-1,14
 1011 1310 1011 1310 1068.5 1258 c 128,-1,15
 1126 1206 1126 1206 1157 1136.5 c 128,-1,16
 1188 1067 1188 1067 1188 989 c 2,17,-1
 1188 381 l 2,18,19
 1188 303 1188 303 1157 233.5 c 128,-1,20
 1126 164 1126 164 1068.5 112 c 128,-1,21
 1011 60 1011 60 929 30 c 128,-1,22
 847 0 847 0 746 0 c 2,23,-1
 438 0 l 2,24,25
 337 0 337 0 255 30 c 128,-1,26
 173 60 173 60 115.5 112 c 128,-1,27
 58 164 58 164 27 233.5 c 128,-1,28
 -4 303 -4 303 -4 381 c 2,29,-1
 -4 989 l 2,30,31
 -4 1067 -4 1067 27 1136.5 c 128,-1,32
 58 1206 58 1206 115.5 1258 c 128,-1,33
 173 1310 173 1310 255 1340 c 128,-1,34
 337 1370 337 1370 438 1370 c 2,35,-1
 746 1370 l 2,12,13
EndSplineSet
EndChar

StartChar: W
Encoding: 87 87 58
Width: 1184
GlyphClass: 2
Flags: HMW
LayerCount: 2
Fore
SplineSet
668 1247 m 1,0,-1
 569 1247 l 1,1,-1
 451 565 l 1,2,-1
 428 557 l 1,3,-1
 402 563 l 1,4,-1
 334 1280 l 1,5,-1
 219 1260 l 1,6,-1
 299 526 l 1,7,-1
 361 465 l 1,8,-1
 426 449 l 1,9,-1
 492 465 l 1,10,-1
 553 526 l 1,11,-1
 619 967 l 1,12,-1
 684 526 l 1,13,-1
 746 465 l 1,14,-1
 811 449 l 1,15,-1
 877 465 l 1,16,-1
 938 526 l 1,17,-1
 1018 1260 l 1,18,-1
 903 1280 l 1,19,-1
 836 563 l 1,20,-1
 809 557 l 1,21,-1
 787 565 l 1,22,-1
 668 1247 l 1,0,-1
438 0 m 2,23,24
 337 0 337 0 255 30 c 128,-1,25
 173 60 173 60 115.5 112 c 128,-1,26
 58 164 58 164 27 233.5 c 128,-1,27
 -4 303 -4 303 -4 381 c 2,28,-1
 -4 989 l 2,29,30
 -4 1067 -4 1067 27 1136.5 c 128,-1,31
 58 1206 58 1206 115.5 1258 c 128,-1,32
 173 1310 173 1310 255 1340 c 128,-1,33
 337 1370 337 1370 438 1370 c 2,34,-1
 746 1370 l 2,35,36
 847 1370 847 1370 929 1340 c 128,-1,37
 1011 1310 1011 1310 1068.5 1258 c 128,-1,38
 1126 1206 1126 1206 1157 1136.5 c 128,-1,39
 1188 1067 1188 1067 1188 989 c 2,40,-1
 1188 381 l 2,41,42
 1188 303 1188 303 1157 233.5 c 128,-1,43
 1126 164 1126 164 1068.5 112 c 128,-1,44
 1011 60 1011 60 929 30 c 128,-1,45
 847 0 847 0 746 0 c 2,46,-1
 438 0 l 2,23,24
EndSplineSet
EndChar

StartChar: X
Encoding: 88 88 59
Width: 1184
GlyphClass: 2
Flags: HMW
LayerCount: 2
Fore
SplineSet
746 1370 m 2,0,1
 847 1370 847 1370 929 1340 c 128,-1,2
 1011 1310 1011 1310 1068.5 1258 c 128,-1,3
 1126 1206 1126 1206 1157 1136.5 c 128,-1,4
 1188 1067 1188 1067 1188 989 c 2,5,-1
 1188 381 l 2,6,7
 1188 303 1188 303 1157 233.5 c 128,-1,8
 1126 164 1126 164 1068.5 112 c 128,-1,9
 1011 60 1011 60 929 30 c 128,-1,10
 847 0 847 0 746 0 c 2,11,-1
 438 0 l 2,12,13
 337 0 337 0 255 30 c 128,-1,14
 173 60 173 60 115.5 112 c 128,-1,15
 58 164 58 164 27 233.5 c 128,-1,16
 -4 303 -4 303 -4 381 c 2,17,-1
 -4 989 l 2,18,19
 -4 1067 -4 1067 27 1136.5 c 128,-1,20
 58 1206 58 1206 115.5 1258 c 128,-1,21
 173 1310 173 1310 255 1340 c 128,-1,22
 337 1370 337 1370 438 1370 c 2,23,-1
 746 1370 l 2,0,1
868 1282 m 1,24,-1
 641 922 l 1,25,-1
 420 1282 l 1,26,-1
 324 1241 l 1,27,-1
 557 864 l 1,28,-1
 326 489 l 1,29,-1
 420 451 l 1,30,-1
 641 799 l 1,31,-1
 868 451 l 1,32,-1
 963 489 l 1,33,-1
 731 864 l 1,34,-1
 967 1245 l 1,35,-1
 868 1282 l 1,24,-1
EndSplineSet
EndChar

StartChar: Y
Encoding: 89 89 60
Width: 1184
GlyphClass: 2
Flags: HMW
LayerCount: 2
Fore
SplineSet
459 1280 m 1,0,-1
 334 1280 l 1,1,-1
 584 686 l 1,2,-1
 584 453 l 1,3,-1
 690 453 l 1,4,-1
 690 684 l 1,5,-1
 944 1280 l 1,6,-1
 819 1280 l 1,7,-1
 637 831 l 1,8,-1
 459 1280 l 1,0,-1
746 1370 m 2,9,10
 847 1370 847 1370 929 1340 c 128,-1,11
 1011 1310 1011 1310 1068.5 1258 c 128,-1,12
 1126 1206 1126 1206 1157 1136.5 c 128,-1,13
 1188 1067 1188 1067 1188 989 c 2,14,-1
 1188 381 l 2,15,16
 1188 303 1188 303 1157 233.5 c 128,-1,17
 1126 164 1126 164 1068.5 112 c 128,-1,18
 1011 60 1011 60 929 30 c 128,-1,19
 847 0 847 0 746 0 c 2,20,-1
 438 0 l 2,21,22
 337 0 337 0 255 30 c 128,-1,23
 173 60 173 60 115.5 112 c 128,-1,24
 58 164 58 164 27 233.5 c 128,-1,25
 -4 303 -4 303 -4 381 c 2,26,-1
 -4 989 l 2,27,28
 -4 1067 -4 1067 27 1136.5 c 128,-1,29
 58 1206 58 1206 115.5 1258 c 128,-1,30
 173 1310 173 1310 255 1340 c 128,-1,31
 337 1370 337 1370 438 1370 c 2,32,-1
 746 1370 l 2,9,10
EndSplineSet
EndChar

StartChar: Z
Encoding: 90 90 61
Width: 1184
GlyphClass: 2
Flags: HMW
LayerCount: 2
Fore
SplineSet
885 557 m 1,0,-1
 508 557 l 1,1,-1
 862 1192 l 1,2,-1
 821 1280 l 1,3,-1
 393 1280 l 1,4,-1
 393 1174 l 1,5,-1
 731 1174 l 1,6,-1
 377 539 l 1,7,-1
 410 453 l 1,8,-1
 885 453 l 1,9,-1
 885 557 l 1,0,-1
746 1370 m 2,10,11
 847 1370 847 1370 929 1340 c 128,-1,12
 1011 1310 1011 1310 1068.5 1258 c 128,-1,13
 1126 1206 1126 1206 1157 1136.5 c 128,-1,14
 1188 1067 1188 1067 1188 989 c 2,15,-1
 1188 381 l 2,16,17
 1188 303 1188 303 1157 233.5 c 128,-1,18
 1126 164 1126 164 1068.5 112 c 128,-1,19
 1011 60 1011 60 929 30 c 128,-1,20
 847 0 847 0 746 0 c 2,21,-1
 438 0 l 2,22,23
 337 0 337 0 255 30 c 128,-1,24
 173 60 173 60 115.5 112 c 128,-1,25
 58 164 58 164 27 233.5 c 128,-1,26
 -4 303 -4 303 -4 381 c 2,27,-1
 -4 989 l 2,28,29
 -4 1067 -4 1067 27 1136.5 c 128,-1,30
 58 1206 58 1206 115.5 1258 c 128,-1,31
 173 1310 173 1310 255 1340 c 128,-1,32
 337 1370 337 1370 438 1370 c 2,33,-1
 746 1370 l 2,10,11
EndSplineSet
EndChar

StartChar: bracketleft
Encoding: 91 91 62
Width: 993
GlyphClass: 2
Flags: HMW
LayerCount: 2
Fore
SplineSet
591 459 m 1,0,-1
 526 459 l 1,1,-1
 526 1200 l 1,2,-1
 591 1200 l 1,3,-1
 591 1305 l 1,4,-1
 419 1305 l 1,5,-1
 419 354 l 1,6,-1
 591 354 l 1,7,-1
 591 459 l 1,0,-1
555 1370 m 2,8,9
 656 1370 656 1370 738 1340 c 128,-1,10
 820 1310 820 1310 877.5 1258 c 128,-1,11
 935 1206 935 1206 966 1136.5 c 128,-1,12
 997 1067 997 1067 997 989 c 2,13,-1
 997 381 l 2,14,15
 997 303 997 303 966 233.5 c 128,-1,16
 935 164 935 164 877.5 112 c 128,-1,17
 820 60 820 60 738 30 c 128,-1,18
 656 0 656 0 555 0 c 2,19,-1
 438 0 l 2,20,21
 337 0 337 0 255 30 c 128,-1,22
 173 60 173 60 115.5 112 c 128,-1,23
 58 164 58 164 27 233.5 c 128,-1,24
 -4 303 -4 303 -4 381 c 2,25,-1
 -4 989 l 2,26,27
 -4 1067 -4 1067 27 1136.5 c 128,-1,28
 58 1206 58 1206 115.5 1258 c 128,-1,29
 173 1310 173 1310 255 1340 c 128,-1,30
 337 1370 337 1370 438 1370 c 2,31,-1
 555 1370 l 2,8,9
EndSplineSet
EndChar

StartChar: backslash
Encoding: 92 92 63
Width: 1057
GlyphClass: 2
Flags: HMW
LayerCount: 2
Fore
SplineSet
424 1280 m 1,0,-1
 561 453 l 1,1,-1
 670 453 l 1,2,-1
 533 1280 l 1,3,-1
 424 1280 l 1,0,-1
619 1370 m 2,4,5
 720 1370 720 1370 802 1340 c 128,-1,6
 884 1310 884 1310 941.5 1258 c 128,-1,7
 999 1206 999 1206 1030 1136.5 c 128,-1,8
 1061 1067 1061 1067 1061 989 c 2,9,-1
 1061 381 l 2,10,11
 1061 303 1061 303 1030 233.5 c 128,-1,12
 999 164 999 164 941.5 112 c 128,-1,13
 884 60 884 60 802 30 c 128,-1,14
 720 0 720 0 619 0 c 2,15,-1
 438 0 l 2,16,17
 337 0 337 0 255 30 c 128,-1,18
 173 60 173 60 115.5 112 c 128,-1,19
 58 164 58 164 27 233.5 c 128,-1,20
 -4 303 -4 303 -4 381 c 2,21,-1
 -4 989 l 2,22,23
 -4 1067 -4 1067 27 1136.5 c 128,-1,24
 58 1206 58 1206 115.5 1258 c 128,-1,25
 173 1310 173 1310 255 1340 c 128,-1,26
 337 1370 337 1370 438 1370 c 2,27,-1
 619 1370 l 2,4,5
EndSplineSet
EndChar

StartChar: bracketright
Encoding: 93 93 64
Width: 993
GlyphClass: 2
Flags: HMW
LayerCount: 2
Fore
SplineSet
402 354 m 1,0,-1
 574 354 l 1,1,-1
 574 1305 l 1,2,-1
 402 1305 l 1,3,-1
 402 1200 l 1,4,-1
 467 1200 l 1,5,-1
 467 459 l 1,6,-1
 402 459 l 1,7,-1
 402 354 l 1,0,-1
555 1370 m 2,8,9
 656 1370 656 1370 738 1340 c 128,-1,10
 820 1310 820 1310 877.5 1258 c 128,-1,11
 935 1206 935 1206 966 1136.5 c 128,-1,12
 997 1067 997 1067 997 989 c 2,13,-1
 997 381 l 2,14,15
 997 303 997 303 966 233.5 c 128,-1,16
 935 164 935 164 877.5 112 c 128,-1,17
 820 60 820 60 738 30 c 128,-1,18
 656 0 656 0 555 0 c 2,19,-1
 438 0 l 2,20,21
 337 0 337 0 255 30 c 128,-1,22
 173 60 173 60 115.5 112 c 128,-1,23
 58 164 58 164 27 233.5 c 128,-1,24
 -4 303 -4 303 -4 381 c 2,25,-1
 -4 989 l 2,26,27
 -4 1067 -4 1067 27 1136.5 c 128,-1,28
 58 1206 58 1206 115.5 1258 c 128,-1,29
 173 1310 173 1310 255 1340 c 128,-1,30
 337 1370 337 1370 438 1370 c 2,31,-1
 555 1370 l 2,8,9
EndSplineSet
EndChar

StartChar: asciicircum
Encoding: 94 94 65
Width: 729
GlyphClass: 2
Flags: HMW
LayerCount: 2
Fore
SplineSet
483 487 m 1,0,1
 443 498 443 498 416.5 510.5 c 128,-1,2
 390 523 390 523 367 545 c 1,3,4
 339 516 339 516 304.5 504 c 128,-1,5
 270 492 270 492 213 487 c 1,6,-1
 172 487 l 1,7,8
 -4 534 -4 534 -4 674 c 0,9,10
 -4 714 -4 714 13 768.5 c 128,-1,11
 30 823 30 823 54.5 883 c 128,-1,12
 79 943 79 943 106.5 1003.5 c 128,-1,13
 134 1064 134 1064 156 1116 c 1,14,15
 174 1139 174 1139 190 1155 c 128,-1,16
 206 1171 206 1171 223.5 1182 c 128,-1,17
 241 1193 241 1193 262 1201.5 c 128,-1,18
 283 1210 283 1210 311 1218 c 1,19,-1
 385 1218 l 1,20,21
 427 1214 427 1214 456.5 1206.5 c 128,-1,22
 486 1199 486 1199 508.5 1184.5 c 128,-1,23
 531 1170 531 1170 549.5 1146 c 128,-1,24
 568 1122 568 1122 588 1085 c 1,25,26
 622 1000 622 1000 657 916 c 128,-1,27
 692 832 692 832 727 747 c 1,28,29
 733 712 733 712 733 684 c 0,30,31
 733 505 733 505 524 487 c 1,32,-1
 483 487 l 1,0,1
365 950 m 1,33,-1
 500 684 l 1,34,-1
 541 684 l 1,35,-1
 402 1022 l 1,36,-1
 328 1022 l 1,37,-1
 189 684 l 1,38,-1
 229 684 l 1,39,-1
 365 950 l 1,33,-1
EndSplineSet
EndChar

StartChar: underscore
Encoding: 95 95 66
Width: 877
GlyphClass: 2
Flags: HMW
LayerCount: 2
Fore
SplineSet
209 453 m 1,0,-1
 209 344 l 1,1,-1
 668 344 l 1,2,-1
 668 453 l 1,3,-1
 209 453 l 1,0,-1
438 1370 m 0,4,5
 540 1370 540 1370 621.5 1340 c 128,-1,6
 703 1310 703 1310 761 1258 c 128,-1,7
 819 1206 819 1206 850 1136.5 c 128,-1,8
 881 1067 881 1067 881 989 c 2,9,-1
 881 381 l 2,10,11
 881 303 881 303 850 233.5 c 128,-1,12
 819 164 819 164 761 112 c 128,-1,13
 703 60 703 60 621.5 30 c 128,-1,14
 540 0 540 0 438 0 c 0,15,16
 337 0 337 0 255 30 c 128,-1,17
 173 60 173 60 115.5 112 c 128,-1,18
 58 164 58 164 27 233.5 c 128,-1,19
 -4 303 -4 303 -4 381 c 2,20,-1
 -4 989 l 2,21,22
 -4 1067 -4 1067 27 1136.5 c 128,-1,23
 58 1206 58 1206 115.5 1258 c 128,-1,24
 173 1310 173 1310 255 1340 c 128,-1,25
 337 1370 337 1370 438 1370 c 0,4,5
EndSplineSet
EndChar

StartChar: grave
Encoding: 96 96 67
Width: 631
GlyphClass: 2
Flags: HMW
LayerCount: 2
Fore
SplineSet
240 23 m 1,0,1
 229 34 229 34 219 49 c 128,-1,2
 209 64 209 64 197 84 c 2,3,-1
 39 354 l 2,4,5
 16 392 16 392 6 425.5 c 128,-1,6
 -4 459 -4 459 -4 487 c 0,7,8
 -4 536 -4 536 21 573.5 c 128,-1,9
 46 611 46 611 87 636.5 c 128,-1,10
 128 662 128 662 181.5 675 c 128,-1,11
 235 688 235 688 291 688 c 0,12,13
 333 688 333 688 371.5 682 c 128,-1,14
 410 676 410 676 441.5 663 c 128,-1,15
 473 650 473 650 496 628 c 128,-1,16
 519 606 519 606 531 575 c 1,17,18
 565 468 565 468 585.5 399 c 128,-1,19
 606 330 606 330 617 287.5 c 128,-1,20
 628 245 628 245 631.5 224 c 128,-1,21
 635 203 635 203 635 193 c 0,22,23
 635 163 635 163 625 136.5 c 128,-1,24
 615 110 615 110 598 88 c 128,-1,25
 581 66 581 66 559 49.5 c 128,-1,26
 537 33 537 33 514 23 c 1,27,-1
 240 23 l 1,0,1
367 180 m 1,28,-1
 436 180 l 1,29,-1
 336 514 l 1,30,-1
 215 514 l 1,31,-1
 367 180 l 1,28,-1
EndSplineSet
EndChar

StartChar: a
Encoding: 97 97 68
Width: 1184
GlyphClass: 2
Flags: HMW
LayerCount: 2
Fore
SplineSet
869 454 m 1,0,-1
 869 682 l 1,1,-1
 869 1120 l 1,2,-1
 869 1204 l 1,3,-1
 801 1268 l 1,4,-1
 701 1280 l 1,5,-1
 473 1280 l 1,6,-1
 356 1266 l 1,7,-1
 381 1157 l 1,8,-1
 475 1176 l 1,9,-1
 698 1176 l 1,10,-1
 758 1163 l 1,11,-1
 772 1110 l 1,12,-1
 772 877 l 1,13,-1
 701 889 l 1,14,-1
 473 889 l 1,15,-1
 373 874 l 1,16,-1
 309 811 l 1,17,-1
 295 729 l 1,18,-1
 295 612 l 1,19,-1
 309 528 l 1,20,-1
 373 465 l 1,21,-1
 473 453 l 1,22,-1
 692 453 l 1,23,-1
 770 465 l 1,24,-1
 869 454 l 1,0,-1
772 569 m 1,25,-1
 694 559 l 1,26,-1
 479 559 l 1,27,-1
 416 569 l 1,28,-1
 402 629 l 1,29,-1
 402 715 l 1,30,-1
 410 772 l 1,31,-1
 479 782 l 1,32,-1
 696 782 l 1,33,-1
 772 774 l 1,34,-1
 772 623 l 1,35,-1
 772 569 l 1,25,-1
746 1370 m 2,36,37
 847 1370 847 1370 929 1340 c 128,-1,38
 1011 1310 1011 1310 1068.5 1258 c 128,-1,39
 1126 1206 1126 1206 1157 1136.5 c 128,-1,40
 1188 1067 1188 1067 1188 989 c 2,41,-1
 1188 381 l 2,42,43
 1188 303 1188 303 1157 233.5 c 128,-1,44
 1126 164 1126 164 1068.5 112 c 128,-1,45
 1011 60 1011 60 929 30 c 128,-1,46
 847 0 847 0 746 0 c 2,47,-1
 438 0 l 2,48,49
 337 0 337 0 255 30 c 128,-1,50
 173 60 173 60 115.5 112 c 128,-1,51
 58 164 58 164 27 233.5 c 128,-1,52
 -4 303 -4 303 -4 381 c 2,53,-1
 -4 989 l 2,54,55
 -4 1067 -4 1067 27 1136.5 c 128,-1,56
 58 1206 58 1206 115.5 1258 c 128,-1,57
 173 1310 173 1310 255 1340 c 128,-1,58
 337 1370 337 1370 438 1370 c 2,59,-1
 746 1370 l 2,36,37
EndSplineSet
EndChar

StartChar: c
Encoding: 99 99 70
Width: 1184
GlyphClass: 2
Flags: HMW
LayerCount: 2
Fore
SplineSet
733 1280 m 1,0,-1
 492 1280 l 1,1,-1
 389 1268 l 1,2,-1
 326 1204 l 1,3,-1
 311 1120 l 1,4,-1
 311 612 l 1,5,-1
 326 528 l 1,6,-1
 391 465 l 1,7,-1
 492 453 l 1,8,-1
 733 453 l 1,9,-1
 850 467 l 1,10,-1
 825 575 l 1,11,-1
 731 559 l 1,12,-1
 498 559 l 1,13,-1
 432 569 l 1,14,-1
 418 629 l 1,15,-1
 418 1110 l 1,16,-1
 428 1165 l 1,17,-1
 498 1176 l 1,18,-1
 727 1176 l 1,19,-1
 830 1159 l 1,20,-1
 850 1266 l 1,21,-1
 733 1280 l 1,0,-1
746 1370 m 2,22,23
 847 1370 847 1370 929 1340 c 128,-1,24
 1011 1310 1011 1310 1068.5 1258 c 128,-1,25
 1126 1206 1126 1206 1157 1136.5 c 128,-1,26
 1188 1067 1188 1067 1188 989 c 2,27,-1
 1188 381 l 2,28,29
 1188 303 1188 303 1157 233.5 c 128,-1,30
 1126 164 1126 164 1068.5 112 c 128,-1,31
 1011 60 1011 60 929 30 c 128,-1,32
 847 0 847 0 746 0 c 2,33,-1
 438 0 l 2,34,35
 337 0 337 0 255 30 c 128,-1,36
 173 60 173 60 115.5 112 c 128,-1,37
 58 164 58 164 27 233.5 c 128,-1,38
 -4 303 -4 303 -4 381 c 2,39,-1
 -4 989 l 2,40,41
 -4 1067 -4 1067 27 1136.5 c 128,-1,42
 58 1206 58 1206 115.5 1258 c 128,-1,43
 173 1310 173 1310 255 1340 c 128,-1,44
 337 1370 337 1370 438 1370 c 2,45,-1
 746 1370 l 2,22,23
EndSplineSet
EndChar

StartChar: e
Encoding: 101 101 72
Width: 1184
GlyphClass: 2
Flags: HMW
LayerCount: 2
Fore
SplineSet
746 1370 m 2,0,1
 847 1370 847 1370 929 1340 c 128,-1,2
 1011 1310 1011 1310 1068.5 1258 c 128,-1,3
 1126 1206 1126 1206 1157 1136.5 c 128,-1,4
 1188 1067 1188 1067 1188 989 c 2,5,-1
 1188 381 l 2,6,7
 1188 303 1188 303 1157 233.5 c 128,-1,8
 1126 164 1126 164 1068.5 112 c 128,-1,9
 1011 60 1011 60 929 30 c 128,-1,10
 847 0 847 0 746 0 c 2,11,-1
 438 0 l 2,12,13
 337 0 337 0 255 30 c 128,-1,14
 173 60 173 60 115.5 112 c 128,-1,15
 58 164 58 164 27 233.5 c 128,-1,16
 -4 303 -4 303 -4 381 c 2,17,-1
 -4 989 l 2,18,19
 -4 1067 -4 1067 27 1136.5 c 128,-1,20
 58 1206 58 1206 115.5 1258 c 128,-1,21
 173 1310 173 1310 255 1340 c 128,-1,22
 337 1370 337 1370 438 1370 c 2,23,-1
 746 1370 l 2,0,1
877 1120 m 1,24,-1
 862 1204 l 1,25,-1
 799 1268 l 1,26,-1
 698 1280 l 1,27,-1
 481 1280 l 1,28,-1
 381 1268 l 1,29,-1
 318 1204 l 1,30,-1
 303 1120 l 1,31,-1
 303 645 l 1,32,-1
 318 561 l 1,33,-1
 381 498 l 1,34,-1
 481 485 l 1,35,-1
 733 485 l 1,36,-1
 850 500 l 1,37,-1
 825 608 l 1,38,-1
 731 592 l 1,39,-1
 488 592 l 1,40,-1
 424 602 l 1,41,-1
 410 662 l 1,42,-1
 410 868 l 1,43,-1
 877 868 l 1,44,-1
 877 1120 l 1,24,-1
410 973 m 1,45,-1
 410 1108 l 1,46,-1
 418 1165 l 1,47,-1
 488 1176 l 1,48,-1
 692 1176 l 1,49,-1
 760 1165 l 1,50,-1
 770 1106 l 1,51,-1
 770 973 l 1,52,-1
 410 973 l 1,45,-1
EndSplineSet
EndChar

StartChar: n
Encoding: 110 110 81
Width: 1184
GlyphClass: 2
Flags: HMW
LayerCount: 2
Fore
SplineSet
932 1120 m 1,0,-1
 918 1204 l 1,1,-1
 854 1268 l 1,2,-1
 752 1280 l 1,3,-1
 502 1280 l 1,4,-1
 322 1255 l 1,5,-1
 322 453 l 1,6,-1
 428 453 l 1,7,-1
 428 1163 l 1,8,-1
 506 1176 l 1,9,-1
 746 1176 l 1,10,-1
 815 1165 l 1,11,-1
 825 1106 l 1,12,-1
 825 453 l 1,13,-1
 932 453 l 1,14,-1
 932 1120 l 1,0,-1
746 1370 m 2,15,16
 847 1370 847 1370 929 1340 c 128,-1,17
 1011 1310 1011 1310 1068.5 1258 c 128,-1,18
 1126 1206 1126 1206 1157 1136.5 c 128,-1,19
 1188 1067 1188 1067 1188 989 c 2,20,-1
 1188 381 l 2,21,22
 1188 303 1188 303 1157 233.5 c 128,-1,23
 1126 164 1126 164 1068.5 112 c 128,-1,24
 1011 60 1011 60 929 30 c 128,-1,25
 847 0 847 0 746 0 c 2,26,-1
 438 0 l 2,27,28
 337 0 337 0 255 30 c 128,-1,29
 173 60 173 60 115.5 112 c 128,-1,30
 58 164 58 164 27 233.5 c 128,-1,31
 -4 303 -4 303 -4 381 c 2,32,-1
 -4 989 l 2,33,34
 -4 1067 -4 1067 27 1136.5 c 128,-1,35
 58 1206 58 1206 115.5 1258 c 128,-1,36
 173 1310 173 1310 255 1340 c 128,-1,37
 337 1370 337 1370 438 1370 c 2,38,-1
 746 1370 l 2,15,16
EndSplineSet
EndChar

StartChar: braceleft
Encoding: 123 123 94
Width: 993
GlyphClass: 2
Flags: HMW
LayerCount: 2
Fore
SplineSet
555 1370 m 2,0,1
 656 1370 656 1370 738 1340 c 128,-1,2
 820 1310 820 1310 877.5 1258 c 128,-1,3
 935 1206 935 1206 966 1136.5 c 128,-1,4
 997 1067 997 1067 997 989 c 2,5,-1
 997 381 l 2,6,7
 997 303 997 303 966 233.5 c 128,-1,8
 935 164 935 164 877.5 112 c 128,-1,9
 820 60 820 60 738 30 c 128,-1,10
 656 0 656 0 555 0 c 2,11,-1
 438 0 l 2,12,13
 337 0 337 0 255 30 c 128,-1,14
 173 60 173 60 115.5 112 c 128,-1,15
 58 164 58 164 27 233.5 c 128,-1,16
 -4 303 -4 303 -4 381 c 2,17,-1
 -4 989 l 2,18,19
 -4 1067 -4 1067 27 1136.5 c 128,-1,20
 58 1206 58 1206 115.5 1258 c 128,-1,21
 173 1310 173 1310 255 1340 c 128,-1,22
 337 1370 337 1370 438 1370 c 2,23,-1
 555 1370 l 2,0,1
361 705 m 1,24,-1
 361 512 l 1,25,-1
 375 426 l 1,26,-1
 440 362 l 1,27,-1
 541 350 l 1,28,-1
 664 350 l 1,29,-1
 664 457 l 1,30,-1
 547 457 l 1,31,-1
 481 467 l 1,32,-1
 467 526 l 1,33,-1
 467 721 l 1,34,-1
 453 805 l 1,35,-1
 430 827 l 1,36,-1
 453 850 l 1,37,-1
 465 936 l 1,38,-1
 465 1126 l 1,39,-1
 481 1186 l 1,40,-1
 547 1196 l 1,41,-1
 664 1196 l 1,42,-1
 664 1303 l 1,43,-1
 541 1303 l 1,44,-1
 440 1290 l 1,45,-1
 375 1225 l 1,46,-1
 363 1141 l 1,47,-1
 363 950 l 1,48,-1
 344 891 l 1,49,-1
 281 881 l 1,50,-1
 164 881 l 1,51,-1
 164 774 l 1,52,-1
 281 774 l 1,53,-1
 346 764 l 1,54,-1
 361 705 l 1,24,-1
EndSplineSet
EndChar

StartChar: bar
Encoding: 124 124 95
Width: 993
GlyphClass: 2
Flags: HMW
LayerCount: 2
Fore
SplineSet
454 1370 m 1,0,-1
 454 378 l 1,1,-1
 539 378 l 1,2,-1
 539 1370 l 1,3,-1
 555 1370 l 2,4,5
 656 1370 656 1370 738 1340 c 128,-1,6
 820 1310 820 1310 877.5 1258 c 128,-1,7
 935 1206 935 1206 966 1136.5 c 128,-1,8
 997 1067 997 1067 997 989 c 2,9,-1
 997 381 l 2,10,11
 997 303 997 303 966 233.5 c 128,-1,12
 935 164 935 164 877.5 112 c 128,-1,13
 820 60 820 60 738 30 c 128,-1,14
 656 0 656 0 555 0 c 2,15,-1
 438 0 l 2,16,17
 337 0 337 0 255 30 c 128,-1,18
 173 60 173 60 115.5 112 c 128,-1,19
 58 164 58 164 27 233.5 c 128,-1,20
 -4 303 -4 303 -4 381 c 2,21,-1
 -4 989 l 2,22,23
 -4 1067 -4 1067 27 1136.5 c 128,-1,24
 58 1206 58 1206 115.5 1258 c 128,-1,25
 173 1310 173 1310 255 1340 c 128,-1,26
 337 1370 337 1370 438 1370 c 2,27,-1
 454 1370 l 1,0,-1
EndSplineSet
EndChar

StartChar: braceright
Encoding: 125 125 96
Width: 993
GlyphClass: 2
Flags: HMW
LayerCount: 2
Fore
SplineSet
555 1370 m 2,0,1
 656 1370 656 1370 738 1340 c 128,-1,2
 820 1310 820 1310 877.5 1258 c 128,-1,3
 935 1206 935 1206 966 1136.5 c 128,-1,4
 997 1067 997 1067 997 989 c 2,5,-1
 997 381 l 2,6,7
 997 303 997 303 966 233.5 c 128,-1,8
 935 164 935 164 877.5 112 c 128,-1,9
 820 60 820 60 738 30 c 128,-1,10
 656 0 656 0 555 0 c 2,11,-1
 438 0 l 2,12,13
 337 0 337 0 255 30 c 128,-1,14
 173 60 173 60 115.5 112 c 128,-1,15
 58 164 58 164 27 233.5 c 128,-1,16
 -4 303 -4 303 -4 381 c 2,17,-1
 -4 989 l 2,18,19
 -4 1067 -4 1067 27 1136.5 c 128,-1,20
 58 1206 58 1206 115.5 1258 c 128,-1,21
 173 1310 173 1310 255 1340 c 128,-1,22
 337 1370 337 1370 438 1370 c 2,23,-1
 555 1370 l 2,0,1
647 764 m 1,24,-1
 712 774 l 1,25,-1
 829 774 l 1,26,-1
 829 881 l 1,27,-1
 712 881 l 1,28,-1
 649 891 l 1,29,-1
 630 950 l 1,30,-1
 630 1141 l 1,31,-1
 618 1225 l 1,32,-1
 553 1290 l 1,33,-1
 452 1303 l 1,34,-1
 329 1303 l 1,35,-1
 329 1196 l 1,36,-1
 446 1196 l 1,37,-1
 512 1186 l 1,38,-1
 528 1126 l 1,39,-1
 528 936 l 1,40,-1
 540 850 l 1,41,-1
 563 827 l 1,42,-1
 540 805 l 1,43,-1
 526 721 l 1,44,-1
 526 526 l 1,45,-1
 512 467 l 1,46,-1
 446 457 l 1,47,-1
 329 457 l 1,48,-1
 329 350 l 1,49,-1
 452 350 l 1,50,-1
 553 362 l 1,51,-1
 618 426 l 1,52,-1
 632 512 l 1,53,-1
 632 705 l 1,54,-1
 647 764 l 1,24,-1
EndSplineSet
EndChar

StartChar: asciitilde
Encoding: 126 126 97
Width: 1184
GlyphClass: 2
Flags: HMW
LayerCount: 2
Fore
SplineSet
801 1063 m 1,0,1
 801 1027 801 1027 796 1007.5 c 128,-1,2
 791 988 791 988 783.5 979 c 128,-1,3
 776 970 776 970 767.5 968.5 c 128,-1,4
 759 967 759 967 752 967 c 0,5,6
 749 967 749 967 717 978.5 c 128,-1,7
 685 990 685 990 638.5 1004.5 c 128,-1,8
 592 1019 592 1019 538 1030.5 c 128,-1,9
 484 1042 484 1042 436 1042 c 0,10,11
 411 1042 411 1042 389 1036.5 c 128,-1,12
 367 1031 367 1031 350.5 1017.5 c 128,-1,13
 334 1004 334 1004 324.5 982 c 128,-1,14
 315 960 315 960 315 928 c 0,15,16
 315 899 315 899 324 862 c 1,17,-1
 414 862 l 1,18,19
 414 893 414 893 418 911 c 128,-1,20
 422 929 422 929 428.5 937.5 c 128,-1,21
 435 946 435 946 442.5 948 c 128,-1,22
 450 950 450 950 457 950 c 0,23,24
 476 950 476 950 513 937 c 128,-1,25
 550 924 550 924 595.5 908 c 128,-1,26
 641 892 641 892 689.5 879 c 128,-1,27
 738 866 738 866 780 866 c 0,28,29
 807 866 807 866 828.5 874 c 128,-1,30
 850 882 850 882 864 901.5 c 128,-1,31
 878 921 878 921 885.5 952.5 c 128,-1,32
 893 984 893 984 893 1032 c 0,33,34
 893 1040 893 1040 893 1047 c 128,-1,35
 893 1054 893 1054 891 1063 c 1,36,-1
 801 1063 l 1,0,1
746 1370 m 2,37,38
 847 1370 847 1370 929 1340 c 128,-1,39
 1011 1310 1011 1310 1068.5 1258 c 128,-1,40
 1126 1206 1126 1206 1157 1136.5 c 128,-1,41
 1188 1067 1188 1067 1188 989 c 2,42,-1
 1188 381 l 2,43,44
 1188 303 1188 303 1157 233.5 c 128,-1,45
 1126 164 1126 164 1068.5 112 c 128,-1,46
 1011 60 1011 60 929 30 c 128,-1,47
 847 0 847 0 746 0 c 2,48,-1
 438 0 l 2,49,50
 337 0 337 0 255 30 c 128,-1,51
 173 60 173 60 115.5 112 c 128,-1,52
 58 164 58 164 27 233.5 c 128,-1,53
 -4 303 -4 303 -4 381 c 2,54,-1
 -4 989 l 2,55,56
 -4 1067 -4 1067 27 1136.5 c 128,-1,57
 58 1206 58 1206 115.5 1258 c 128,-1,58
 173 1310 173 1310 255 1340 c 128,-1,59
 337 1370 337 1370 438 1370 c 2,60,-1
 746 1370 l 2,37,38
EndSplineSet
EndChar

StartChar: exclamdown
Encoding: 161 161 99
Width: 869
GlyphClass: 2
Flags: HMW
LayerCount: 2
Fore
SplineSet
438 1370 m 1,0,1
 537 1368 537 1368 617.5 1337.5 c 128,-1,2
 698 1307 698 1307 755 1255.5 c 128,-1,3
 812 1204 812 1204 842.5 1135.5 c 128,-1,4
 873 1067 873 1067 873 989 c 2,5,-1
 873 381 l 2,6,7
 873 303 873 303 842 233.5 c 128,-1,8
 811 164 811 164 753 112 c 128,-1,9
 695 60 695 60 613.5 30 c 128,-1,10
 532 0 532 0 430 0 c 0,11,12
 330 0 330 0 250 30.5 c 128,-1,13
 170 61 170 61 113.5 113.5 c 128,-1,14
 57 166 57 166 26.5 235 c 128,-1,15
 -4 304 -4 304 -4 381 c 2,16,-1
 -4 989 l 2,17,18
 -4 1067 -4 1067 27 1136.5 c 128,-1,19
 58 1206 58 1206 115.5 1258 c 128,-1,20
 173 1310 173 1310 255 1340 c 128,-1,21
 337 1370 337 1370 438 1370 c 1,0,1
492 438 m 1,22,-1
 492 1092 l 1,23,-1
 412 1092 l 1,24,-1
 412 438 l 1,25,-1
 492 438 l 1,22,-1
389 1174 m 1,26,-1
 496 1174 l 1,27,-1
 496 1280 l 1,28,-1
 389 1280 l 1,29,-1
 389 1174 l 1,26,-1
EndSplineSet
EndChar

StartChar: cent
Encoding: 162 162 100
Width: 1184
GlyphClass: 2
Flags: HMW
LayerCount: 2
Fore
SplineSet
746 1370 m 2,0,1
 847 1370 847 1370 929 1340 c 128,-1,2
 1011 1310 1011 1310 1068.5 1258 c 128,-1,3
 1126 1206 1126 1206 1157 1136.5 c 128,-1,4
 1188 1067 1188 1067 1188 989 c 2,5,-1
 1188 381 l 2,6,7
 1188 303 1188 303 1157 233.5 c 128,-1,8
 1126 164 1126 164 1068.5 112 c 128,-1,9
 1011 60 1011 60 929 30 c 128,-1,10
 847 0 847 0 746 0 c 2,11,-1
 438 0 l 2,12,13
 337 0 337 0 255 30 c 128,-1,14
 173 60 173 60 115.5 112 c 128,-1,15
 58 164 58 164 27 233.5 c 128,-1,16
 -4 303 -4 303 -4 381 c 2,17,-1
 -4 989 l 2,18,19
 -4 1067 -4 1067 27 1136.5 c 128,-1,20
 58 1206 58 1206 115.5 1258 c 128,-1,21
 173 1310 173 1310 255 1340 c 128,-1,22
 337 1370 337 1370 438 1370 c 2,23,-1
 746 1370 l 2,0,1
660 1075 m 1,24,-1
 709 1075 l 1,25,-1
 811 1059 l 1,26,-1
 832 1165 l 1,27,-1
 715 1180 l 1,28,-1
 660 1180 l 1,29,-1
 660 1323 l 1,30,-1
 580 1323 l 1,31,-1
 580 1180 l 1,32,-1
 543 1180 l 1,33,-1
 440 1167 l 1,34,-1
 377 1104 l 1,35,-1
 363 1020 l 1,36,-1
 363 649 l 1,37,-1
 377 565 l 1,38,-1
 442 502 l 1,39,-1
 543 489 l 1,40,-1
 580 489 l 1,41,-1
 580 350 l 1,42,-1
 660 350 l 1,43,-1
 660 489 l 1,44,-1
 715 489 l 1,45,-1
 832 504 l 1,46,-1
 807 612 l 1,47,-1
 713 596 l 1,48,-1
 660 596 l 1,49,-1
 660 1075 l 1,24,-1
549 596 m 1,50,-1
 483 596 l 1,51,52
 478 621 478 621 476 635.5 c 128,-1,53
 474 650 474 650 469 666 c 1,54,-1
 469 1010 l 1,55,-1
 479 1065 l 1,56,-1
 549 1075 l 1,57,-1
 580 1075 l 1,58,-1
 580 596 l 1,59,-1
 549 596 l 1,50,-1
EndSplineSet
EndChar

StartChar: sterling
Encoding: 163 163 101
Width: 1184
GlyphClass: 2
Flags: HMW
LayerCount: 2
Fore
SplineSet
746 1370 m 2,0,1
 847 1370 847 1370 929 1340 c 128,-1,2
 1011 1310 1011 1310 1068.5 1258 c 128,-1,3
 1126 1206 1126 1206 1157 1136.5 c 128,-1,4
 1188 1067 1188 1067 1188 989 c 2,5,-1
 1188 381 l 2,6,7
 1188 303 1188 303 1157 233.5 c 128,-1,8
 1126 164 1126 164 1068.5 112 c 128,-1,9
 1011 60 1011 60 929 30 c 128,-1,10
 847 0 847 0 746 0 c 2,11,-1
 438 0 l 2,12,13
 337 0 337 0 255 30 c 128,-1,14
 173 60 173 60 115.5 112 c 128,-1,15
 58 164 58 164 27 233.5 c 128,-1,16
 -4 303 -4 303 -4 381 c 2,17,-1
 -4 989 l 2,18,19
 -4 1067 -4 1067 27 1136.5 c 128,-1,20
 58 1206 58 1206 115.5 1258 c 128,-1,21
 173 1310 173 1310 255 1340 c 128,-1,22
 337 1370 337 1370 438 1370 c 2,23,-1
 746 1370 l 2,0,1
428 809 m 1,24,-1
 428 453 l 1,25,-1
 842 453 l 1,26,-1
 842 559 l 1,27,-1
 535 559 l 1,28,-1
 535 809 l 1,29,-1
 791 809 l 1,30,-1
 791 887 l 1,31,-1
 535 887 l 1,32,-1
 535 1161 l 1,33,-1
 610 1176 l 1,34,-1
 666 1176 l 1,35,-1
 739 1163 l 1,36,-1
 739 1040 l 1,37,-1
 846 1040 l 1,38,-1
 846 1192 l 1,39,-1
 768 1268 l 1,40,-1
 664 1282 l 1,41,-1
 506 1268 l 1,42,-1
 428 1192 l 1,43,-1
 428 887 l 1,44,-1
 356 887 l 1,45,-1
 356 809 l 1,46,-1
 428 809 l 1,24,-1
EndSplineSet
EndChar

StartChar: currency
Encoding: 164 164 102
Width: 1184
GlyphClass: 2
Flags: HMW
LayerCount: 2
Fore
SplineSet
873 1057 m 1,0,-1
 860 1124 l 1,1,-1
 940 1210 l 1,2,-1
 877 1274 l 1,3,-1
 801 1192 l 1,4,-1
 801 1194 l 1,5,-1
 705 1206 l 1,6,-1
 555 1206 l 1,7,-1
 461 1194 l 1,8,-1
 387 1274 l 1,9,-1
 324 1210 l 1,10,-1
 397 1128 l 1,11,-1
 389 1057 l 1,12,-1
 389 819 l 1,13,-1
 399 739 l 1,14,-1
 324 659 l 1,15,-1
 389 594 l 1,16,-1
 467 678 l 1,17,-1
 555 668 l 1,18,-1
 705 668 l 1,19,-1
 795 678 l 1,20,-1
 875 594 l 1,21,-1
 940 659 l 1,22,-1
 858 743 l 1,23,-1
 873 819 l 1,24,-1
 873 1057 l 1,0,-1
768 770 m 1,25,-1
 707 760 l 1,26,-1
 553 760 l 1,27,-1
 492 770 l 1,28,-1
 477 825 l 1,29,-1
 477 1055 l 1,30,-1
 488 1106 l 1,31,-1
 553 1116 l 1,32,-1
 707 1116 l 1,33,-1
 772 1106 l 1,34,-1
 780 1051 l 1,35,-1
 780 821 l 1,36,-1
 768 770 l 1,25,-1
746 1370 m 2,37,38
 847 1370 847 1370 929 1340 c 128,-1,39
 1011 1310 1011 1310 1068.5 1258 c 128,-1,40
 1126 1206 1126 1206 1157 1136.5 c 128,-1,41
 1188 1067 1188 1067 1188 989 c 2,42,-1
 1188 381 l 2,43,44
 1188 303 1188 303 1157 233.5 c 128,-1,45
 1126 164 1126 164 1068.5 112 c 128,-1,46
 1011 60 1011 60 929 30 c 128,-1,47
 847 0 847 0 746 0 c 2,48,-1
 438 0 l 2,49,50
 337 0 337 0 255 30 c 128,-1,51
 173 60 173 60 115.5 112 c 128,-1,52
 58 164 58 164 27 233.5 c 128,-1,53
 -4 303 -4 303 -4 381 c 2,54,-1
 -4 989 l 2,55,56
 -4 1067 -4 1067 27 1136.5 c 128,-1,57
 58 1206 58 1206 115.5 1258 c 128,-1,58
 173 1310 173 1310 255 1340 c 128,-1,59
 337 1370 337 1370 438 1370 c 2,60,-1
 746 1370 l 2,37,38
EndSplineSet
EndChar

StartChar: yen
Encoding: 165 165 103
Width: 1184
GlyphClass: 2
Flags: HMW
LayerCount: 2
Fore
SplineSet
746 1370 m 2,0,1
 847 1370 847 1370 929 1340 c 128,-1,2
 1011 1310 1011 1310 1068.5 1258 c 128,-1,3
 1126 1206 1126 1206 1157 1136.5 c 128,-1,4
 1188 1067 1188 1067 1188 989 c 2,5,-1
 1188 381 l 2,6,7
 1188 303 1188 303 1157 233.5 c 128,-1,8
 1126 164 1126 164 1068.5 112 c 128,-1,9
 1011 60 1011 60 929 30 c 128,-1,10
 847 0 847 0 746 0 c 2,11,-1
 438 0 l 2,12,13
 337 0 337 0 255 30 c 128,-1,14
 173 60 173 60 115.5 112 c 128,-1,15
 58 164 58 164 27 233.5 c 128,-1,16
 -4 303 -4 303 -4 381 c 2,17,-1
 -4 989 l 2,18,19
 -4 1067 -4 1067 27 1136.5 c 128,-1,20
 58 1206 58 1206 115.5 1258 c 128,-1,21
 173 1310 173 1310 255 1340 c 128,-1,22
 337 1370 337 1370 438 1370 c 2,23,-1
 746 1370 l 2,0,1
549 688 m 1,24,-1
 549 662 l 1,25,-1
 402 662 l 1,26,-1
 402 578 l 1,27,-1
 549 578 l 1,28,-1
 549 455 l 1,29,-1
 655 455 l 1,30,-1
 655 578 l 1,31,-1
 803 578 l 1,32,-1
 803 662 l 1,33,-1
 655 662 l 1,34,35
 655 676 655 676 654 680 c 128,-1,36
 653 684 653 684 653 686 c 1,37,-1
 655 688 l 1,38,-1
 803 688 l 1,39,-1
 803 772 l 1,40,-1
 692 772 l 1,41,-1
 909 1278 l 1,42,-1
 784 1278 l 1,43,-1
 602 831 l 1,44,-1
 424 1278 l 1,45,-1
 299 1278 l 1,46,-1
 512 772 l 1,47,-1
 402 772 l 1,48,-1
 402 688 l 1,49,-1
 549 688 l 1,24,-1
EndSplineSet
EndChar

StartChar: brokenbar
Encoding: 166 166 104
Width: 993
GlyphClass: 2
Flags: HMW
LayerCount: 2
Fore
SplineSet
553 934 m 1,0,-1
 553 1280 l 1,1,-1
 446 1280 l 1,2,-1
 446 934 l 1,3,-1
 553 934 l 1,0,-1
553 453 m 1,4,-1
 553 819 l 1,5,-1
 446 819 l 1,6,-1
 446 453 l 1,7,-1
 553 453 l 1,4,-1
555 1370 m 2,8,9
 656 1370 656 1370 738 1340 c 128,-1,10
 820 1310 820 1310 877.5 1258 c 128,-1,11
 935 1206 935 1206 966 1136.5 c 128,-1,12
 997 1067 997 1067 997 989 c 2,13,-1
 997 381 l 2,14,15
 997 303 997 303 966 233.5 c 128,-1,16
 935 164 935 164 877.5 112 c 128,-1,17
 820 60 820 60 738 30 c 128,-1,18
 656 0 656 0 555 0 c 2,19,-1
 438 0 l 2,20,21
 337 0 337 0 255 30 c 128,-1,22
 173 60 173 60 115.5 112 c 128,-1,23
 58 164 58 164 27 233.5 c 128,-1,24
 -4 303 -4 303 -4 381 c 2,25,-1
 -4 989 l 2,26,27
 -4 1067 -4 1067 27 1136.5 c 128,-1,28
 58 1206 58 1206 115.5 1258 c 128,-1,29
 173 1310 173 1310 255 1340 c 128,-1,30
 337 1370 337 1370 438 1370 c 2,31,-1
 555 1370 l 2,8,9
EndSplineSet
EndChar

StartChar: section
Encoding: 167 167 105
Width: 1184
GlyphClass: 2
Flags: HMW
LayerCount: 2
Fore
SplineSet
428 811 m 1,0,-1
 443 727 l 1,1,-1
 500 670 l 1,2,-1
 599 660 l 1,3,-1
 699 660 l 1,4,-1
 769 647 l 1,5,-1
 787 581 l 1,6,-1
 787 520 l 1,7,-1
 770 455 l 1,8,-1
 701 442 l 1,9,-1
 442 442 l 1,10,-1
 357 458 l 1,11,-1
 335 372 l 1,12,-1
 441 357 l 1,13,-1
 702 357 l 1,14,-1
 799 371 l 1,15,-1
 858 428 l 1,16,-1
 870 510 l 1,17,-1
 870 592 l 1,18,-1
 858 674 l 1,19,-1
 799 731 l 1,20,21
 794 731 794 731 789.5 731 c 128,-1,22
 785 731 785 731 780 732 c 1,23,-1
 801 811 l 1,24,-1
 801 846 l 1,25,-1
 786 930 l 1,26,-1
 729 987 l 1,27,-1
 630 997 l 1,28,-1
 528 997 l 1,29,-1
 459 1010 l 1,30,-1
 442 1075 l 1,31,-1
 442 1106 l 1,32,-1
 459 1171 l 1,33,-1
 528 1184 l 1,34,-1
 787 1184 l 1,35,-1
 872 1168 l 1,36,-1
 893 1253 l 1,37,-1
 789 1270 l 1,38,-1
 526 1270 l 1,39,-1
 430 1255 l 1,40,-1
 371 1198 l 1,41,-1
 359 1116 l 1,42,-1
 359 1065 l 1,43,-1
 371 983 l 1,44,-1
 430 926 l 1,45,-1
 446 923 l 1,46,-1
 428 846 l 1,47,-1
 428 811 l 1,0,-1
602 743 m 1,48,-1
 529 754 l 1,49,-1
 514 821 l 1,50,-1
 514 838 l 1,51,52
 517 857 517 857 521 876 c 128,-1,53
 525 895 525 895 529 914 c 1,54,-1
 629 914 l 1,55,-1
 700 902 l 1,56,-1
 715 838 l 1,57,-1
 715 813 l 1,58,59
 712 796 712 796 708 778 c 128,-1,60
 704 760 704 760 700 743 c 1,61,-1
 602 743 l 1,48,-1
746 1370 m 2,62,63
 847 1370 847 1370 929 1340 c 128,-1,64
 1011 1310 1011 1310 1068.5 1258 c 128,-1,65
 1126 1206 1126 1206 1157 1136.5 c 128,-1,66
 1188 1067 1188 1067 1188 989 c 2,67,-1
 1188 381 l 2,68,69
 1188 303 1188 303 1157 233.5 c 128,-1,70
 1126 164 1126 164 1068.5 112 c 128,-1,71
 1011 60 1011 60 929 30 c 128,-1,72
 847 0 847 0 746 0 c 2,73,-1
 438 0 l 2,74,75
 337 0 337 0 255 30 c 128,-1,76
 173 60 173 60 115.5 112 c 128,-1,77
 58 164 58 164 27 233.5 c 128,-1,78
 -4 303 -4 303 -4 381 c 2,79,-1
 -4 989 l 2,80,81
 -4 1067 -4 1067 27 1136.5 c 128,-1,82
 58 1206 58 1206 115.5 1258 c 128,-1,83
 173 1310 173 1310 255 1340 c 128,-1,84
 337 1370 337 1370 438 1370 c 2,85,-1
 746 1370 l 2,62,63
EndSplineSet
EndChar

StartChar: dieresis
Encoding: 168 168 106
Width: 795
GlyphClass: 2
Flags: HMW
LayerCount: 2
Fore
SplineSet
586 207 m 1,0,-1
 586 336 l 1,1,-1
 455 336 l 1,2,-1
 455 207 l 1,3,-1
 586 207 l 1,0,-1
129 41 m 1,4,5
 63 84 63 84 29.5 148.5 c 128,-1,6
 -4 213 -4 213 -4 291 c 0,7,8
 -4 351 -4 351 24 405 c 128,-1,9
 52 459 52 459 104.5 500.5 c 128,-1,10
 157 542 157 542 231 566 c 128,-1,11
 305 590 305 590 397 590 c 256,12,13
 489 590 489 590 563.5 566 c 128,-1,14
 638 542 638 542 690.5 500.5 c 128,-1,15
 743 459 743 459 771 405 c 128,-1,16
 799 351 799 351 799 291 c 0,17,18
 799 212 799 212 764.5 148 c 128,-1,19
 730 84 730 84 664 41 c 1,20,-1
 129 41 l 1,4,5
324 207 m 1,21,-1
 324 336 l 1,22,-1
 193 336 l 1,23,-1
 193 207 l 1,24,-1
 324 207 l 1,21,-1
EndSplineSet
EndChar

StartChar: copyright
Encoding: 169 169 107
Width: 1184
GlyphClass: 2
Flags: HMW
LayerCount: 2
Fore
SplineSet
746 1370 m 2,0,1
 847 1370 847 1370 929 1340 c 128,-1,2
 1011 1310 1011 1310 1068.5 1258 c 128,-1,3
 1126 1206 1126 1206 1157 1136.5 c 128,-1,4
 1188 1067 1188 1067 1188 989 c 2,5,-1
 1188 381 l 2,6,7
 1188 303 1188 303 1157 233.5 c 128,-1,8
 1126 164 1126 164 1068.5 112 c 128,-1,9
 1011 60 1011 60 929 30 c 128,-1,10
 847 0 847 0 746 0 c 2,11,-1
 438 0 l 2,12,13
 337 0 337 0 255 30 c 128,-1,14
 173 60 173 60 115.5 112 c 128,-1,15
 58 164 58 164 27 233.5 c 128,-1,16
 -4 303 -4 303 -4 381 c 2,17,-1
 -4 989 l 2,18,19
 -4 1067 -4 1067 27 1136.5 c 128,-1,20
 58 1206 58 1206 115.5 1258 c 128,-1,21
 173 1310 173 1310 255 1340 c 128,-1,22
 337 1370 337 1370 438 1370 c 2,23,-1
 746 1370 l 2,0,1
211 811 m 256,24,25
 211 895 211 895 243 968.5 c 128,-1,26
 275 1042 275 1042 330 1097.5 c 128,-1,27
 385 1153 385 1153 459 1185 c 128,-1,28
 533 1217 533 1217 617 1217 c 256,29,30
 701 1217 701 1217 774.5 1185 c 128,-1,31
 848 1153 848 1153 903 1097.5 c 128,-1,32
 958 1042 958 1042 990 968.5 c 128,-1,33
 1022 895 1022 895 1022 811 c 256,34,35
 1022 727 1022 727 990 653.5 c 128,-1,36
 958 580 958 580 903 525 c 128,-1,37
 848 470 848 470 774.5 438 c 128,-1,38
 701 406 701 406 617 406 c 256,39,40
 533 406 533 406 459 438 c 128,-1,41
 385 470 385 470 330 525 c 128,-1,42
 275 580 275 580 243 653.5 c 128,-1,43
 211 727 211 727 211 811 c 256,24,25
143 811 m 256,44,45
 143 713 143 713 180 626.5 c 128,-1,46
 217 540 217 540 281.5 476 c 128,-1,47
 346 412 346 412 432 375 c 128,-1,48
 518 338 518 338 617 338 c 0,49,50
 715 338 715 338 801.5 375 c 128,-1,51
 888 412 888 412 952 476 c 128,-1,52
 1016 540 1016 540 1053 626.5 c 128,-1,53
 1090 713 1090 713 1090 811 c 256,54,55
 1090 909 1090 909 1053 995.5 c 128,-1,56
 1016 1082 1016 1082 952 1146 c 128,-1,57
 888 1210 888 1210 801.5 1247 c 128,-1,58
 715 1284 715 1284 617 1284 c 0,59,60
 518 1284 518 1284 432 1247 c 128,-1,61
 346 1210 346 1210 281.5 1146 c 128,-1,62
 217 1082 217 1082 180 995.5 c 128,-1,63
 143 909 143 909 143 811 c 256,44,45
721 1108 m 1,64,-1
 551 1108 l 1,65,-1
 479 1100 l 1,66,-1
 436 1055 l 1,67,-1
 426 995 l 1,68,-1
 426 641 l 1,69,-1
 436 582 l 1,70,-1
 481 537 l 1,71,-1
 551 528 l 1,72,-1
 721 528 l 1,73,-1
 803 539 l 1,74,-1
 787 614 l 1,75,-1
 719 602 l 1,76,-1
 557 602 l 1,77,-1
 510 610 l 1,78,-1
 500 651 l 1,79,-1
 500 989 l 1,80,-1
 508 1028 l 1,81,-1
 557 1034 l 1,82,-1
 717 1034 l 1,83,-1
 789 1024 l 1,84,-1
 803 1098 l 1,85,-1
 721 1108 l 1,64,-1
EndSplineSet
EndChar

StartChar: ordfeminine
Encoding: 170 170 108
Width: 1184
GlyphClass: 2
Flags: HMW
LayerCount: 2
Fore
SplineSet
746 1370 m 2,0,1
 847 1370 847 1370 929 1340 c 128,-1,2
 1011 1310 1011 1310 1068.5 1258 c 128,-1,3
 1126 1206 1126 1206 1157 1136.5 c 128,-1,4
 1188 1067 1188 1067 1188 989 c 2,5,-1
 1188 381 l 2,6,7
 1188 303 1188 303 1157 233.5 c 128,-1,8
 1126 164 1126 164 1068.5 112 c 128,-1,9
 1011 60 1011 60 929 30 c 128,-1,10
 847 0 847 0 746 0 c 2,11,-1
 438 0 l 2,12,13
 337 0 337 0 255 30 c 128,-1,14
 173 60 173 60 115.5 112 c 128,-1,15
 58 164 58 164 27 233.5 c 128,-1,16
 -4 303 -4 303 -4 381 c 2,17,-1
 -4 989 l 2,18,19
 -4 1067 -4 1067 27 1136.5 c 128,-1,20
 58 1206 58 1206 115.5 1258 c 128,-1,21
 173 1310 173 1310 255 1340 c 128,-1,22
 337 1370 337 1370 438 1370 c 2,23,-1
 746 1370 l 2,0,1
879 1120 m 1,24,-1
 864 1204 l 1,25,-1
 801 1268 l 1,26,-1
 701 1280 l 1,27,-1
 547 1280 l 1,28,-1
 430 1266 l 1,29,-1
 455 1157 l 1,30,31
 463 1158 463 1158 475 1160.5 c 128,-1,32
 487 1163 487 1163 500 1166 c 128,-1,33
 513 1169 513 1169 526 1171.5 c 128,-1,34
 539 1174 539 1174 549 1176 c 1,35,-1
 698 1176 l 1,36,-1
 758 1163 l 1,37,-1
 772 1110 l 1,38,-1
 772 963 l 1,39,-1
 701 975 l 1,40,-1
 547 975 l 1,41,-1
 447 961 l 1,42,-1
 383 897 l 1,43,-1
 369 815 l 1,44,-1
 369 756 l 1,45,-1
 383 672 l 1,46,-1
 447 608 l 1,47,-1
 547 596 l 1,48,-1
 701 596 l 1,49,-1
 801 608 l 1,50,-1
 864 672 l 1,51,-1
 879 756 l 1,52,-1
 879 1120 l 1,24,-1
758 713 m 1,53,-1
 694 702 l 1,54,-1
 553 702 l 1,55,-1
 490 713 l 1,56,57
 489 719 489 719 487 727 c 128,-1,58
 485 735 485 735 482.5 744 c 128,-1,59
 480 753 480 753 478 760.5 c 128,-1,60
 476 768 476 768 475 772 c 1,61,-1
 475 801 l 1,62,63
 478 813 478 813 479 828.5 c 128,-1,64
 480 844 480 844 483 858 c 1,65,-1
 553 868 l 1,66,-1
 696 868 l 1,67,68
 715 865 715 865 734.5 864 c 128,-1,69
 754 863 754 863 772 860 c 1,70,-1
 772 766 l 1,71,-1
 758 713 l 1,53,-1
EndSplineSet
EndChar

StartChar: guillemotleft
Encoding: 171 171 109
Width: 1184
GlyphClass: 2
Flags: HMW
LayerCount: 2
Fore
SplineSet
807 408 m 1,0,-1
 854 453 l 1,1,-1
 596 797 l 1,2,-1
 854 1141 l 1,3,-1
 807 1188 l 1,4,-1
 522 811 l 1,5,-1
 522 784 l 1,6,-1
 807 408 l 1,0,-1
561 408 m 1,7,-1
 608 453 l 1,8,-1
 371 797 l 1,9,-1
 608 1141 l 1,10,-1
 561 1188 l 1,11,-1
 297 811 l 1,12,-1
 297 784 l 1,13,-1
 561 408 l 1,7,-1
746 1370 m 2,14,15
 847 1370 847 1370 929 1340 c 128,-1,16
 1011 1310 1011 1310 1068.5 1258 c 128,-1,17
 1126 1206 1126 1206 1157 1136.5 c 128,-1,18
 1188 1067 1188 1067 1188 989 c 2,19,-1
 1188 381 l 2,20,21
 1188 303 1188 303 1157 233.5 c 128,-1,22
 1126 164 1126 164 1068.5 112 c 128,-1,23
 1011 60 1011 60 929 30 c 128,-1,24
 847 0 847 0 746 0 c 2,25,-1
 438 0 l 2,26,27
 337 0 337 0 255 30 c 128,-1,28
 173 60 173 60 115.5 112 c 128,-1,29
 58 164 58 164 27 233.5 c 128,-1,30
 -4 303 -4 303 -4 381 c 2,31,-1
 -4 989 l 2,32,33
 -4 1067 -4 1067 27 1136.5 c 128,-1,34
 58 1206 58 1206 115.5 1258 c 128,-1,35
 173 1310 173 1310 255 1340 c 128,-1,36
 337 1370 337 1370 438 1370 c 2,37,-1
 746 1370 l 2,14,15
EndSplineSet
EndChar

StartChar: registered
Encoding: 174 174 111
Width: 1184
GlyphClass: 2
Flags: HMW
LayerCount: 2
Fore
SplineSet
746 1370 m 2,0,1
 847 1370 847 1370 929 1340 c 128,-1,2
 1011 1310 1011 1310 1068.5 1258 c 128,-1,3
 1126 1206 1126 1206 1157 1136.5 c 128,-1,4
 1188 1067 1188 1067 1188 989 c 2,5,-1
 1188 381 l 2,6,7
 1188 303 1188 303 1157 233.5 c 128,-1,8
 1126 164 1126 164 1068.5 112 c 128,-1,9
 1011 60 1011 60 929 30 c 128,-1,10
 847 0 847 0 746 0 c 2,11,-1
 438 0 l 2,12,13
 337 0 337 0 255 30 c 128,-1,14
 173 60 173 60 115.5 112 c 128,-1,15
 58 164 58 164 27 233.5 c 128,-1,16
 -4 303 -4 303 -4 381 c 2,17,-1
 -4 989 l 2,18,19
 -4 1067 -4 1067 27 1136.5 c 128,-1,20
 58 1206 58 1206 115.5 1258 c 128,-1,21
 173 1310 173 1310 255 1340 c 128,-1,22
 337 1370 337 1370 438 1370 c 2,23,-1
 746 1370 l 2,0,1
211 811 m 256,24,25
 211 895 211 895 243 968.5 c 128,-1,26
 275 1042 275 1042 330 1097.5 c 128,-1,27
 385 1153 385 1153 459 1185 c 128,-1,28
 533 1217 533 1217 617 1217 c 256,29,30
 701 1217 701 1217 774.5 1185 c 128,-1,31
 848 1153 848 1153 903 1097.5 c 128,-1,32
 958 1042 958 1042 990 968.5 c 128,-1,33
 1022 895 1022 895 1022 811 c 256,34,35
 1022 727 1022 727 990 653.5 c 128,-1,36
 958 580 958 580 903 525 c 128,-1,37
 848 470 848 470 774.5 438 c 128,-1,38
 701 406 701 406 617 406 c 256,39,40
 533 406 533 406 459 438 c 128,-1,41
 385 470 385 470 330 525 c 128,-1,42
 275 580 275 580 243 653.5 c 128,-1,43
 211 727 211 727 211 811 c 256,24,25
143 811 m 256,44,45
 143 713 143 713 180 626.5 c 128,-1,46
 217 540 217 540 281.5 476 c 128,-1,47
 346 412 346 412 432 375 c 128,-1,48
 518 338 518 338 617 338 c 0,49,50
 715 338 715 338 801.5 375 c 128,-1,51
 888 412 888 412 952 476 c 128,-1,52
 1016 540 1016 540 1053 626.5 c 128,-1,53
 1090 713 1090 713 1090 811 c 256,54,55
 1090 909 1090 909 1053 995.5 c 128,-1,56
 1016 1082 1016 1082 952 1146 c 128,-1,57
 888 1210 888 1210 801.5 1247 c 128,-1,58
 715 1284 715 1284 617 1284 c 0,59,60
 518 1284 518 1284 432 1247 c 128,-1,61
 346 1210 346 1210 281.5 1146 c 128,-1,62
 217 1082 217 1082 180 995.5 c 128,-1,63
 143 909 143 909 143 811 c 256,44,45
752 705 m 1,64,-1
 752 530 l 1,65,-1
 825 530 l 1,66,-1
 825 711 l 1,67,-1
 801 776 l 1,68,-1
 721 805 l 1,69,-1
 799 842 l 1,70,-1
 819 905 l 1,71,-1
 819 983 l 1,72,-1
 811 1040 l 1,73,-1
 766 1100 l 1,74,-1
 694 1110 l 1,75,-1
 434 1110 l 1,76,-1
 434 530 l 1,77,-1
 508 530 l 1,78,-1
 508 764 l 1,79,-1
 690 764 l 1,80,-1
 741 741 l 1,81,-1
 752 705 l 1,64,-1
690 1036 m 1,82,-1
 741 1014 l 1,83,-1
 746 973 l 1,84,-1
 746 899 l 1,85,-1
 735 860 l 1,86,-1
 690 840 l 1,87,-1
 508 840 l 1,88,-1
 508 1036 l 1,89,-1
 690 1036 l 1,82,-1
EndSplineSet
EndChar

StartChar: macron
Encoding: 175 175 112
Width: 877
GlyphClass: 2
Flags: HMW
LayerCount: 2
Fore
SplineSet
612 209 m 1,0,-1
 612 317 l 1,1,-1
 236 317 l 1,2,-1
 236 209 l 1,3,-1
 612 209 l 1,0,-1
170 0 m 1,4,5
 85 51 85 51 40.5 119.5 c 128,-1,6
 -4 188 -4 188 -4 279 c 0,7,8
 -4 344 -4 344 27 402 c 128,-1,9
 58 460 58 460 115.5 503.5 c 128,-1,10
 173 547 173 547 255 572.5 c 128,-1,11
 337 598 337 598 438 598 c 0,12,13
 540 598 540 598 621.5 572.5 c 128,-1,14
 703 547 703 547 761 503.5 c 128,-1,15
 819 460 819 460 850 402 c 128,-1,16
 881 344 881 344 881 279 c 0,17,18
 881 188 881 188 836 119.5 c 128,-1,19
 791 51 791 51 707 0 c 1,20,-1
 170 0 l 1,4,5
EndSplineSet
EndChar

StartChar: degree
Encoding: 176 176 113
Width: 877
GlyphClass: 2
Flags: HMW
LayerCount: 2
Fore
SplineSet
438 0 m 0,0,1
 337 0 337 0 255 30 c 128,-1,2
 173 60 173 60 115.5 112 c 128,-1,3
 58 164 58 164 27 233.5 c 128,-1,4
 -4 303 -4 303 -4 381 c 2,5,-1
 -4 989 l 2,6,7
 -4 1067 -4 1067 27 1136.5 c 128,-1,8
 58 1206 58 1206 115.5 1258 c 128,-1,9
 173 1310 173 1310 255 1340 c 128,-1,10
 337 1370 337 1370 438 1370 c 0,11,12
 540 1370 540 1370 621.5 1340 c 128,-1,13
 703 1310 703 1310 761 1258 c 128,-1,14
 819 1206 819 1206 850 1136.5 c 128,-1,15
 881 1067 881 1067 881 989 c 2,16,-1
 881 381 l 2,17,18
 881 303 881 303 850 233.5 c 128,-1,19
 819 164 819 164 761 112 c 128,-1,20
 703 60 703 60 621.5 30 c 128,-1,21
 540 0 540 0 438 0 c 0,0,1
404 1266 m 1,22,-1
 326 1251 l 1,23,-1
 268 1194 l 1,24,-1
 256 1100 l 1,25,-1
 268 995 l 1,26,-1
 326 938 l 1,27,-1
 404 926 l 1,28,-1
 475 926 l 1,29,-1
 553 938 l 1,30,-1
 612 997 l 1,31,-1
 623 1090 l 1,32,-1
 612 1194 l 1,33,-1
 553 1251 l 1,34,-1
 475 1266 l 1,35,-1
 404 1266 l 1,22,-1
524 1161 m 1,36,-1
 535 1096 l 1,37,-1
 524 1030 l 1,38,-1
 465 1016 l 1,39,-1
 412 1016 l 1,40,-1
 356 1026 l 1,41,-1
 346 1096 l 1,42,-1
 356 1165 l 1,43,-1
 416 1176 l 1,44,-1
 469 1176 l 1,45,-1
 524 1161 l 1,36,-1
EndSplineSet
EndChar

StartChar: plusminus
Encoding: 177 177 114
Width: 877
GlyphClass: 2
Flags: HMW
LayerCount: 2
Fore
SplineSet
627 596 m 1,0,-1
 627 705 l 1,1,-1
 250 705 l 1,2,-1
 250 596 l 1,3,-1
 627 596 l 1,0,-1
694 1085 m 1,4,-1
 498 1085 l 1,5,-1
 498 1282 l 1,6,-1
 393 1282 l 1,7,-1
 393 1085 l 1,8,-1
 199 1085 l 1,9,-1
 199 979 l 1,10,-1
 393 979 l 1,11,-1
 393 784 l 1,12,-1
 498 784 l 1,13,-1
 498 979 l 1,14,-1
 694 979 l 1,15,-1
 694 1085 l 1,4,-1
438 0 m 0,16,17
 337 0 337 0 255 30 c 128,-1,18
 173 60 173 60 115.5 112 c 128,-1,19
 58 164 58 164 27 233.5 c 128,-1,20
 -4 303 -4 303 -4 381 c 2,21,-1
 -4 989 l 2,22,23
 -4 1067 -4 1067 27 1136.5 c 128,-1,24
 58 1206 58 1206 115.5 1258 c 128,-1,25
 173 1310 173 1310 255 1340 c 128,-1,26
 337 1370 337 1370 438 1370 c 0,27,28
 540 1370 540 1370 621.5 1340 c 128,-1,29
 703 1310 703 1310 761 1258 c 128,-1,30
 819 1206 819 1206 850 1136.5 c 128,-1,31
 881 1067 881 1067 881 989 c 2,32,-1
 881 381 l 2,33,34
 881 303 881 303 850 233.5 c 128,-1,35
 819 164 819 164 761 112 c 128,-1,36
 703 60 703 60 621.5 30 c 128,-1,37
 540 0 540 0 438 0 c 0,16,17
EndSplineSet
EndChar

StartChar: uni00B2
Encoding: 178 178 115
Width: 1184
GlyphClass: 2
Flags: HMW
LayerCount: 2
Fore
SplineSet
746 1370 m 2,0,1
 847 1370 847 1370 929 1340 c 128,-1,2
 1011 1310 1011 1310 1068.5 1258 c 128,-1,3
 1126 1206 1126 1206 1157 1136.5 c 128,-1,4
 1188 1067 1188 1067 1188 989 c 2,5,-1
 1188 381 l 2,6,7
 1188 303 1188 303 1157 233.5 c 128,-1,8
 1126 164 1126 164 1068.5 112 c 128,-1,9
 1011 60 1011 60 929 30 c 128,-1,10
 847 0 847 0 746 0 c 2,11,-1
 438 0 l 2,12,13
 337 0 337 0 255 30 c 128,-1,14
 173 60 173 60 115.5 112 c 128,-1,15
 58 164 58 164 27 233.5 c 128,-1,16
 -4 303 -4 303 -4 381 c 2,17,-1
 -4 989 l 2,18,19
 -4 1067 -4 1067 27 1136.5 c 128,-1,20
 58 1206 58 1206 115.5 1258 c 128,-1,21
 173 1310 173 1310 255 1340 c 128,-1,22
 337 1370 337 1370 438 1370 c 2,23,-1
 746 1370 l 2,0,1
718 1114 m 1,24,-1
 703 1073 l 1,25,-1
 568 1057 l 1,26,-1
 452 1024 l 1,27,-1
 407 979 l 1,28,-1
 394 897 l 1,29,-1
 394 805 l 1,30,-1
 458 741 l 1,31,-1
 781 741 l 1,32,-1
 781 846 l 1,33,-1
 499 846 l 1,34,-1
 499 885 l 1,35,-1
 507 940 l 1,36,-1
 648 956 l 1,37,-1
 765 989 l 1,38,-1
 810 1032 l 1,39,-1
 824 1100 l 1,40,-1
 824 1128 l 1,41,-1
 810 1202 l 1,42,-1
 746 1266 l 1,43,-1
 644 1280 l 1,44,-1
 572 1280 l 1,45,-1
 470 1266 l 1,46,-1
 407 1202 l 1,47,-1
 390 1116 l 1,48,-1
 497 1106 l 1,49,-1
 509 1163 l 1,50,-1
 579 1174 l 1,51,-1
 638 1174 l 1,52,-1
 708 1163 l 1,53,-1
 718 1114 l 1,24,-1
EndSplineSet
EndChar

StartChar: uni00B3
Encoding: 179 179 116
Width: 1184
GlyphClass: 2
Flags: HMW
LayerCount: 2
Fore
SplineSet
746 1370 m 2,0,1
 847 1370 847 1370 929 1340 c 128,-1,2
 1011 1310 1011 1310 1068.5 1258 c 128,-1,3
 1126 1206 1126 1206 1157 1136.5 c 128,-1,4
 1188 1067 1188 1067 1188 989 c 2,5,-1
 1188 381 l 2,6,7
 1188 303 1188 303 1157 233.5 c 128,-1,8
 1126 164 1126 164 1068.5 112 c 128,-1,9
 1011 60 1011 60 929 30 c 128,-1,10
 847 0 847 0 746 0 c 2,11,-1
 438 0 l 2,12,13
 337 0 337 0 255 30 c 128,-1,14
 173 60 173 60 115.5 112 c 128,-1,15
 58 164 58 164 27 233.5 c 128,-1,16
 -4 303 -4 303 -4 381 c 2,17,-1
 -4 989 l 2,18,19
 -4 1067 -4 1067 27 1136.5 c 128,-1,20
 58 1206 58 1206 115.5 1258 c 128,-1,21
 173 1310 173 1310 255 1340 c 128,-1,22
 337 1370 337 1370 438 1370 c 2,23,-1
 746 1370 l 2,0,1
768 1073 m 1,24,-1
 703 1063 l 1,25,-1
 571 1063 l 1,26,-1
 571 975 l 1,27,-1
 705 975 l 1,28,-1
 772 967 l 1,29,-1
 782 911 l 1,30,-1
 768 858 l 1,31,-1
 703 848 l 1,32,-1
 592 848 l 1,33,-1
 531 858 l 1,34,-1
 514 913 l 1,35,-1
 406 903 l 1,36,-1
 424 817 l 1,37,-1
 488 754 l 1,38,-1
 590 741 l 1,39,-1
 709 741 l 1,40,-1
 811 754 l 1,41,-1
 875 817 l 1,42,-1
 889 901 l 1,43,-1
 889 920 l 1,44,-1
 875 999 l 1,45,-1
 850 1022 l 1,46,-1
 875 1047 l 1,47,-1
 889 1120 l 1,48,-1
 889 1139 l 1,49,-1
 875 1202 l 1,50,-1
 811 1266 l 1,51,-1
 709 1280 l 1,52,-1
 590 1280 l 1,53,-1
 488 1266 l 1,54,-1
 424 1202 l 1,55,-1
 406 1135 l 1,56,-1
 514 1124 l 1,57,-1
 526 1163 l 1,58,-1
 596 1174 l 1,59,-1
 703 1174 l 1,60,-1
 772 1163 l 1,61,-1
 782 1124 l 1,62,-1
 768 1073 l 1,24,-1
EndSplineSet
EndChar

StartChar: acute
Encoding: 180 180 117
Width: 631
GlyphClass: 2
Flags: HMW
LayerCount: 2
Fore
SplineSet
117 23 m 1,0,1
 94 33 94 33 72 49.5 c 128,-1,2
 50 66 50 66 33 88 c 128,-1,3
 16 110 16 110 6 136.5 c 128,-1,4
 -4 163 -4 163 -4 193 c 0,5,6
 -4 203 -4 203 -1 224 c 128,-1,7
 2 245 2 245 13 287.5 c 128,-1,8
 24 330 24 330 44.5 399 c 128,-1,9
 65 468 65 468 100 575 c 1,10,11
 112 606 112 606 135 628 c 128,-1,12
 158 650 158 650 189.5 663 c 128,-1,13
 221 676 221 676 259.5 682 c 128,-1,14
 298 688 298 688 340 688 c 0,15,16
 396 688 396 688 449 675 c 128,-1,17
 502 662 502 662 543.5 636.5 c 128,-1,18
 585 611 585 611 610 573.5 c 128,-1,19
 635 536 635 536 635 487 c 1,20,21
 634 459 634 459 624.5 425.5 c 128,-1,22
 615 392 615 392 592 354 c 2,23,-1
 434 84 l 2,24,25
 422 64 422 64 412 49 c 128,-1,26
 402 34 402 34 391 23 c 1,27,-1
 117 23 l 1,0,1
416 514 m 1,28,-1
 295 514 l 1,29,-1
 195 180 l 1,30,-1
 264 180 l 1,31,-1
 416 514 l 1,28,-1
EndSplineSet
EndChar

StartChar: uni00B5
Encoding: 181 181 118
Width: 1184
GlyphClass: 2
Flags: HMW
LayerCount: 2
Fore
SplineSet
746 1370 m 2,0,1
 847 1370 847 1370 929 1340 c 128,-1,2
 1011 1310 1011 1310 1068.5 1258 c 128,-1,3
 1126 1206 1126 1206 1157 1136.5 c 128,-1,4
 1188 1067 1188 1067 1188 989 c 2,5,-1
 1188 381 l 2,6,7
 1188 303 1188 303 1157 233.5 c 128,-1,8
 1126 164 1126 164 1068.5 112 c 128,-1,9
 1011 60 1011 60 929 30 c 128,-1,10
 847 0 847 0 746 0 c 2,11,-1
 438 0 l 2,12,13
 337 0 337 0 255 30 c 128,-1,14
 173 60 173 60 115.5 112 c 128,-1,15
 58 164 58 164 27 233.5 c 128,-1,16
 -4 303 -4 303 -4 381 c 2,17,-1
 -4 989 l 2,18,19
 -4 1067 -4 1067 27 1136.5 c 128,-1,20
 58 1206 58 1206 115.5 1258 c 128,-1,21
 173 1310 173 1310 255 1340 c 128,-1,22
 337 1370 337 1370 438 1370 c 2,23,-1
 746 1370 l 2,0,1
920 1278 m 1,24,-1
 813 1278 l 1,25,-1
 813 627 l 1,26,27
 811 614 811 614 806.5 599 c 128,-1,28
 802 584 802 584 799 571 c 1,29,-1
 733 561 l 1,30,-1
 477 561 l 1,31,-1
 412 571 l 1,32,-1
 397 631 l 1,33,-1
 397 1278 l 1,34,-1
 293 1278 l 1,35,-1
 293 322 l 1,36,-1
 397 322 l 1,37,-1
 397 467 l 1,38,-1
 471 455 l 1,39,-1
 739 455 l 1,40,-1
 842 467 l 1,41,-1
 905 530 l 1,42,-1
 920 616 l 1,43,-1
 920 1278 l 1,24,-1
EndSplineSet
EndChar

StartChar: paragraph
Encoding: 182 182 119
Width: 1184
GlyphClass: 2
Flags: HMW
LayerCount: 2
Fore
SplineSet
318 983 m 1,0,-1
 332 901 l 1,1,-1
 383 850 l 1,2,-1
 479 838 l 1,3,-1
 635 838 l 1,4,-1
 635 475 l 1,5,-1
 698 475 l 1,6,-1
 698 1192 l 1,7,-1
 795 1192 l 1,8,-1
 795 475 l 1,9,-1
 858 475 l 1,10,-1
 858 1260 l 1,11,-1
 479 1260 l 1,12,-1
 383 1245 l 1,13,-1
 332 1194 l 1,14,-1
 318 1114 l 1,15,-1
 318 983 l 1,0,-1
746 1370 m 2,16,17
 847 1370 847 1370 929 1340 c 128,-1,18
 1011 1310 1011 1310 1068.5 1258 c 128,-1,19
 1126 1206 1126 1206 1157 1136.5 c 128,-1,20
 1188 1067 1188 1067 1188 989 c 2,21,-1
 1188 381 l 2,22,23
 1188 303 1188 303 1157 233.5 c 128,-1,24
 1126 164 1126 164 1068.5 112 c 128,-1,25
 1011 60 1011 60 929 30 c 128,-1,26
 847 0 847 0 746 0 c 2,27,-1
 438 0 l 2,28,29
 337 0 337 0 255 30 c 128,-1,30
 173 60 173 60 115.5 112 c 128,-1,31
 58 164 58 164 27 233.5 c 128,-1,32
 -4 303 -4 303 -4 381 c 2,33,-1
 -4 989 l 2,34,35
 -4 1067 -4 1067 27 1136.5 c 128,-1,36
 58 1206 58 1206 115.5 1258 c 128,-1,37
 173 1310 173 1310 255 1340 c 128,-1,38
 337 1370 337 1370 438 1370 c 2,39,-1
 746 1370 l 2,16,17
EndSplineSet
EndChar

StartChar: periodcentered
Encoding: 183 183 120
Width: 877
GlyphClass: 2
Flags: HMW
LayerCount: 2
Fore
SplineSet
504 897 m 1,0,-1
 504 1026 l 1,1,-1
 373 1026 l 1,2,-1
 373 897 l 1,3,-1
 504 897 l 1,0,-1
438 0 m 0,4,5
 337 0 337 0 255 30 c 128,-1,6
 173 60 173 60 115.5 112 c 128,-1,7
 58 164 58 164 27 233.5 c 128,-1,8
 -4 303 -4 303 -4 381 c 2,9,-1
 -4 989 l 2,10,11
 -4 1067 -4 1067 27 1136.5 c 128,-1,12
 58 1206 58 1206 115.5 1258 c 128,-1,13
 173 1310 173 1310 255 1340 c 128,-1,14
 337 1370 337 1370 438 1370 c 0,15,16
 540 1370 540 1370 621.5 1340 c 128,-1,17
 703 1310 703 1310 761 1258 c 128,-1,18
 819 1206 819 1206 850 1136.5 c 128,-1,19
 881 1067 881 1067 881 989 c 2,20,-1
 881 381 l 2,21,22
 881 303 881 303 850 233.5 c 128,-1,23
 819 164 819 164 761 112 c 128,-1,24
 703 60 703 60 621.5 30 c 128,-1,25
 540 0 540 0 438 0 c 0,4,5
EndSplineSet
EndChar

StartChar: cedilla
Encoding: 184 184 121
Width: 207
GlyphClass: 2
Flags: HMW
LayerCount: 2
Fore
SplineSet
100 -215 m 1,0,-1
 211 -225 l 1,1,-1
 211 -315 l 1,2,-1
 68 -303 l 1,3,-1
 8 -244 l 1,4,-1
 -4 -166 l 1,5,-1
 -4 -147 l 1,6,-1
 8 -90 l 1,7,-1
 66 -33 l 1,8,-1
 137 -33 l 1,9,-1
 137 6 l 1,10,-1
 207 6 l 1,11,-1
 207 -111 l 1,12,-1
 96 -121 l 1,13,-1
 86 -156 l 1,14,-1
 100 -215 l 1,0,-1
EndSplineSet
EndChar

StartChar: uni00B9
Encoding: 185 185 122
Width: 1184
GlyphClass: 2
Flags: HMW
LayerCount: 2
Fore
SplineSet
674 1282 m 1,0,-1
 584 1282 l 1,1,-1
 438 1231 l 1,2,-1
 438 1124 l 1,3,-1
 567 1169 l 1,4,-1
 567 741 l 1,5,-1
 674 741 l 1,6,-1
 674 1282 l 1,0,-1
746 1370 m 2,7,8
 847 1370 847 1370 929 1340 c 128,-1,9
 1011 1310 1011 1310 1068.5 1258 c 128,-1,10
 1126 1206 1126 1206 1157 1136.5 c 128,-1,11
 1188 1067 1188 1067 1188 989 c 2,12,-1
 1188 381 l 2,13,14
 1188 303 1188 303 1157 233.5 c 128,-1,15
 1126 164 1126 164 1068.5 112 c 128,-1,16
 1011 60 1011 60 929 30 c 128,-1,17
 847 0 847 0 746 0 c 2,18,-1
 438 0 l 2,19,20
 337 0 337 0 255 30 c 128,-1,21
 173 60 173 60 115.5 112 c 128,-1,22
 58 164 58 164 27 233.5 c 128,-1,23
 -4 303 -4 303 -4 381 c 2,24,-1
 -4 989 l 2,25,26
 -4 1067 -4 1067 27 1136.5 c 128,-1,27
 58 1206 58 1206 115.5 1258 c 128,-1,28
 173 1310 173 1310 255 1340 c 128,-1,29
 337 1370 337 1370 438 1370 c 2,30,-1
 746 1370 l 2,7,8
EndSplineSet
EndChar

StartChar: ordmasculine
Encoding: 186 186 123
Width: 1184
GlyphClass: 2
Flags: HMW
LayerCount: 2
Fore
SplineSet
746 1370 m 2,0,1
 847 1370 847 1370 929 1340 c 128,-1,2
 1011 1310 1011 1310 1068.5 1258 c 128,-1,3
 1126 1206 1126 1206 1157 1136.5 c 128,-1,4
 1188 1067 1188 1067 1188 989 c 2,5,-1
 1188 381 l 2,6,7
 1188 303 1188 303 1157 233.5 c 128,-1,8
 1126 164 1126 164 1068.5 112 c 128,-1,9
 1011 60 1011 60 929 30 c 128,-1,10
 847 0 847 0 746 0 c 2,11,-1
 438 0 l 2,12,13
 337 0 337 0 255 30 c 128,-1,14
 173 60 173 60 115.5 112 c 128,-1,15
 58 164 58 164 27 233.5 c 128,-1,16
 -4 303 -4 303 -4 381 c 2,17,-1
 -4 989 l 2,18,19
 -4 1067 -4 1067 27 1136.5 c 128,-1,20
 58 1206 58 1206 115.5 1258 c 128,-1,21
 173 1310 173 1310 255 1340 c 128,-1,22
 337 1370 337 1370 438 1370 c 2,23,-1
 746 1370 l 2,0,1
930 1118 m 1,24,-1
 916 1202 l 1,25,-1
 852 1266 l 1,26,-1
 750 1280 l 1,27,-1
 543 1280 l 1,28,-1
 440 1266 l 1,29,-1
 377 1202 l 1,30,-1
 365 1118 l 1,31,-1
 365 758 l 1,32,-1
 377 672 l 1,33,-1
 442 608 l 1,34,-1
 543 596 l 1,35,-1
 750 596 l 1,36,-1
 852 608 l 1,37,-1
 916 672 l 1,38,-1
 930 758 l 1,39,-1
 930 1118 l 1,24,-1
809 713 m 1,40,-1
 744 702 l 1,41,-1
 549 702 l 1,42,-1
 483 713 l 1,43,-1
 469 772 l 1,44,-1
 469 1108 l 1,45,-1
 479 1163 l 1,46,-1
 549 1174 l 1,47,-1
 744 1174 l 1,48,-1
 813 1163 l 1,49,-1
 823 1104 l 1,50,-1
 823 768 l 1,51,-1
 809 713 l 1,40,-1
EndSplineSet
EndChar

StartChar: guillemotright
Encoding: 187 187 124
Width: 1184
GlyphClass: 2
Flags: HMW
LayerCount: 2
Fore
SplineSet
662 784 m 1,0,-1
 662 811 l 1,1,-1
 377 1188 l 1,2,-1
 330 1141 l 1,3,-1
 588 797 l 1,4,-1
 330 453 l 1,5,-1
 377 408 l 1,6,-1
 662 784 l 1,0,-1
887 784 m 1,7,-1
 887 811 l 1,8,-1
 623 1188 l 1,9,-1
 576 1141 l 1,10,-1
 813 797 l 1,11,-1
 576 453 l 1,12,-1
 623 408 l 1,13,-1
 887 784 l 1,7,-1
746 1370 m 2,14,15
 847 1370 847 1370 929 1340 c 128,-1,16
 1011 1310 1011 1310 1068.5 1258 c 128,-1,17
 1126 1206 1126 1206 1157 1136.5 c 128,-1,18
 1188 1067 1188 1067 1188 989 c 2,19,-1
 1188 381 l 2,20,21
 1188 303 1188 303 1157 233.5 c 128,-1,22
 1126 164 1126 164 1068.5 112 c 128,-1,23
 1011 60 1011 60 929 30 c 128,-1,24
 847 0 847 0 746 0 c 2,25,-1
 438 0 l 2,26,27
 337 0 337 0 255 30 c 128,-1,28
 173 60 173 60 115.5 112 c 128,-1,29
 58 164 58 164 27 233.5 c 128,-1,30
 -4 303 -4 303 -4 381 c 2,31,-1
 -4 989 l 2,32,33
 -4 1067 -4 1067 27 1136.5 c 128,-1,34
 58 1206 58 1206 115.5 1258 c 128,-1,35
 173 1310 173 1310 255 1340 c 128,-1,36
 337 1370 337 1370 438 1370 c 2,37,-1
 746 1370 l 2,14,15
EndSplineSet
EndChar

StartChar: onequarter
Encoding: 188 188 125
Width: 1184
GlyphClass: 2
Flags: HMW
LayerCount: 2
Fore
SplineSet
574 1280 m 1,0,-1
 373 453 l 1,1,-1
 481 453 l 1,2,-1
 682 1280 l 1,3,-1
 574 1280 l 1,0,-1
389 1282 m 1,4,-1
 299 1282 l 1,5,-1
 154 1231 l 1,6,-1
 154 1124 l 1,7,-1
 283 1169 l 1,8,-1
 283 741 l 1,9,-1
 389 741 l 1,10,-1
 389 1282 l 1,4,-1
746 1370 m 2,11,12
 847 1370 847 1370 929 1340 c 128,-1,13
 1011 1310 1011 1310 1068.5 1258 c 128,-1,14
 1126 1206 1126 1206 1157 1136.5 c 128,-1,15
 1188 1067 1188 1067 1188 989 c 2,16,-1
 1188 381 l 2,17,18
 1188 303 1188 303 1157 233.5 c 128,-1,19
 1126 164 1126 164 1068.5 112 c 128,-1,20
 1011 60 1011 60 929 30 c 128,-1,21
 847 0 847 0 746 0 c 2,22,-1
 438 0 l 2,23,24
 337 0 337 0 255 30 c 128,-1,25
 173 60 173 60 115.5 112 c 128,-1,26
 58 164 58 164 27 233.5 c 128,-1,27
 -4 303 -4 303 -4 381 c 2,28,-1
 -4 989 l 2,29,30
 -4 1067 -4 1067 27 1136.5 c 128,-1,31
 58 1206 58 1206 115.5 1258 c 128,-1,32
 173 1310 173 1310 255 1340 c 128,-1,33
 337 1370 337 1370 438 1370 c 2,34,-1
 746 1370 l 2,11,12
820 510 m 1,35,-1
 892 510 l 1,36,-1
 892 356 l 1,37,-1
 998 356 l 1,38,-1
 998 510 l 1,39,-1
 1122 510 l 1,40,-1
 1122 617 l 1,41,-1
 998 617 l 1,42,-1
 998 930 l 1,43,-1
 892 930 l 1,44,-1
 892 615 l 1,45,-1
 826 615 l 1,46,-1
 756 625 l 1,47,-1
 746 684 l 1,48,-1
 746 930 l 1,49,-1
 640 930 l 1,50,-1
 640 670 l 1,51,-1
 654 586 l 1,52,-1
 717 522 l 1,53,-1
 820 510 l 1,35,-1
EndSplineSet
EndChar

StartChar: onehalf
Encoding: 189 189 126
Width: 1184
GlyphClass: 2
Flags: HMW
LayerCount: 2
Fore
SplineSet
971 827 m 1,0,-1
 957 786 l 1,1,-1
 821 770 l 1,2,-1
 705 737 l 1,3,-1
 660 692 l 1,4,-1
 647 610 l 1,5,-1
 647 518 l 1,6,-1
 711 455 l 1,7,-1
 1034 455 l 1,8,-1
 1034 559 l 1,9,-1
 752 559 l 1,10,-1
 752 598 l 1,11,-1
 760 653 l 1,12,-1
 901 670 l 1,13,-1
 1018 702 l 1,14,-1
 1063 745 l 1,15,-1
 1077 813 l 1,16,-1
 1077 842 l 1,17,-1
 1063 915 l 1,18,-1
 1000 979 l 1,19,-1
 897 993 l 1,20,-1
 825 993 l 1,21,-1
 723 979 l 1,22,-1
 660 915 l 1,23,-1
 643 829 l 1,24,-1
 750 819 l 1,25,-1
 762 877 l 1,26,-1
 832 887 l 1,27,-1
 891 887 l 1,28,-1
 961 877 l 1,29,-1
 971 827 l 1,0,-1
574 1280 m 1,30,-1
 373 453 l 1,31,-1
 481 453 l 1,32,-1
 682 1280 l 1,33,-1
 574 1280 l 1,30,-1
389 1282 m 1,34,-1
 299 1282 l 1,35,-1
 154 1231 l 1,36,-1
 154 1124 l 1,37,-1
 283 1169 l 1,38,-1
 283 741 l 1,39,-1
 389 741 l 1,40,-1
 389 1282 l 1,34,-1
746 1370 m 2,41,42
 847 1370 847 1370 929 1340 c 128,-1,43
 1011 1310 1011 1310 1068.5 1258 c 128,-1,44
 1126 1206 1126 1206 1157 1136.5 c 128,-1,45
 1188 1067 1188 1067 1188 989 c 2,46,-1
 1188 381 l 2,47,48
 1188 303 1188 303 1157 233.5 c 128,-1,49
 1126 164 1126 164 1068.5 112 c 128,-1,50
 1011 60 1011 60 929 30 c 128,-1,51
 847 0 847 0 746 0 c 2,52,-1
 438 0 l 2,53,54
 337 0 337 0 255 30 c 128,-1,55
 173 60 173 60 115.5 112 c 128,-1,56
 58 164 58 164 27 233.5 c 128,-1,57
 -4 303 -4 303 -4 381 c 2,58,-1
 -4 989 l 2,59,60
 -4 1067 -4 1067 27 1136.5 c 128,-1,61
 58 1206 58 1206 115.5 1258 c 128,-1,62
 173 1310 173 1310 255 1340 c 128,-1,63
 337 1370 337 1370 438 1370 c 2,64,-1
 746 1370 l 2,41,42
EndSplineSet
EndChar

StartChar: threequarters
Encoding: 190 190 127
Width: 1184
GlyphClass: 2
Flags: HMW
LayerCount: 2
Fore
SplineSet
574 1280 m 1,0,-1
 373 453 l 1,1,-1
 481 453 l 1,2,-1
 682 1280 l 1,3,-1
 574 1280 l 1,0,-1
389 1282 m 1,4,-1
 299 1282 l 1,5,-1
 154 1231 l 1,6,-1
 154 1124 l 1,7,-1
 283 1169 l 1,8,-1
 283 741 l 1,9,-1
 389 741 l 1,10,-1
 389 1282 l 1,4,-1
746 1370 m 2,11,12
 847 1370 847 1370 929 1340 c 128,-1,13
 1011 1310 1011 1310 1068.5 1258 c 128,-1,14
 1126 1206 1126 1206 1157 1136.5 c 128,-1,15
 1188 1067 1188 1067 1188 989 c 2,16,-1
 1188 381 l 2,17,18
 1188 303 1188 303 1157 233.5 c 128,-1,19
 1126 164 1126 164 1068.5 112 c 128,-1,20
 1011 60 1011 60 929 30 c 128,-1,21
 847 0 847 0 746 0 c 2,22,-1
 438 0 l 2,23,24
 337 0 337 0 255 30 c 128,-1,25
 173 60 173 60 115.5 112 c 128,-1,26
 58 164 58 164 27 233.5 c 128,-1,27
 -4 303 -4 303 -4 381 c 2,28,-1
 -4 989 l 2,29,30
 -4 1067 -4 1067 27 1136.5 c 128,-1,31
 58 1206 58 1206 115.5 1258 c 128,-1,32
 173 1310 173 1310 255 1340 c 128,-1,33
 337 1370 337 1370 438 1370 c 2,34,-1
 746 1370 l 2,11,12
991 782 m 1,35,-1
 926 772 l 1,36,-1
 795 772 l 1,37,-1
 795 684 l 1,38,-1
 928 684 l 1,39,-1
 995 676 l 1,40,-1
 1006 621 l 1,41,-1
 991 567 l 1,42,-1
 926 557 l 1,43,-1
 815 557 l 1,44,-1
 754 567 l 1,45,-1
 737 623 l 1,46,-1
 629 612 l 1,47,-1
 647 526 l 1,48,-1
 711 463 l 1,49,-1
 813 451 l 1,50,-1
 932 451 l 1,51,-1
 1034 463 l 1,52,-1
 1098 526 l 1,53,-1
 1112 610 l 1,54,-1
 1112 629 l 1,55,-1
 1098 709 l 1,56,-1
 1073 731 l 1,57,-1
 1098 756 l 1,58,-1
 1112 829 l 1,59,-1
 1112 848 l 1,60,-1
 1098 911 l 1,61,-1
 1034 975 l 1,62,-1
 932 989 l 1,63,-1
 813 989 l 1,64,-1
 711 975 l 1,65,-1
 647 911 l 1,66,-1
 629 844 l 1,67,-1
 737 834 l 1,68,-1
 750 872 l 1,69,-1
 819 883 l 1,70,-1
 926 883 l 1,71,-1
 995 872 l 1,72,-1
 1006 834 l 1,73,-1
 991 782 l 1,35,-1
EndSplineSet
EndChar

StartChar: questiondown
Encoding: 191 191 128
Width: 1184
GlyphClass: 2
Flags: HMW
LayerCount: 2
Fore
SplineSet
721 1182 m 1,0,-1
 721 1284 l 1,1,-1
 615 1284 l 1,2,-1
 615 1182 l 1,3,-1
 721 1182 l 1,0,-1
438 0 m 2,4,5
 337 0 337 0 255 30 c 128,-1,6
 173 60 173 60 115.5 112 c 128,-1,7
 58 164 58 164 27 233.5 c 128,-1,8
 -4 303 -4 303 -4 381 c 2,9,-1
 -4 989 l 2,10,11
 -4 1067 -4 1067 27 1136.5 c 128,-1,12
 58 1206 58 1206 115.5 1258 c 128,-1,13
 173 1310 173 1310 255 1340 c 128,-1,14
 337 1370 337 1370 438 1370 c 2,15,-1
 746 1370 l 2,16,17
 847 1370 847 1370 929 1340 c 128,-1,18
 1011 1310 1011 1310 1068.5 1258 c 128,-1,19
 1126 1206 1126 1206 1157 1136.5 c 128,-1,20
 1188 1067 1188 1067 1188 989 c 2,21,-1
 1188 381 l 2,22,23
 1188 303 1188 303 1157 233.5 c 128,-1,24
 1126 164 1126 164 1068.5 112 c 128,-1,25
 1011 60 1011 60 929 30 c 128,-1,26
 847 0 847 0 746 0 c 2,27,-1
 438 0 l 2,4,5
711 929 m 1,28,-1
 711 1125 l 1,29,-1
 625 1125 l 1,30,-1
 625 960 l 1,31,-1
 540 960 l 1,32,-1
 441 946 l 1,33,-1
 384 889 l 1,34,-1
 369 807 l 1,35,-1
 369 631 l 1,36,-1
 384 549 l 1,37,-1
 441 492 l 1,38,-1
 539 477 l 1,39,-1
 744 477 l 1,40,-1
 842 492 l 1,41,-1
 899 549 l 1,42,-1
 916 642 l 1,43,-1
 829 650 l 1,44,45
 826 634 826 634 823.5 612.5 c 128,-1,46
 821 591 821 591 818 574 c 1,47,-1
 542 563 l 1,48,-1
 466 574 l 1,49,-1
 455 641 l 1,50,-1
 455 797 l 1,51,-1
 466 864 l 1,52,-1
 669 875 l 1,53,-1
 711 929 l 1,28,-1
EndSplineSet
EndChar

StartChar: AE
Encoding: 198 198 135
Width: 1184
GlyphClass: 2
Flags: HMW
LayerCount: 2
Fore
SplineSet
746 1370 m 2,0,1
 847 1370 847 1370 929 1340 c 128,-1,2
 1011 1310 1011 1310 1068.5 1258 c 128,-1,3
 1126 1206 1126 1206 1157 1136.5 c 128,-1,4
 1188 1067 1188 1067 1188 989 c 2,5,-1
 1188 381 l 2,6,7
 1188 303 1188 303 1157 233.5 c 128,-1,8
 1126 164 1126 164 1068.5 112 c 128,-1,9
 1011 60 1011 60 929 30 c 128,-1,10
 847 0 847 0 746 0 c 2,11,-1
 438 0 l 2,12,13
 337 0 337 0 255 30 c 128,-1,14
 173 60 173 60 115.5 112 c 128,-1,15
 58 164 58 164 27 233.5 c 128,-1,16
 -4 303 -4 303 -4 381 c 2,17,-1
 -4 989 l 2,18,19
 -4 1067 -4 1067 27 1136.5 c 128,-1,20
 58 1206 58 1206 115.5 1258 c 128,-1,21
 173 1310 173 1310 255 1340 c 128,-1,22
 337 1370 337 1370 438 1370 c 2,23,-1
 746 1370 l 2,0,1
944 563 m 1,24,-1
 682 563 l 1,25,-1
 682 819 l 1,26,-1
 944 819 l 1,27,-1
 944 924 l 1,28,-1
 682 924 l 1,29,-1
 682 1176 l 1,30,-1
 944 1176 l 1,31,-1
 944 1282 l 1,32,-1
 524 1282 l 1,33,-1
 391 1262 l 1,34,-1
 330 1200 l 1,35,-1
 248 459 l 1,36,-1
 354 459 l 1,37,-1
 371 590 l 1,38,-1
 576 590 l 1,39,-1
 576 459 l 1,40,-1
 944 459 l 1,41,-1
 944 563 l 1,24,-1
383 696 m 1,42,-1
 432 1161 l 1,43,44
 460 1164 460 1164 480.5 1168 c 128,-1,45
 501 1172 501 1172 528 1176 c 1,46,-1
 576 1176 l 1,47,-1
 576 696 l 1,48,-1
 383 696 l 1,42,-1
EndSplineSet
EndChar

StartChar: Ccedilla
Encoding: 199 199 136
Width: 1184
GlyphClass: 2
Flags: HMW
LayerCount: 2
Fore
SplineSet
746 1370 m 2,0,1
 847 1370 847 1370 929 1340 c 128,-1,2
 1011 1310 1011 1310 1068.5 1258 c 128,-1,3
 1126 1206 1126 1206 1157 1136.5 c 128,-1,4
 1188 1067 1188 1067 1188 989 c 2,5,-1
 1188 381 l 2,6,7
 1188 303 1188 303 1157 233.5 c 128,-1,8
 1126 164 1126 164 1068.5 112 c 128,-1,9
 1011 60 1011 60 929 30 c 128,-1,10
 847 0 847 0 746 0 c 2,11,-1
 438 0 l 2,12,13
 337 0 337 0 255 30 c 128,-1,14
 173 60 173 60 115.5 112 c 128,-1,15
 58 164 58 164 27 233.5 c 128,-1,16
 -4 303 -4 303 -4 381 c 2,17,-1
 -4 989 l 2,18,19
 -4 1067 -4 1067 27 1136.5 c 128,-1,20
 58 1206 58 1206 115.5 1258 c 128,-1,21
 173 1310 173 1310 255 1340 c 128,-1,22
 337 1370 337 1370 438 1370 c 2,23,-1
 746 1370 l 2,0,1
733 1280 m 1,24,-1
 492 1280 l 1,25,-1
 389 1268 l 1,26,-1
 326 1204 l 1,27,-1
 311 1120 l 1,28,-1
 311 612 l 1,29,-1
 326 528 l 1,30,-1
 391 465 l 1,31,-1
 492 453 l 1,32,-1
 592 453 l 1,33,-1
 592 418 l 1,34,-1
 521 418 l 1,35,-1
 463 357 l 1,36,-1
 451 300 l 1,37,-1
 451 281 l 1,38,-1
 463 203 l 1,39,-1
 523 144 l 1,40,-1
 666 132 l 1,41,-1
 666 222 l 1,42,-1
 555 232 l 1,43,-1
 541 291 l 1,44,-1
 551 326 l 1,45,-1
 662 336 l 1,46,-1
 662 453 l 1,47,-1
 733 453 l 1,48,-1
 850 467 l 1,49,-1
 825 575 l 1,50,-1
 731 559 l 1,51,-1
 498 559 l 1,52,-1
 432 569 l 1,53,-1
 418 629 l 1,54,-1
 418 1110 l 1,55,-1
 428 1165 l 1,56,-1
 498 1176 l 1,57,-1
 727 1176 l 1,58,-1
 830 1159 l 1,59,-1
 850 1266 l 1,60,-1
 733 1280 l 1,24,-1
EndSplineSet
EndChar

StartChar: Eth
Encoding: 208 208 145
Width: 1184
GlyphClass: 2
Flags: HMW
LayerCount: 2
Fore
SplineSet
954 1118 m 1,0,-1
 940 1202 l 1,1,-1
 877 1266 l 1,2,-1
 774 1280 l 1,3,-1
 328 1280 l 1,4,-1
 328 907 l 1,5,-1
 256 907 l 1,6,-1
 256 842 l 1,7,-1
 328 842 l 1,8,-1
 328 453 l 1,9,-1
 774 453 l 1,10,-1
 877 465 l 1,11,-1
 940 528 l 1,12,-1
 954 614 l 1,13,-1
 954 1118 l 1,0,-1
834 569 m 1,14,-1
 768 559 l 1,15,-1
 432 559 l 1,16,-1
 432 842 l 1,17,-1
 516 842 l 1,18,-1
 516 907 l 1,19,-1
 432 907 l 1,20,-1
 432 1174 l 1,21,-1
 768 1174 l 1,22,-1
 838 1163 l 1,23,-1
 848 1104 l 1,24,-1
 848 625 l 1,25,-1
 834 569 l 1,14,-1
746 1370 m 2,26,27
 847 1370 847 1370 929 1340 c 128,-1,28
 1011 1310 1011 1310 1068.5 1258 c 128,-1,29
 1126 1206 1126 1206 1157 1136.5 c 128,-1,30
 1188 1067 1188 1067 1188 989 c 2,31,-1
 1188 381 l 2,32,33
 1188 303 1188 303 1157 233.5 c 128,-1,34
 1126 164 1126 164 1068.5 112 c 128,-1,35
 1011 60 1011 60 929 30 c 128,-1,36
 847 0 847 0 746 0 c 2,37,-1
 438 0 l 2,38,39
 337 0 337 0 255 30 c 128,-1,40
 173 60 173 60 115.5 112 c 128,-1,41
 58 164 58 164 27 233.5 c 128,-1,42
 -4 303 -4 303 -4 381 c 2,43,-1
 -4 989 l 2,44,45
 -4 1067 -4 1067 27 1136.5 c 128,-1,46
 58 1206 58 1206 115.5 1258 c 128,-1,47
 173 1310 173 1310 255 1340 c 128,-1,48
 337 1370 337 1370 438 1370 c 2,49,-1
 746 1370 l 2,26,27
EndSplineSet
EndChar

StartChar: multiply
Encoding: 215 215 152
Width: 1184
GlyphClass: 2
Flags: HMW
LayerCount: 2
Fore
SplineSet
746 1370 m 2,0,1
 847 1370 847 1370 929 1340 c 128,-1,2
 1011 1310 1011 1310 1068.5 1258 c 128,-1,3
 1126 1206 1126 1206 1157 1136.5 c 128,-1,4
 1188 1067 1188 1067 1188 989 c 2,5,-1
 1188 381 l 2,6,7
 1188 303 1188 303 1157 233.5 c 128,-1,8
 1126 164 1126 164 1068.5 112 c 128,-1,9
 1011 60 1011 60 929 30 c 128,-1,10
 847 0 847 0 746 0 c 2,11,-1
 438 0 l 2,12,13
 337 0 337 0 255 30 c 128,-1,14
 173 60 173 60 115.5 112 c 128,-1,15
 58 164 58 164 27 233.5 c 128,-1,16
 -4 303 -4 303 -4 381 c 2,17,-1
 -4 989 l 2,18,19
 -4 1067 -4 1067 27 1136.5 c 128,-1,20
 58 1206 58 1206 115.5 1258 c 128,-1,21
 173 1310 173 1310 255 1340 c 128,-1,22
 337 1370 337 1370 438 1370 c 2,23,-1
 746 1370 l 2,0,1
831 739 m 1,24,-1
 692 879 l 1,25,-1
 831 1018 l 1,26,-1
 772 1077 l 1,27,-1
 633 938 l 1,28,-1
 496 1075 l 1,29,-1
 437 1014 l 1,30,-1
 574 877 l 1,31,-1
 437 739 l 1,32,-1
 494 680 l 1,33,-1
 633 818 l 1,34,-1
 772 678 l 1,35,-1
 831 739 l 1,24,-1
EndSplineSet
EndChar

StartChar: Oslash
Encoding: 216 216 153
Width: 1184
GlyphClass: 2
Flags: HMW
LayerCount: 2
Fore
SplineSet
941 1120 m 1,0,-1
 927 1203 l 1,1,-1
 864 1267 l 1,2,-1
 761 1281 l 1,3,-1
 493 1281 l 1,4,-1
 390 1267 l 1,5,-1
 327 1203 l 1,6,-1
 313 1120 l 1,7,-1
 313 620 l 1,8,-1
 327 534 l 1,9,-1
 392 470 l 1,10,-1
 493 458 l 1,11,-1
 761 458 l 1,12,-1
 864 470 l 1,13,-1
 927 534 l 1,14,-1
 941 620 l 1,15,-1
 941 1120 l 1,0,-1
419 1109 m 1,16,-1
 429 1165 l 1,17,-1
 499 1175 l 1,18,-1
 757 1175 l 2,19,20
 760 1175 760 1175 765 1174 c 128,-1,21
 770 1173 770 1173 773 1173 c 1,22,-1
 419 640 l 1,23,-1
 419 1109 l 1,16,-1
821 575 m 1,24,-1
 755 565 l 1,25,-1
 495 565 l 2,26,27
 492 565 492 565 489.5 566 c 128,-1,28
 487 567 487 567 485 567 c 1,29,-1
 835 1109 l 1,30,-1
 835 630 l 1,31,-1
 821 575 l 1,24,-1
746 1370 m 2,32,33
 847 1370 847 1370 929 1340 c 128,-1,34
 1011 1310 1011 1310 1068.5 1258 c 128,-1,35
 1126 1206 1126 1206 1157 1136.5 c 128,-1,36
 1188 1067 1188 1067 1188 989 c 2,37,-1
 1188 381 l 2,38,39
 1188 303 1188 303 1157 233.5 c 128,-1,40
 1126 164 1126 164 1068.5 112 c 128,-1,41
 1011 60 1011 60 929 30 c 128,-1,42
 847 0 847 0 746 0 c 2,43,-1
 438 0 l 2,44,45
 337 0 337 0 255 30 c 128,-1,46
 173 60 173 60 115.5 112 c 128,-1,47
 58 164 58 164 27 233.5 c 128,-1,48
 -4 303 -4 303 -4 381 c 2,49,-1
 -4 989 l 2,50,51
 -4 1067 -4 1067 27 1136.5 c 128,-1,52
 58 1206 58 1206 115.5 1258 c 128,-1,53
 173 1310 173 1310 255 1340 c 128,-1,54
 337 1370 337 1370 438 1370 c 2,55,-1
 746 1370 l 2,32,33
EndSplineSet
EndChar

StartChar: germandbls
Encoding: 223 223 160
Width: 1184
GlyphClass: 2
Flags: HMW
LayerCount: 2
Fore
SplineSet
946 766 m 1,0,-1
 911 866 l 1,1,2
 906 867 906 867 894 872.5 c 128,-1,3
 882 878 882 878 868 884.5 c 128,-1,4
 854 891 854 891 841.5 897 c 128,-1,5
 829 903 829 903 823 905 c 1,6,-1
 852 934 l 1,7,-1
 899 1022 l 1,8,-1
 899 1120 l 1,9,-1
 885 1204 l 1,10,-1
 819 1268 l 1,11,-1
 719 1280 l 1,12,-1
 498 1280 l 1,13,-1
 397 1266 l 1,14,-1
 334 1202 l 1,15,-1
 320 1118 l 1,16,-1
 320 453 l 1,17,-1
 426 453 l 1,18,-1
 426 1108 l 1,19,20
 428 1120 428 1120 432.5 1134.5 c 128,-1,21
 437 1149 437 1149 440 1161 c 1,22,-1
 500 1174 l 1,23,-1
 717 1174 l 1,24,-1
 778 1163 l 1,25,-1
 793 1110 l 1,26,-1
 793 1014 l 1,27,28
 791 1001 791 1001 786 987 c 128,-1,29
 781 973 781 973 778 961 c 1,30,-1
 713 948 l 1,31,-1
 676 948 l 1,32,-1
 676 842 l 1,33,-1
 760 842 l 1,34,-1
 825 827 l 1,35,-1
 840 772 l 1,36,-1
 840 625 l 1,37,38
 837 609 837 609 833 597 c 128,-1,39
 829 585 829 585 825 569 c 1,40,-1
 762 559 l 1,41,-1
 551 559 l 1,42,-1
 551 453 l 1,43,-1
 768 453 l 1,44,-1
 868 465 l 1,45,-1
 934 528 l 1,46,-1
 946 614 l 1,47,-1
 946 766 l 1,0,-1
746 1370 m 2,48,49
 847 1370 847 1370 929 1340 c 128,-1,50
 1011 1310 1011 1310 1068.5 1258 c 128,-1,51
 1126 1206 1126 1206 1157 1136.5 c 128,-1,52
 1188 1067 1188 1067 1188 989 c 2,53,-1
 1188 381 l 2,54,55
 1188 303 1188 303 1157 233.5 c 128,-1,56
 1126 164 1126 164 1068.5 112 c 128,-1,57
 1011 60 1011 60 929 30 c 128,-1,58
 847 0 847 0 746 0 c 2,59,-1
 438 0 l 2,60,61
 337 0 337 0 255 30 c 128,-1,62
 173 60 173 60 115.5 112 c 128,-1,63
 58 164 58 164 27 233.5 c 128,-1,64
 -4 303 -4 303 -4 381 c 2,65,-1
 -4 989 l 2,66,67
 -4 1067 -4 1067 27 1136.5 c 128,-1,68
 58 1206 58 1206 115.5 1258 c 128,-1,69
 173 1310 173 1310 255 1340 c 128,-1,70
 337 1370 337 1370 438 1370 c 2,71,-1
 746 1370 l 2,48,49
EndSplineSet
EndChar

StartChar: ccedilla
Encoding: 231 231 168
Width: 1184
GlyphClass: 2
Flags: HMW
LayerCount: 2
Fore
SplineSet
746 1370 m 2,0,1
 847 1370 847 1370 929 1340 c 128,-1,2
 1011 1310 1011 1310 1068.5 1258 c 128,-1,3
 1126 1206 1126 1206 1157 1136.5 c 128,-1,4
 1188 1067 1188 1067 1188 989 c 2,5,-1
 1188 381 l 2,6,7
 1188 303 1188 303 1157 233.5 c 128,-1,8
 1126 164 1126 164 1068.5 112 c 128,-1,9
 1011 60 1011 60 929 30 c 128,-1,10
 847 0 847 0 746 0 c 2,11,-1
 438 0 l 2,12,13
 337 0 337 0 255 30 c 128,-1,14
 173 60 173 60 115.5 112 c 128,-1,15
 58 164 58 164 27 233.5 c 128,-1,16
 -4 303 -4 303 -4 381 c 2,17,-1
 -4 989 l 2,18,19
 -4 1067 -4 1067 27 1136.5 c 128,-1,20
 58 1206 58 1206 115.5 1258 c 128,-1,21
 173 1310 173 1310 255 1340 c 128,-1,22
 337 1370 337 1370 438 1370 c 2,23,-1
 746 1370 l 2,0,1
733 1280 m 1,24,-1
 549 1280 l 1,25,-1
 389 1268 l 1,26,-1
 326 1204 l 1,27,-1
 311 1120 l 1,28,-1
 311 612 l 1,29,-1
 326 528 l 1,30,-1
 391 465 l 1,31,-1
 492 453 l 1,32,-1
 586 453 l 1,33,-1
 586 418 l 1,34,-1
 515 418 l 1,35,-1
 457 357 l 1,36,-1
 445 300 l 1,37,-1
 445 281 l 1,38,-1
 457 203 l 1,39,-1
 517 144 l 1,40,-1
 660 132 l 1,41,-1
 660 222 l 1,42,-1
 549 232 l 1,43,-1
 535 291 l 1,44,-1
 545 326 l 1,45,-1
 656 336 l 1,46,-1
 656 453 l 1,47,-1
 733 453 l 1,48,-1
 850 467 l 1,49,-1
 825 575 l 1,50,-1
 731 559 l 1,51,-1
 498 559 l 1,52,-1
 432 569 l 1,53,-1
 418 629 l 1,54,-1
 418 1110 l 1,55,-1
 428 1165 l 1,56,-1
 498 1176 l 1,57,-1
 727 1176 l 1,58,-1
 830 1159 l 1,59,-1
 850 1266 l 1,60,-1
 733 1280 l 1,24,-1
EndSplineSet
EndChar

StartChar: divide
Encoding: 247 247 183
Width: 877
GlyphClass: 2
Flags: HMW
LayerCount: 2
Fore
SplineSet
504 739 m 1,0,-1
 504 868 l 1,1,-1
 373 868 l 1,2,-1
 373 739 l 1,3,-1
 504 739 l 1,0,-1
504 1069 m 1,4,-1
 504 1198 l 1,5,-1
 373 1198 l 1,6,-1
 373 1069 l 1,7,-1
 504 1069 l 1,4,-1
627 918 m 1,8,-1
 627 1026 l 1,9,-1
 250 1026 l 1,10,-1
 250 918 l 1,11,-1
 627 918 l 1,8,-1
438 0 m 0,12,13
 337 0 337 0 255 30 c 128,-1,14
 173 60 173 60 115.5 112 c 128,-1,15
 58 164 58 164 27 233.5 c 128,-1,16
 -4 303 -4 303 -4 381 c 2,17,-1
 -4 989 l 2,18,19
 -4 1067 -4 1067 27 1136.5 c 128,-1,20
 58 1206 58 1206 115.5 1258 c 128,-1,21
 173 1310 173 1310 255 1340 c 128,-1,22
 337 1370 337 1370 438 1370 c 0,23,24
 540 1370 540 1370 621.5 1340 c 128,-1,25
 703 1310 703 1310 761 1258 c 128,-1,26
 819 1206 819 1206 850 1136.5 c 128,-1,27
 881 1067 881 1067 881 989 c 2,28,-1
 881 381 l 2,29,30
 881 303 881 303 850 233.5 c 128,-1,31
 819 164 819 164 761 112 c 128,-1,32
 703 60 703 60 621.5 30 c 128,-1,33
 540 0 540 0 438 0 c 0,12,13
EndSplineSet
EndChar

StartChar: thorn
Encoding: 254 254 190
Width: 1184
GlyphClass: 2
Flags: HMW
LayerCount: 2
Fore
SplineSet
930 973 m 1,0,-1
 916 1057 l 1,1,-1
 852 1120 l 1,2,-1
 750 1135 l 1,3,-1
 481 1135 l 1,4,-1
 481 1311 l 1,5,-1
 377 1311 l 1,6,-1
 377 453 l 1,7,-1
 481 453 l 1,8,-1
 481 684 l 1,9,-1
 750 684 l 1,10,-1
 852 696 l 1,11,-1
 916 760 l 1,12,-1
 930 846 l 1,13,-1
 930 973 l 1,0,-1
809 801 m 1,14,-1
 744 791 l 1,15,-1
 481 791 l 1,16,-1
 481 1028 l 1,17,-1
 744 1028 l 1,18,-1
 813 1018 l 1,19,-1
 823 958 l 1,20,-1
 823 856 l 1,21,-1
 809 801 l 1,14,-1
746 1370 m 2,22,23
 847 1370 847 1370 929 1340 c 128,-1,24
 1011 1310 1011 1310 1068.5 1258 c 128,-1,25
 1126 1206 1126 1206 1157 1136.5 c 128,-1,26
 1188 1067 1188 1067 1188 989 c 2,27,-1
 1188 381 l 2,28,29
 1188 303 1188 303 1157 233.5 c 128,-1,30
 1126 164 1126 164 1068.5 112 c 128,-1,31
 1011 60 1011 60 929 30 c 128,-1,32
 847 0 847 0 746 0 c 2,33,-1
 438 0 l 2,34,35
 337 0 337 0 255 30 c 128,-1,36
 173 60 173 60 115.5 112 c 128,-1,37
 58 164 58 164 27 233.5 c 128,-1,38
 -4 303 -4 303 -4 381 c 2,39,-1
 -4 989 l 2,40,41
 -4 1067 -4 1067 27 1136.5 c 128,-1,42
 58 1206 58 1206 115.5 1258 c 128,-1,43
 173 1310 173 1310 255 1340 c 128,-1,44
 337 1370 337 1370 438 1370 c 2,45,-1
 746 1370 l 2,22,23
EndSplineSet
EndChar

StartChar: Aogonek
Encoding: 260 260 196
Width: 1184
GlyphClass: 2
Flags: HMW
LayerCount: 2
Fore
SplineSet
768 1159 m 1,0,1
 775 1078 775 1078 784 1006 c 128,-1,2
 793 934 793 934 801 854 c 1,3,-1
 449 854 l 1,4,-1
 479 1159 l 1,5,6
 507 1162 507 1162 527.5 1166 c 128,-1,7
 548 1170 548 1170 576 1174 c 1,8,-1
 674 1174 l 1,9,-1
 768 1159 l 1,0,1
746 1370 m 2,10,11
 847 1370 847 1370 929 1340 c 128,-1,12
 1011 1310 1011 1310 1068.5 1258 c 128,-1,13
 1126 1206 1126 1206 1157 1136.5 c 128,-1,14
 1188 1067 1188 1067 1188 989 c 2,15,-1
 1188 381 l 2,16,17
 1188 303 1188 303 1157 233.5 c 128,-1,18
 1126 164 1126 164 1068.5 112 c 128,-1,19
 1011 60 1011 60 929 30 c 128,-1,20
 847 0 847 0 746 0 c 2,21,-1
 438 0 l 2,22,23
 337 0 337 0 255 30 c 128,-1,24
 173 60 173 60 115.5 112 c 128,-1,25
 58 164 58 164 27 233.5 c 128,-1,26
 -4 303 -4 303 -4 381 c 2,27,-1
 -4 989 l 2,28,29
 -4 1067 -4 1067 27 1136.5 c 128,-1,30
 58 1206 58 1206 115.5 1258 c 128,-1,31
 173 1310 173 1310 255 1340 c 128,-1,32
 337 1370 337 1370 438 1370 c 2,33,-1
 746 1370 l 2,10,11
821 291 m 1,34,-1
 832 326 l 1,35,-1
 942 453 l 1,36,-1
 952 453 l 1,37,-1
 873 1198 l 1,38,-1
 811 1260 l 1,39,-1
 678 1280 l 1,40,-1
 571 1280 l 1,41,-1
 438 1260 l 1,42,-1
 377 1198 l 1,43,-1
 295 453 l 1,44,-1
 414 453 l 1,45,-1
 430 666 l 1,46,-1
 440 758 l 1,47,-1
 809 758 l 1,48,-1
 819 666 l 1,49,-1
 838 453 l 1,50,-1
 873 453 l 1,51,-1
 801 414 l 1,52,-1
 744 356 l 1,53,-1
 731 281 l 1,54,-1
 744 203 l 1,55,-1
 803 143 l 1,56,-1
 946 131 l 1,57,-1
 946 221 l 1,58,-1
 836 231 l 1,59,-1
 821 291 l 1,34,-1
EndSplineSet
EndChar

StartChar: aogonek
Encoding: 261 261 197
Width: 1184
GlyphClass: 2
Flags: HMW
LayerCount: 2
Fore
SplineSet
746 1370 m 2,0,1
 847 1370 847 1370 929 1340 c 128,-1,2
 1011 1310 1011 1310 1068.5 1258 c 128,-1,3
 1126 1206 1126 1206 1157 1136.5 c 128,-1,4
 1188 1067 1188 1067 1188 989 c 2,5,-1
 1188 381 l 2,6,7
 1188 303 1188 303 1157 233.5 c 128,-1,8
 1126 164 1126 164 1068.5 112 c 128,-1,9
 1011 60 1011 60 929 30 c 128,-1,10
 847 0 847 0 746 0 c 2,11,-1
 438 0 l 2,12,13
 337 0 337 0 255 30 c 128,-1,14
 173 60 173 60 115.5 112 c 128,-1,15
 58 164 58 164 27 233.5 c 128,-1,16
 -4 303 -4 303 -4 381 c 2,17,-1
 -4 989 l 2,18,19
 -4 1067 -4 1067 27 1136.5 c 128,-1,20
 58 1206 58 1206 115.5 1258 c 128,-1,21
 173 1310 173 1310 255 1340 c 128,-1,22
 337 1370 337 1370 438 1370 c 2,23,-1
 746 1370 l 2,0,1
771 569 m 1,24,-1
 694 559 l 1,25,-1
 479 559 l 1,26,-1
 416 569 l 1,27,-1
 402 629 l 1,28,-1
 402 715 l 1,29,-1
 410 772 l 1,30,-1
 479 782 l 1,31,-1
 696 782 l 1,32,-1
 772 774 l 1,33,-1
 772 623 l 1,34,-1
 771 569 l 1,24,-1
879 465 m 1,35,-1
 879 682 l 1,36,-1
 879 1120 l 1,37,-1
 864 1204 l 1,38,-1
 801 1268 l 1,39,-1
 701 1280 l 1,40,-1
 473 1280 l 1,41,-1
 356 1266 l 1,42,-1
 381 1157 l 1,43,-1
 475 1176 l 1,44,-1
 698 1176 l 1,45,-1
 758 1163 l 1,46,-1
 772 1110 l 1,47,-1
 772 877 l 1,48,-1
 701 889 l 1,49,-1
 473 889 l 1,50,-1
 373 874 l 1,51,-1
 309 811 l 1,52,-1
 295 729 l 1,53,-1
 295 612 l 1,54,-1
 309 528 l 1,55,-1
 373 465 l 1,56,-1
 473 453 l 1,57,-1
 631 453 l 1,58,-1
 560 414 l 1,59,-1
 502 357 l 1,60,-1
 490 281 l 1,61,-1
 502 203 l 1,62,-1
 562 144 l 1,63,-1
 705 131 l 1,64,-1
 705 222 l 1,65,-1
 594 232 l 1,66,-1
 580 291 l 1,67,-1
 590 326 l 1,68,-1
 701 453 l 1,69,-1
 692 453 l 1,70,-1
 879 465 l 1,35,-1
EndSplineSet
EndChar

StartChar: dcaron
Encoding: 271 271 207
Width: 1184
GlyphClass: 2
Flags: HMW
LayerCount: 2
Fore
SplineSet
746 1370 m 2,0,1
 847 1370 847 1370 929 1340 c 128,-1,2
 1011 1310 1011 1310 1068.5 1258 c 128,-1,3
 1126 1206 1126 1206 1157 1136.5 c 128,-1,4
 1188 1067 1188 1067 1188 989 c 2,5,-1
 1188 381 l 2,6,7
 1188 303 1188 303 1157 233.5 c 128,-1,8
 1126 164 1126 164 1068.5 112 c 128,-1,9
 1011 60 1011 60 929 30 c 128,-1,10
 847 0 847 0 746 0 c 2,11,-1
 438 0 l 2,12,13
 337 0 337 0 255 30 c 128,-1,14
 173 60 173 60 115.5 112 c 128,-1,15
 58 164 58 164 27 233.5 c 128,-1,16
 -4 303 -4 303 -4 381 c 2,17,-1
 -4 989 l 2,18,19
 -4 1067 -4 1067 27 1136.5 c 128,-1,20
 58 1206 58 1206 115.5 1258 c 128,-1,21
 173 1310 173 1310 255 1340 c 128,-1,22
 337 1370 337 1370 438 1370 c 2,23,-1
 746 1370 l 2,0,1
827 1118 m 1,24,-1
 813 1202 l 1,25,-1
 750 1266 l 1,26,-1
 647 1280 l 1,27,-1
 246 1280 l 1,28,-1
 246 453 l 1,29,-1
 647 453 l 1,30,-1
 750 465 l 1,31,-1
 813 528 l 1,32,-1
 827 614 l 1,33,-1
 827 1118 l 1,24,-1
707 569 m 1,34,-1
 641 559 l 1,35,-1
 350 559 l 1,36,-1
 350 1174 l 1,37,-1
 641 1174 l 1,38,-1
 711 1163 l 1,39,-1
 721 1104 l 1,40,-1
 721 625 l 1,41,-1
 707 569 l 1,34,-1
940 1022 m 1,42,-1
 1002 1151 l 1,43,-1
 1002 1280 l 1,44,-1
 850 1280 l 1,45,-1
 850 1151 l 1,46,-1
 916 1151 l 1,47,-1
 877 1051 l 1,48,-1
 940 1022 l 1,42,-1
EndSplineSet
EndChar

StartChar: Dcroat
Encoding: 272 272 208
Width: 1184
GlyphClass: 2
Flags: HMW
LayerCount: 2
Fore
SplineSet
954 1118 m 1,0,-1
 940 1202 l 1,1,-1
 877 1266 l 1,2,-1
 774 1280 l 1,3,-1
 328 1280 l 1,4,-1
 328 954 l 1,5,-1
 203 954 l 1,6,-1
 203 846 l 1,7,-1
 328 846 l 1,8,-1
 328 453 l 1,9,-1
 774 453 l 1,10,-1
 877 465 l 1,11,-1
 940 528 l 1,12,-1
 954 614 l 1,13,-1
 954 1118 l 1,0,-1
834 569 m 1,14,-1
 768 559 l 1,15,-1
 432 559 l 1,16,-1
 432 846 l 1,17,-1
 580 846 l 1,18,-1
 580 954 l 1,19,-1
 432 954 l 1,20,-1
 432 1174 l 1,21,-1
 768 1174 l 1,22,-1
 838 1163 l 1,23,-1
 848 1104 l 1,24,-1
 848 625 l 1,25,-1
 834 569 l 1,14,-1
746 1370 m 2,26,27
 847 1370 847 1370 929 1340 c 128,-1,28
 1011 1310 1011 1310 1068.5 1258 c 128,-1,29
 1126 1206 1126 1206 1157 1136.5 c 128,-1,30
 1188 1067 1188 1067 1188 989 c 2,31,-1
 1188 381 l 2,32,33
 1188 303 1188 303 1157 233.5 c 128,-1,34
 1126 164 1126 164 1068.5 112 c 128,-1,35
 1011 60 1011 60 929 30 c 128,-1,36
 847 0 847 0 746 0 c 2,37,-1
 438 0 l 2,38,39
 337 0 337 0 255 30 c 128,-1,40
 173 60 173 60 115.5 112 c 128,-1,41
 58 164 58 164 27 233.5 c 128,-1,42
 -4 303 -4 303 -4 381 c 2,43,-1
 -4 989 l 2,44,45
 -4 1067 -4 1067 27 1136.5 c 128,-1,46
 58 1206 58 1206 115.5 1258 c 128,-1,47
 173 1310 173 1310 255 1340 c 128,-1,48
 337 1370 337 1370 438 1370 c 2,49,-1
 746 1370 l 2,26,27
EndSplineSet
EndChar

StartChar: Eogonek
Encoding: 280 280 216
Width: 1184
GlyphClass: 2
Flags: HMW
LayerCount: 2
Fore
SplineSet
746 1370 m 2,0,1
 847 1370 847 1370 929 1340 c 128,-1,2
 1011 1310 1011 1310 1068.5 1258 c 128,-1,3
 1126 1206 1126 1206 1157 1136.5 c 128,-1,4
 1188 1067 1188 1067 1188 989 c 2,5,-1
 1188 381 l 2,6,7
 1188 303 1188 303 1157 233.5 c 128,-1,8
 1126 164 1126 164 1068.5 112 c 128,-1,9
 1011 60 1011 60 929 30 c 128,-1,10
 847 0 847 0 746 0 c 2,11,-1
 438 0 l 2,12,13
 337 0 337 0 255 30 c 128,-1,14
 173 60 173 60 115.5 112 c 128,-1,15
 58 164 58 164 27 233.5 c 128,-1,16
 -4 303 -4 303 -4 381 c 2,17,-1
 -4 989 l 2,18,19
 -4 1067 -4 1067 27 1136.5 c 128,-1,20
 58 1206 58 1206 115.5 1258 c 128,-1,21
 173 1310 173 1310 255 1340 c 128,-1,22
 337 1370 337 1370 438 1370 c 2,23,-1
 746 1370 l 2,0,1
905 559 m 1,24,-1
 506 559 l 1,25,-1
 506 813 l 1,26,-1
 840 813 l 1,27,-1
 840 918 l 1,28,-1
 506 918 l 1,29,-1
 506 1174 l 1,30,-1
 891 1174 l 1,31,-1
 891 1280 l 1,32,-1
 402 1280 l 1,33,-1
 402 453 l 1,34,-1
 827 453 l 1,35,-1
 756 414 l 1,36,-1
 698 356 l 1,37,-1
 686 281 l 1,38,-1
 698 203 l 1,39,-1
 758 143 l 1,40,-1
 901 131 l 1,41,-1
 901 221 l 1,42,-1
 791 231 l 1,43,-1
 776 291 l 1,44,-1
 787 326 l 1,45,-1
 897 453 l 1,46,-1
 905 453 l 1,47,-1
 905 559 l 1,24,-1
EndSplineSet
EndChar

StartChar: eogonek
Encoding: 281 281 217
Width: 1184
GlyphClass: 2
Flags: HMW
LayerCount: 2
Fore
SplineSet
410 973 m 1,0,-1
 410 1108 l 1,1,-1
 418 1165 l 1,2,-1
 488 1176 l 1,3,-1
 692 1176 l 1,4,-1
 760 1165 l 1,5,-1
 770 1106 l 1,6,-1
 770 973 l 1,7,-1
 410 973 l 1,0,-1
877 1120 m 1,8,-1
 862 1204 l 1,9,-1
 799 1268 l 1,10,-1
 698 1280 l 1,11,-1
 481 1280 l 1,12,-1
 381 1268 l 1,13,-1
 318 1204 l 1,14,-1
 303 1120 l 1,15,-1
 303 645 l 1,16,-1
 318 561 l 1,17,-1
 381 498 l 1,18,-1
 481 485 l 1,19,-1
 672 485 l 1,20,-1
 600 446 l 1,21,-1
 543 389 l 1,22,-1
 531 313 l 1,23,-1
 543 236 l 1,24,-1
 602 176 l 1,25,-1
 746 164 l 1,26,-1
 746 254 l 1,27,-1
 635 264 l 1,28,-1
 621 324 l 1,29,-1
 631 358 l 1,30,-1
 741 485 l 1,31,-1
 733 485 l 1,32,-1
 850 500 l 1,33,-1
 825 608 l 1,34,-1
 731 592 l 1,35,-1
 488 592 l 1,36,-1
 424 602 l 1,37,-1
 410 662 l 1,38,-1
 410 868 l 1,39,-1
 877 868 l 1,40,-1
 877 1120 l 1,8,-1
746 1370 m 2,41,42
 847 1370 847 1370 929 1340 c 128,-1,43
 1011 1310 1011 1310 1068.5 1258 c 128,-1,44
 1126 1206 1126 1206 1157 1136.5 c 128,-1,45
 1188 1067 1188 1067 1188 989 c 2,46,-1
 1188 381 l 2,47,48
 1188 303 1188 303 1157 233.5 c 128,-1,49
 1126 164 1126 164 1068.5 112 c 128,-1,50
 1011 60 1011 60 929 30 c 128,-1,51
 847 0 847 0 746 0 c 2,52,-1
 438 0 l 2,53,54
 337 0 337 0 255 30 c 128,-1,55
 173 60 173 60 115.5 112 c 128,-1,56
 58 164 58 164 27 233.5 c 128,-1,57
 -4 303 -4 303 -4 381 c 2,58,-1
 -4 989 l 2,59,60
 -4 1067 -4 1067 27 1136.5 c 128,-1,61
 58 1206 58 1206 115.5 1258 c 128,-1,62
 173 1310 173 1310 255 1340 c 128,-1,63
 337 1370 337 1370 438 1370 c 2,64,-1
 746 1370 l 2,41,42
EndSplineSet
EndChar

StartChar: Gcommaaccent
Encoding: 290 290 226
Width: 1184
GlyphClass: 2
Flags: HMW
LayerCount: 2
Fore
SplineSet
666 119 m 1,0,-1
 727 248 l 1,1,-1
 727 377 l 1,2,-1
 576 377 l 1,3,-1
 576 248 l 1,4,-1
 641 248 l 1,5,-1
 602 147 l 1,6,-1
 666 119 l 1,0,-1
524 1176 m 1,7,-1
 784 1176 l 1,8,-1
 887 1159 l 1,9,-1
 907 1266 l 1,10,-1
 791 1280 l 1,11,-1
 522 1280 l 1,12,-1
 420 1264 l 1,13,-1
 356 1200 l 1,14,-1
 342 1116 l 1,15,-1
 342 614 l 1,16,-1
 356 528 l 1,17,-1
 422 465 l 1,18,-1
 522 453 l 1,19,-1
 772 453 l 1,20,-1
 873 465 l 1,21,-1
 938 528 l 1,22,-1
 952 614 l 1,23,-1
 952 877 l 1,24,-1
 662 877 l 1,25,-1
 662 770 l 1,26,-1
 846 770 l 1,27,-1
 846 629 l 1,28,29
 841 613 841 613 839 599 c 128,-1,30
 837 585 837 585 832 569 c 1,31,-1
 766 559 l 1,32,-1
 524 559 l 1,33,-1
 463 569 l 1,34,-1
 449 633 l 1,35,-1
 449 1106 l 1,36,-1
 459 1161 l 1,37,-1
 524 1176 l 1,7,-1
746 1370 m 2,38,39
 847 1370 847 1370 929 1340 c 128,-1,40
 1011 1310 1011 1310 1068.5 1258 c 128,-1,41
 1126 1206 1126 1206 1157 1136.5 c 128,-1,42
 1188 1067 1188 1067 1188 989 c 2,43,-1
 1188 381 l 2,44,45
 1188 303 1188 303 1157 233.5 c 128,-1,46
 1126 164 1126 164 1068.5 112 c 128,-1,47
 1011 60 1011 60 929 30 c 128,-1,48
 847 0 847 0 746 0 c 2,49,-1
 438 0 l 2,50,51
 337 0 337 0 255 30 c 128,-1,52
 173 60 173 60 115.5 112 c 128,-1,53
 58 164 58 164 27 233.5 c 128,-1,54
 -4 303 -4 303 -4 381 c 2,55,-1
 -4 989 l 2,56,57
 -4 1067 -4 1067 27 1136.5 c 128,-1,58
 58 1206 58 1206 115.5 1258 c 128,-1,59
 173 1310 173 1310 255 1340 c 128,-1,60
 337 1370 337 1370 438 1370 c 2,61,-1
 746 1370 l 2,38,39
EndSplineSet
EndChar

StartChar: gcommaaccent
Encoding: 291 291 227
Width: 1184
GlyphClass: 2
Flags: HMW
LayerCount: 2
Fore
SplineSet
666 119 m 1,0,-1
 727 248 l 1,1,-1
 727 377 l 1,2,-1
 576 377 l 1,3,-1
 576 248 l 1,4,-1
 641 248 l 1,5,-1
 602 147 l 1,6,-1
 666 119 l 1,0,-1
524 1176 m 1,7,-1
 784 1176 l 1,8,-1
 887 1159 l 1,9,-1
 907 1266 l 1,10,-1
 791 1280 l 1,11,-1
 522 1280 l 1,12,-1
 420 1264 l 1,13,-1
 356 1200 l 1,14,-1
 342 1116 l 1,15,-1
 342 614 l 1,16,-1
 356 528 l 1,17,-1
 422 465 l 1,18,-1
 522 453 l 1,19,-1
 772 453 l 1,20,-1
 873 465 l 1,21,-1
 938 528 l 1,22,-1
 952 614 l 1,23,-1
 952 877 l 1,24,-1
 662 877 l 1,25,-1
 662 770 l 1,26,-1
 846 770 l 1,27,-1
 846 629 l 1,28,29
 841 613 841 613 839 599 c 128,-1,30
 837 585 837 585 832 569 c 1,31,-1
 766 559 l 1,32,-1
 524 559 l 1,33,-1
 463 569 l 1,34,-1
 449 633 l 1,35,-1
 449 1106 l 1,36,-1
 459 1161 l 1,37,-1
 524 1176 l 1,7,-1
746 1370 m 2,38,39
 847 1370 847 1370 929 1340 c 128,-1,40
 1011 1310 1011 1310 1068.5 1258 c 128,-1,41
 1126 1206 1126 1206 1157 1136.5 c 128,-1,42
 1188 1067 1188 1067 1188 989 c 2,43,-1
 1188 381 l 2,44,45
 1188 303 1188 303 1157 233.5 c 128,-1,46
 1126 164 1126 164 1068.5 112 c 128,-1,47
 1011 60 1011 60 929 30 c 128,-1,48
 847 0 847 0 746 0 c 2,49,-1
 438 0 l 2,50,51
 337 0 337 0 255 30 c 128,-1,52
 173 60 173 60 115.5 112 c 128,-1,53
 58 164 58 164 27 233.5 c 128,-1,54
 -4 303 -4 303 -4 381 c 2,55,-1
 -4 989 l 2,56,57
 -4 1067 -4 1067 27 1136.5 c 128,-1,58
 58 1206 58 1206 115.5 1258 c 128,-1,59
 173 1310 173 1310 255 1340 c 128,-1,60
 337 1370 337 1370 438 1370 c 2,61,-1
 746 1370 l 2,38,39
EndSplineSet
EndChar

StartChar: hbar
Encoding: 295 295 231
Width: 1184
GlyphClass: 2
Flags: HMW
LayerCount: 2
Fore
SplineSet
954 1054 m 1,0,-1
 1006 1054 l 1,1,-1
 1006 1146 l 1,2,-1
 954 1146 l 1,3,-1
 954 1280 l 1,4,-1
 850 1280 l 1,5,-1
 850 1146 l 1,6,-1
 434 1146 l 1,7,-1
 434 1280 l 1,8,-1
 328 1280 l 1,9,-1
 328 1146 l 1,10,-1
 284 1146 l 1,11,-1
 284 1054 l 1,12,-1
 328 1054 l 1,13,-1
 328 453 l 1,14,-1
 434 453 l 1,15,-1
 434 825 l 1,16,-1
 850 825 l 1,17,-1
 850 453 l 1,18,-1
 954 453 l 1,19,-1
 954 1054 l 1,0,-1
434 930 m 1,20,-1
 434 1054 l 1,21,-1
 850 1054 l 1,22,-1
 850 930 l 1,23,-1
 434 930 l 1,20,-1
746 1370 m 2,24,25
 847 1370 847 1370 929 1340 c 128,-1,26
 1011 1310 1011 1310 1068.5 1258 c 128,-1,27
 1126 1206 1126 1206 1157 1136.5 c 128,-1,28
 1188 1067 1188 1067 1188 989 c 2,29,-1
 1188 381 l 2,30,31
 1188 303 1188 303 1157 233.5 c 128,-1,32
 1126 164 1126 164 1068.5 112 c 128,-1,33
 1011 60 1011 60 929 30 c 128,-1,34
 847 0 847 0 746 0 c 2,35,-1
 438 0 l 2,36,37
 337 0 337 0 255 30 c 128,-1,38
 173 60 173 60 115.5 112 c 128,-1,39
 58 164 58 164 27 233.5 c 128,-1,40
 -4 303 -4 303 -4 381 c 2,41,-1
 -4 989 l 2,42,43
 -4 1067 -4 1067 27 1136.5 c 128,-1,44
 58 1206 58 1206 115.5 1258 c 128,-1,45
 173 1310 173 1310 255 1340 c 128,-1,46
 337 1370 337 1370 438 1370 c 2,47,-1
 746 1370 l 2,24,25
EndSplineSet
EndChar

StartChar: Iogonek
Encoding: 302 302 238
Width: 1184
GlyphClass: 2
Flags: HMW
LayerCount: 2
Fore
SplineSet
746 1370 m 2,0,1
 847 1370 847 1370 929 1340 c 128,-1,2
 1011 1310 1011 1310 1068.5 1258 c 128,-1,3
 1126 1206 1126 1206 1157 1136.5 c 128,-1,4
 1188 1067 1188 1067 1188 989 c 2,5,-1
 1188 381 l 2,6,7
 1188 303 1188 303 1157 233.5 c 128,-1,8
 1126 164 1126 164 1068.5 112 c 128,-1,9
 1011 60 1011 60 929 30 c 128,-1,10
 847 0 847 0 746 0 c 2,11,-1
 438 0 l 2,12,13
 337 0 337 0 255 30 c 128,-1,14
 173 60 173 60 115.5 112 c 128,-1,15
 58 164 58 164 27 233.5 c 128,-1,16
 -4 303 -4 303 -4 381 c 2,17,-1
 -4 989 l 2,18,19
 -4 1067 -4 1067 27 1136.5 c 128,-1,20
 58 1206 58 1206 115.5 1258 c 128,-1,21
 173 1310 173 1310 255 1340 c 128,-1,22
 337 1370 337 1370 438 1370 c 2,23,-1
 746 1370 l 2,0,1
358 559 m 1,24,-1
 358 453 l 1,25,-1
 862 453 l 1,26,-1
 791 414 l 1,27,-1
 733 356 l 1,28,-1
 721 281 l 1,29,-1
 733 203 l 1,30,-1
 793 143 l 1,31,-1
 936 131 l 1,32,-1
 936 221 l 1,33,-1
 825 231 l 1,34,-1
 811 291 l 1,35,-1
 821 326 l 1,36,-1
 932 453 l 1,37,-1
 936 453 l 1,38,-1
 936 559 l 1,39,-1
 701 559 l 1,40,-1
 701 1174 l 1,41,-1
 936 1174 l 1,42,-1
 936 1280 l 1,43,-1
 358 1280 l 1,44,-1
 358 1174 l 1,45,-1
 594 1174 l 1,46,-1
 594 559 l 1,47,-1
 358 559 l 1,24,-1
EndSplineSet
EndChar

StartChar: iogonek
Encoding: 303 303 239
Width: 1184
GlyphClass: 2
Flags: HMW
LayerCount: 2
Fore
SplineSet
746 1370 m 2,0,1
 847 1370 847 1370 929 1340 c 128,-1,2
 1011 1310 1011 1310 1068.5 1258 c 128,-1,3
 1126 1206 1126 1206 1157 1136.5 c 128,-1,4
 1188 1067 1188 1067 1188 989 c 2,5,-1
 1188 381 l 2,6,7
 1188 303 1188 303 1157 233.5 c 128,-1,8
 1126 164 1126 164 1068.5 112 c 128,-1,9
 1011 60 1011 60 929 30 c 128,-1,10
 847 0 847 0 746 0 c 2,11,-1
 438 0 l 2,12,13
 337 0 337 0 255 30 c 128,-1,14
 173 60 173 60 115.5 112 c 128,-1,15
 58 164 58 164 27 233.5 c 128,-1,16
 -4 303 -4 303 -4 381 c 2,17,-1
 -4 989 l 2,18,19
 -4 1067 -4 1067 27 1136.5 c 128,-1,20
 58 1206 58 1206 115.5 1258 c 128,-1,21
 173 1310 173 1310 255 1340 c 128,-1,22
 337 1370 337 1370 438 1370 c 2,23,-1
 746 1370 l 2,0,1
358 559 m 1,24,-1
 358 453 l 1,25,-1
 864 453 l 1,26,-1
 793 414 l 1,27,-1
 735 356 l 1,28,-1
 723 281 l 1,29,-1
 735 203 l 1,30,-1
 795 143 l 1,31,-1
 938 131 l 1,32,-1
 938 221 l 1,33,-1
 827 231 l 1,34,-1
 813 291 l 1,35,-1
 823 326 l 1,36,-1
 934 453 l 1,37,-1
 936 453 l 1,38,-1
 936 559 l 1,39,-1
 701 559 l 1,40,-1
 701 1174 l 1,41,-1
 936 1174 l 1,42,-1
 936 1280 l 1,43,-1
 358 1280 l 1,44,-1
 358 1174 l 1,45,-1
 594 1174 l 1,46,-1
 594 559 l 1,47,-1
 358 559 l 1,24,-1
EndSplineSet
EndChar

StartChar: dotlessi
Encoding: 305 305 241
Width: 1184
GlyphClass: 2
Flags: HMW
LayerCount: 2
Fore
SplineSet
358 559 m 1,0,-1
 358 453 l 1,1,-1
 936 453 l 1,2,-1
 936 559 l 1,3,-1
 701 559 l 1,4,-1
 701 1174 l 1,5,-1
 936 1174 l 1,6,-1
 936 1280 l 1,7,-1
 358 1280 l 1,8,-1
 358 1174 l 1,9,-1
 594 1174 l 1,10,-1
 594 559 l 1,11,-1
 358 559 l 1,0,-1
746 1370 m 2,12,13
 847 1370 847 1370 929 1340 c 128,-1,14
 1011 1310 1011 1310 1068.5 1258 c 128,-1,15
 1126 1206 1126 1206 1157 1136.5 c 128,-1,16
 1188 1067 1188 1067 1188 989 c 2,17,-1
 1188 381 l 2,18,19
 1188 303 1188 303 1157 233.5 c 128,-1,20
 1126 164 1126 164 1068.5 112 c 128,-1,21
 1011 60 1011 60 929 30 c 128,-1,22
 847 0 847 0 746 0 c 2,23,-1
 438 0 l 2,24,25
 337 0 337 0 255 30 c 128,-1,26
 173 60 173 60 115.5 112 c 128,-1,27
 58 164 58 164 27 233.5 c 128,-1,28
 -4 303 -4 303 -4 381 c 2,29,-1
 -4 989 l 2,30,31
 -4 1067 -4 1067 27 1136.5 c 128,-1,32
 58 1206 58 1206 115.5 1258 c 128,-1,33
 173 1310 173 1310 255 1340 c 128,-1,34
 337 1370 337 1370 438 1370 c 2,35,-1
 746 1370 l 2,12,13
EndSplineSet
EndChar

StartChar: IJ
Encoding: 306 306 242
Width: 1184
GlyphClass: 2
Flags: HMW
LayerCount: 2
Fore
SplineSet
180 559 m 1,0,-1
 180 453 l 1,1,-1
 594 453 l 1,2,-1
 594 559 l 1,3,-1
 440 559 l 1,4,-1
 440 1174 l 1,5,-1
 594 1174 l 1,6,-1
 594 1280 l 1,7,-1
 180 1280 l 1,8,-1
 180 1174 l 1,9,-1
 334 1174 l 1,10,-1
 334 559 l 1,11,-1
 180 559 l 1,0,-1
746 1370 m 2,12,13
 847 1370 847 1370 929 1340 c 128,-1,14
 1011 1310 1011 1310 1068.5 1258 c 128,-1,15
 1126 1206 1126 1206 1157 1136.5 c 128,-1,16
 1188 1067 1188 1067 1188 989 c 2,17,-1
 1188 381 l 2,18,19
 1188 303 1188 303 1157 233.5 c 128,-1,20
 1126 164 1126 164 1068.5 112 c 128,-1,21
 1011 60 1011 60 929 30 c 128,-1,22
 847 0 847 0 746 0 c 2,23,-1
 438 0 l 2,24,25
 337 0 337 0 255 30 c 128,-1,26
 173 60 173 60 115.5 112 c 128,-1,27
 58 164 58 164 27 233.5 c 128,-1,28
 -4 303 -4 303 -4 381 c 2,29,-1
 -4 989 l 2,30,31
 -4 1067 -4 1067 27 1136.5 c 128,-1,32
 58 1206 58 1206 115.5 1258 c 128,-1,33
 173 1310 173 1310 255 1340 c 128,-1,34
 337 1370 337 1370 438 1370 c 2,35,-1
 746 1370 l 2,12,13
887 1280 m 1,36,-1
 887 631 l 1,37,-1
 873 571 l 1,38,-1
 807 559 l 1,39,-1
 658 559 l 1,40,-1
 658 453 l 1,41,-1
 813 453 l 1,42,-1
 914 467 l 1,43,-1
 991 528 l 1,44,-1
 991 1280 l 1,45,-1
 887 1280 l 1,36,-1
EndSplineSet
EndChar

StartChar: ij
Encoding: 307 307 243
Width: 1184
GlyphClass: 2
Flags: HMW
LayerCount: 2
Fore
SplineSet
180 559 m 1,0,-1
 180 453 l 1,1,-1
 594 453 l 1,2,-1
 594 559 l 1,3,-1
 440 559 l 1,4,-1
 440 1174 l 1,5,-1
 594 1174 l 1,6,-1
 594 1280 l 1,7,-1
 180 1280 l 1,8,-1
 180 1174 l 1,9,-1
 334 1174 l 1,10,-1
 334 559 l 1,11,-1
 180 559 l 1,0,-1
746 1370 m 2,12,13
 847 1370 847 1370 929 1340 c 128,-1,14
 1011 1310 1011 1310 1068.5 1258 c 128,-1,15
 1126 1206 1126 1206 1157 1136.5 c 128,-1,16
 1188 1067 1188 1067 1188 989 c 2,17,-1
 1188 381 l 2,18,19
 1188 303 1188 303 1157 233.5 c 128,-1,20
 1126 164 1126 164 1068.5 112 c 128,-1,21
 1011 60 1011 60 929 30 c 128,-1,22
 847 0 847 0 746 0 c 2,23,-1
 438 0 l 2,24,25
 337 0 337 0 255 30 c 128,-1,26
 173 60 173 60 115.5 112 c 128,-1,27
 58 164 58 164 27 233.5 c 128,-1,28
 -4 303 -4 303 -4 381 c 2,29,-1
 -4 989 l 2,30,31
 -4 1067 -4 1067 27 1136.5 c 128,-1,32
 58 1206 58 1206 115.5 1258 c 128,-1,33
 173 1310 173 1310 255 1340 c 128,-1,34
 337 1370 337 1370 438 1370 c 2,35,-1
 746 1370 l 2,12,13
887 1280 m 1,36,-1
 887 631 l 1,37,-1
 873 571 l 1,38,-1
 807 559 l 1,39,-1
 658 559 l 1,40,-1
 658 453 l 1,41,-1
 813 453 l 1,42,-1
 914 467 l 1,43,-1
 991 528 l 1,44,-1
 991 1280 l 1,45,-1
 887 1280 l 1,36,-1
EndSplineSet
EndChar

StartChar: Kcommaaccent
Encoding: 310 310 246
Width: 1184
GlyphClass: 2
Flags: HMW
LayerCount: 2
Fore
SplineSet
666 119 m 1,0,-1
 727 248 l 1,1,-1
 727 377 l 1,2,-1
 576 377 l 1,3,-1
 576 248 l 1,4,-1
 641 248 l 1,5,-1
 602 147 l 1,6,-1
 666 119 l 1,0,-1
654 885 m 1,7,-1
 998 1225 l 1,8,-1
 926 1309 l 1,9,-1
 514 901 l 1,10,-1
 514 1280 l 1,11,-1
 408 1280 l 1,12,-1
 408 453 l 1,13,-1
 514 453 l 1,14,-1
 514 766 l 1,15,16
 531 780 531 780 543.5 791.5 c 128,-1,17
 556 803 556 803 572 817 c 1,18,-1
 899 434 l 1,19,-1
 985 508 l 1,20,-1
 654 885 l 1,7,-1
746 1370 m 2,21,22
 847 1370 847 1370 929 1340 c 128,-1,23
 1011 1310 1011 1310 1068.5 1258 c 128,-1,24
 1126 1206 1126 1206 1157 1136.5 c 128,-1,25
 1188 1067 1188 1067 1188 989 c 2,26,-1
 1188 381 l 2,27,28
 1188 303 1188 303 1157 233.5 c 128,-1,29
 1126 164 1126 164 1068.5 112 c 128,-1,30
 1011 60 1011 60 929 30 c 128,-1,31
 847 0 847 0 746 0 c 2,32,-1
 438 0 l 2,33,34
 337 0 337 0 255 30 c 128,-1,35
 173 60 173 60 115.5 112 c 128,-1,36
 58 164 58 164 27 233.5 c 128,-1,37
 -4 303 -4 303 -4 381 c 2,38,-1
 -4 989 l 2,39,40
 -4 1067 -4 1067 27 1136.5 c 128,-1,41
 58 1206 58 1206 115.5 1258 c 128,-1,42
 173 1310 173 1310 255 1340 c 128,-1,43
 337 1370 337 1370 438 1370 c 2,44,-1
 746 1370 l 2,21,22
EndSplineSet
EndChar

StartChar: kcommaaccent
Encoding: 311 311 247
Width: 1184
GlyphClass: 2
Flags: HMW
LayerCount: 2
Fore
SplineSet
666 119 m 1,0,-1
 727 248 l 1,1,-1
 727 377 l 1,2,-1
 576 377 l 1,3,-1
 576 248 l 1,4,-1
 641 248 l 1,5,-1
 602 147 l 1,6,-1
 666 119 l 1,0,-1
654 885 m 1,7,-1
 998 1225 l 1,8,-1
 926 1309 l 1,9,-1
 514 901 l 1,10,-1
 514 1280 l 1,11,-1
 408 1280 l 1,12,-1
 408 453 l 1,13,-1
 514 453 l 1,14,-1
 514 766 l 1,15,16
 531 780 531 780 543.5 791.5 c 128,-1,17
 556 803 556 803 572 817 c 1,18,-1
 899 434 l 1,19,-1
 985 508 l 1,20,-1
 654 885 l 1,7,-1
746 1370 m 2,21,22
 847 1370 847 1370 929 1340 c 128,-1,23
 1011 1310 1011 1310 1068.5 1258 c 128,-1,24
 1126 1206 1126 1206 1157 1136.5 c 128,-1,25
 1188 1067 1188 1067 1188 989 c 2,26,-1
 1188 381 l 2,27,28
 1188 303 1188 303 1157 233.5 c 128,-1,29
 1126 164 1126 164 1068.5 112 c 128,-1,30
 1011 60 1011 60 929 30 c 128,-1,31
 847 0 847 0 746 0 c 2,32,-1
 438 0 l 2,33,34
 337 0 337 0 255 30 c 128,-1,35
 173 60 173 60 115.5 112 c 128,-1,36
 58 164 58 164 27 233.5 c 128,-1,37
 -4 303 -4 303 -4 381 c 2,38,-1
 -4 989 l 2,39,40
 -4 1067 -4 1067 27 1136.5 c 128,-1,41
 58 1206 58 1206 115.5 1258 c 128,-1,42
 173 1310 173 1310 255 1340 c 128,-1,43
 337 1370 337 1370 438 1370 c 2,44,-1
 746 1370 l 2,21,22
EndSplineSet
EndChar

StartChar: Lcommaaccent
Encoding: 315 315 251
Width: 1184
GlyphClass: 2
Flags: HMW
LayerCount: 2
Fore
SplineSet
666 119 m 1,0,-1
 727 248 l 1,1,-1
 727 377 l 1,2,-1
 576 377 l 1,3,-1
 576 248 l 1,4,-1
 641 248 l 1,5,-1
 602 147 l 1,6,-1
 666 119 l 1,0,-1
862 559 m 1,7,-1
 555 559 l 1,8,-1
 555 1280 l 1,9,-1
 449 1280 l 1,10,-1
 449 453 l 1,11,-1
 862 453 l 1,12,-1
 862 559 l 1,7,-1
746 1370 m 2,13,14
 847 1370 847 1370 929 1340 c 128,-1,15
 1011 1310 1011 1310 1068.5 1258 c 128,-1,16
 1126 1206 1126 1206 1157 1136.5 c 128,-1,17
 1188 1067 1188 1067 1188 989 c 2,18,-1
 1188 381 l 2,19,20
 1188 303 1188 303 1157 233.5 c 128,-1,21
 1126 164 1126 164 1068.5 112 c 128,-1,22
 1011 60 1011 60 929 30 c 128,-1,23
 847 0 847 0 746 0 c 2,24,-1
 438 0 l 2,25,26
 337 0 337 0 255 30 c 128,-1,27
 173 60 173 60 115.5 112 c 128,-1,28
 58 164 58 164 27 233.5 c 128,-1,29
 -4 303 -4 303 -4 381 c 2,30,-1
 -4 989 l 2,31,32
 -4 1067 -4 1067 27 1136.5 c 128,-1,33
 58 1206 58 1206 115.5 1258 c 128,-1,34
 173 1310 173 1310 255 1340 c 128,-1,35
 337 1370 337 1370 438 1370 c 2,36,-1
 746 1370 l 2,13,14
EndSplineSet
EndChar

StartChar: lcommaaccent
Encoding: 316 316 252
Width: 1184
GlyphClass: 2
Flags: HMW
LayerCount: 2
Fore
SplineSet
666 119 m 1,0,-1
 727 248 l 1,1,-1
 727 377 l 1,2,-1
 576 377 l 1,3,-1
 576 248 l 1,4,-1
 641 248 l 1,5,-1
 602 147 l 1,6,-1
 666 119 l 1,0,-1
862 559 m 1,7,-1
 555 559 l 1,8,-1
 555 1280 l 1,9,-1
 449 1280 l 1,10,-1
 449 453 l 1,11,-1
 862 453 l 1,12,-1
 862 559 l 1,7,-1
746 1370 m 2,13,14
 847 1370 847 1370 929 1340 c 128,-1,15
 1011 1310 1011 1310 1068.5 1258 c 128,-1,16
 1126 1206 1126 1206 1157 1136.5 c 128,-1,17
 1188 1067 1188 1067 1188 989 c 2,18,-1
 1188 381 l 2,19,20
 1188 303 1188 303 1157 233.5 c 128,-1,21
 1126 164 1126 164 1068.5 112 c 128,-1,22
 1011 60 1011 60 929 30 c 128,-1,23
 847 0 847 0 746 0 c 2,24,-1
 438 0 l 2,25,26
 337 0 337 0 255 30 c 128,-1,27
 173 60 173 60 115.5 112 c 128,-1,28
 58 164 58 164 27 233.5 c 128,-1,29
 -4 303 -4 303 -4 381 c 2,30,-1
 -4 989 l 2,31,32
 -4 1067 -4 1067 27 1136.5 c 128,-1,33
 58 1206 58 1206 115.5 1258 c 128,-1,34
 173 1310 173 1310 255 1340 c 128,-1,35
 337 1370 337 1370 438 1370 c 2,36,-1
 746 1370 l 2,13,14
EndSplineSet
EndChar

StartChar: Lcaron
Encoding: 317 317 253
Width: 1184
GlyphClass: 2
Flags: HMW
LayerCount: 2
Fore
SplineSet
780 1022 m 1,0,-1
 842 1151 l 1,1,-1
 842 1280 l 1,2,-1
 690 1280 l 1,3,-1
 690 1151 l 1,4,-1
 756 1151 l 1,5,-1
 717 1051 l 1,6,-1
 780 1022 l 1,0,-1
862 559 m 1,7,-1
 555 559 l 1,8,-1
 555 1280 l 1,9,-1
 449 1280 l 1,10,-1
 449 453 l 1,11,-1
 862 453 l 1,12,-1
 862 559 l 1,7,-1
746 1370 m 2,13,14
 847 1370 847 1370 929 1340 c 128,-1,15
 1011 1310 1011 1310 1068.5 1258 c 128,-1,16
 1126 1206 1126 1206 1157 1136.5 c 128,-1,17
 1188 1067 1188 1067 1188 989 c 2,18,-1
 1188 381 l 2,19,20
 1188 303 1188 303 1157 233.5 c 128,-1,21
 1126 164 1126 164 1068.5 112 c 128,-1,22
 1011 60 1011 60 929 30 c 128,-1,23
 847 0 847 0 746 0 c 2,24,-1
 438 0 l 2,25,26
 337 0 337 0 255 30 c 128,-1,27
 173 60 173 60 115.5 112 c 128,-1,28
 58 164 58 164 27 233.5 c 128,-1,29
 -4 303 -4 303 -4 381 c 2,30,-1
 -4 989 l 2,31,32
 -4 1067 -4 1067 27 1136.5 c 128,-1,33
 58 1206 58 1206 115.5 1258 c 128,-1,34
 173 1310 173 1310 255 1340 c 128,-1,35
 337 1370 337 1370 438 1370 c 2,36,-1
 746 1370 l 2,13,14
EndSplineSet
EndChar

StartChar: lcaron
Encoding: 318 318 254
Width: 1184
GlyphClass: 2
Flags: HMW
LayerCount: 2
Fore
SplineSet
780 1022 m 1,0,-1
 842 1151 l 1,1,-1
 842 1280 l 1,2,-1
 690 1280 l 1,3,-1
 690 1151 l 1,4,-1
 756 1151 l 1,5,-1
 717 1051 l 1,6,-1
 780 1022 l 1,0,-1
862 559 m 1,7,-1
 555 559 l 1,8,-1
 555 1280 l 1,9,-1
 449 1280 l 1,10,-1
 449 453 l 1,11,-1
 862 453 l 1,12,-1
 862 559 l 1,7,-1
746 1370 m 2,13,14
 847 1370 847 1370 929 1340 c 128,-1,15
 1011 1310 1011 1310 1068.5 1258 c 128,-1,16
 1126 1206 1126 1206 1157 1136.5 c 128,-1,17
 1188 1067 1188 1067 1188 989 c 2,18,-1
 1188 381 l 2,19,20
 1188 303 1188 303 1157 233.5 c 128,-1,21
 1126 164 1126 164 1068.5 112 c 128,-1,22
 1011 60 1011 60 929 30 c 128,-1,23
 847 0 847 0 746 0 c 2,24,-1
 438 0 l 2,25,26
 337 0 337 0 255 30 c 128,-1,27
 173 60 173 60 115.5 112 c 128,-1,28
 58 164 58 164 27 233.5 c 128,-1,29
 -4 303 -4 303 -4 381 c 2,30,-1
 -4 989 l 2,31,32
 -4 1067 -4 1067 27 1136.5 c 128,-1,33
 58 1206 58 1206 115.5 1258 c 128,-1,34
 173 1310 173 1310 255 1340 c 128,-1,35
 337 1370 337 1370 438 1370 c 2,36,-1
 746 1370 l 2,13,14
EndSplineSet
EndChar

StartChar: Ldot
Encoding: 319 319 255
Width: 1184
GlyphClass: 2
Flags: HMW
LayerCount: 2
Fore
SplineSet
778 897 m 1,0,-1
 778 1026 l 1,1,-1
 647 1026 l 1,2,-1
 647 897 l 1,3,-1
 778 897 l 1,0,-1
862 559 m 1,4,-1
 555 559 l 1,5,-1
 555 1280 l 1,6,-1
 449 1280 l 1,7,-1
 449 453 l 1,8,-1
 862 453 l 1,9,-1
 862 559 l 1,4,-1
746 1370 m 2,10,11
 847 1370 847 1370 929 1340 c 128,-1,12
 1011 1310 1011 1310 1068.5 1258 c 128,-1,13
 1126 1206 1126 1206 1157 1136.5 c 128,-1,14
 1188 1067 1188 1067 1188 989 c 2,15,-1
 1188 381 l 2,16,17
 1188 303 1188 303 1157 233.5 c 128,-1,18
 1126 164 1126 164 1068.5 112 c 128,-1,19
 1011 60 1011 60 929 30 c 128,-1,20
 847 0 847 0 746 0 c 2,21,-1
 438 0 l 2,22,23
 337 0 337 0 255 30 c 128,-1,24
 173 60 173 60 115.5 112 c 128,-1,25
 58 164 58 164 27 233.5 c 128,-1,26
 -4 303 -4 303 -4 381 c 2,27,-1
 -4 989 l 2,28,29
 -4 1067 -4 1067 27 1136.5 c 128,-1,30
 58 1206 58 1206 115.5 1258 c 128,-1,31
 173 1310 173 1310 255 1340 c 128,-1,32
 337 1370 337 1370 438 1370 c 2,33,-1
 746 1370 l 2,10,11
EndSplineSet
EndChar

StartChar: ldot
Encoding: 320 320 256
Width: 1184
GlyphClass: 2
Flags: HMW
LayerCount: 2
Fore
SplineSet
778 897 m 1,0,-1
 778 1026 l 1,1,-1
 647 1026 l 1,2,-1
 647 897 l 1,3,-1
 778 897 l 1,0,-1
862 559 m 1,4,-1
 555 559 l 1,5,-1
 555 1280 l 1,6,-1
 449 1280 l 1,7,-1
 449 453 l 1,8,-1
 862 453 l 1,9,-1
 862 559 l 1,4,-1
746 1370 m 2,10,11
 847 1370 847 1370 929 1340 c 128,-1,12
 1011 1310 1011 1310 1068.5 1258 c 128,-1,13
 1126 1206 1126 1206 1157 1136.5 c 128,-1,14
 1188 1067 1188 1067 1188 989 c 2,15,-1
 1188 381 l 2,16,17
 1188 303 1188 303 1157 233.5 c 128,-1,18
 1126 164 1126 164 1068.5 112 c 128,-1,19
 1011 60 1011 60 929 30 c 128,-1,20
 847 0 847 0 746 0 c 2,21,-1
 438 0 l 2,22,23
 337 0 337 0 255 30 c 128,-1,24
 173 60 173 60 115.5 112 c 128,-1,25
 58 164 58 164 27 233.5 c 128,-1,26
 -4 303 -4 303 -4 381 c 2,27,-1
 -4 989 l 2,28,29
 -4 1067 -4 1067 27 1136.5 c 128,-1,30
 58 1206 58 1206 115.5 1258 c 128,-1,31
 173 1310 173 1310 255 1340 c 128,-1,32
 337 1370 337 1370 438 1370 c 2,33,-1
 746 1370 l 2,10,11
EndSplineSet
EndChar

StartChar: Lslash
Encoding: 321 321 257
Width: 1184
GlyphClass: 2
Flags: HMW
LayerCount: 2
Fore
SplineSet
862 559 m 1,0,-1
 555 559 l 1,1,-1
 555 895 l 1,2,-1
 680 967 l 1,3,-1
 647 1024 l 1,4,-1
 555 971 l 1,5,-1
 555 1280 l 1,6,-1
 449 1280 l 1,7,-1
 449 909 l 1,8,-1
 324 840 l 1,9,-1
 356 782 l 1,10,-1
 449 834 l 1,11,-1
 449 453 l 1,12,-1
 862 453 l 1,13,-1
 862 559 l 1,0,-1
746 1370 m 2,14,15
 847 1370 847 1370 929 1340 c 128,-1,16
 1011 1310 1011 1310 1068.5 1258 c 128,-1,17
 1126 1206 1126 1206 1157 1136.5 c 128,-1,18
 1188 1067 1188 1067 1188 989 c 2,19,-1
 1188 381 l 2,20,21
 1188 303 1188 303 1157 233.5 c 128,-1,22
 1126 164 1126 164 1068.5 112 c 128,-1,23
 1011 60 1011 60 929 30 c 128,-1,24
 847 0 847 0 746 0 c 2,25,-1
 438 0 l 2,26,27
 337 0 337 0 255 30 c 128,-1,28
 173 60 173 60 115.5 112 c 128,-1,29
 58 164 58 164 27 233.5 c 128,-1,30
 -4 303 -4 303 -4 381 c 2,31,-1
 -4 989 l 2,32,33
 -4 1067 -4 1067 27 1136.5 c 128,-1,34
 58 1206 58 1206 115.5 1258 c 128,-1,35
 173 1310 173 1310 255 1340 c 128,-1,36
 337 1370 337 1370 438 1370 c 2,37,-1
 746 1370 l 2,14,15
EndSplineSet
EndChar

StartChar: Ncommaaccent
Encoding: 325 325 261
Width: 1184
GlyphClass: 2
Flags: HMW
LayerCount: 2
Fore
SplineSet
666 119 m 1,0,-1
 727 248 l 1,1,-1
 727 377 l 1,2,-1
 576 377 l 1,3,-1
 576 248 l 1,4,-1
 641 248 l 1,5,-1
 602 147 l 1,6,-1
 666 119 l 1,0,-1
932 1120 m 1,7,-1
 918 1204 l 1,8,-1
 854 1268 l 1,9,-1
 752 1280 l 1,10,-1
 502 1280 l 1,11,-1
 322 1255 l 1,12,-1
 322 453 l 1,13,-1
 428 453 l 1,14,-1
 428 1163 l 1,15,-1
 506 1176 l 1,16,-1
 746 1176 l 1,17,-1
 815 1165 l 1,18,-1
 825 1106 l 1,19,-1
 825 453 l 1,20,-1
 932 453 l 1,21,-1
 932 1120 l 1,7,-1
746 1370 m 2,22,23
 847 1370 847 1370 929 1340 c 128,-1,24
 1011 1310 1011 1310 1068.5 1258 c 128,-1,25
 1126 1206 1126 1206 1157 1136.5 c 128,-1,26
 1188 1067 1188 1067 1188 989 c 2,27,-1
 1188 381 l 2,28,29
 1188 303 1188 303 1157 233.5 c 128,-1,30
 1126 164 1126 164 1068.5 112 c 128,-1,31
 1011 60 1011 60 929 30 c 128,-1,32
 847 0 847 0 746 0 c 2,33,-1
 438 0 l 2,34,35
 337 0 337 0 255 30 c 128,-1,36
 173 60 173 60 115.5 112 c 128,-1,37
 58 164 58 164 27 233.5 c 128,-1,38
 -4 303 -4 303 -4 381 c 2,39,-1
 -4 989 l 2,40,41
 -4 1067 -4 1067 27 1136.5 c 128,-1,42
 58 1206 58 1206 115.5 1258 c 128,-1,43
 173 1310 173 1310 255 1340 c 128,-1,44
 337 1370 337 1370 438 1370 c 2,45,-1
 746 1370 l 2,22,23
EndSplineSet
EndChar

StartChar: ncommaaccent
Encoding: 326 326 262
Width: 1184
GlyphClass: 2
Flags: HMW
LayerCount: 2
Fore
SplineSet
666 119 m 1,0,-1
 727 248 l 1,1,-1
 727 377 l 1,2,-1
 576 377 l 1,3,-1
 576 248 l 1,4,-1
 641 248 l 1,5,-1
 602 147 l 1,6,-1
 666 119 l 1,0,-1
932 1120 m 1,7,-1
 918 1204 l 1,8,-1
 854 1268 l 1,9,-1
 752 1280 l 1,10,-1
 502 1280 l 1,11,-1
 322 1255 l 1,12,-1
 322 453 l 1,13,-1
 428 453 l 1,14,-1
 428 1163 l 1,15,-1
 506 1176 l 1,16,-1
 746 1176 l 1,17,-1
 815 1165 l 1,18,-1
 825 1106 l 1,19,-1
 825 453 l 1,20,-1
 932 453 l 1,21,-1
 932 1120 l 1,7,-1
746 1370 m 2,22,23
 847 1370 847 1370 929 1340 c 128,-1,24
 1011 1310 1011 1310 1068.5 1258 c 128,-1,25
 1126 1206 1126 1206 1157 1136.5 c 128,-1,26
 1188 1067 1188 1067 1188 989 c 2,27,-1
 1188 381 l 2,28,29
 1188 303 1188 303 1157 233.5 c 128,-1,30
 1126 164 1126 164 1068.5 112 c 128,-1,31
 1011 60 1011 60 929 30 c 128,-1,32
 847 0 847 0 746 0 c 2,33,-1
 438 0 l 2,34,35
 337 0 337 0 255 30 c 128,-1,36
 173 60 173 60 115.5 112 c 128,-1,37
 58 164 58 164 27 233.5 c 128,-1,38
 -4 303 -4 303 -4 381 c 2,39,-1
 -4 989 l 2,40,41
 -4 1067 -4 1067 27 1136.5 c 128,-1,42
 58 1206 58 1206 115.5 1258 c 128,-1,43
 173 1310 173 1310 255 1340 c 128,-1,44
 337 1370 337 1370 438 1370 c 2,45,-1
 746 1370 l 2,22,23
EndSplineSet
EndChar

StartChar: napostrophe
Encoding: 329 329 265
Width: 1184
GlyphClass: 2
Flags: HMW
LayerCount: 2
Fore
SplineSet
195 929 m 1,0,-1
 256 1058 l 1,1,-1
 256 1187 l 1,2,-1
 105 1187 l 1,3,-1
 105 1058 l 1,4,-1
 170 1058 l 1,5,-1
 131 957 l 1,6,-1
 195 929 l 1,0,-1
932 1120 m 1,7,-1
 918 1204 l 1,8,-1
 854 1268 l 1,9,-1
 752 1280 l 1,10,-1
 502 1280 l 1,11,-1
 322 1255 l 1,12,-1
 322 453 l 1,13,-1
 428 453 l 1,14,-1
 428 1163 l 1,15,-1
 506 1176 l 1,16,-1
 746 1176 l 1,17,-1
 815 1165 l 1,18,-1
 825 1106 l 1,19,-1
 825 453 l 1,20,-1
 932 453 l 1,21,-1
 932 1120 l 1,7,-1
746 1370 m 2,22,23
 847 1370 847 1370 929 1340 c 128,-1,24
 1011 1310 1011 1310 1068.5 1258 c 128,-1,25
 1126 1206 1126 1206 1157 1136.5 c 128,-1,26
 1188 1067 1188 1067 1188 989 c 2,27,-1
 1188 381 l 2,28,29
 1188 303 1188 303 1157 233.5 c 128,-1,30
 1126 164 1126 164 1068.5 112 c 128,-1,31
 1011 60 1011 60 929 30 c 128,-1,32
 847 0 847 0 746 0 c 2,33,-1
 438 0 l 2,34,35
 337 0 337 0 255 30 c 128,-1,36
 173 60 173 60 115.5 112 c 128,-1,37
 58 164 58 164 27 233.5 c 128,-1,38
 -4 303 -4 303 -4 381 c 2,39,-1
 -4 989 l 2,40,41
 -4 1067 -4 1067 27 1136.5 c 128,-1,42
 58 1206 58 1206 115.5 1258 c 128,-1,43
 173 1310 173 1310 255 1340 c 128,-1,44
 337 1370 337 1370 438 1370 c 2,45,-1
 746 1370 l 2,22,23
EndSplineSet
EndChar

StartChar: Eng
Encoding: 330 330 266
Width: 1184
GlyphClass: 2
Flags: HMW
LayerCount: 2
Fore
SplineSet
918 1204 m 1,0,-1
 854 1268 l 1,1,-1
 752 1280 l 1,2,-1
 502 1280 l 1,3,-1
 322 1255 l 1,4,-1
 322 453 l 1,5,-1
 428 453 l 1,6,-1
 428 1163 l 1,7,-1
 506 1176 l 1,8,-1
 746 1176 l 1,9,-1
 815 1165 l 1,10,-1
 825 1106 l 1,11,-1
 825 338 l 1,12,-1
 813 279 l 1,13,-1
 748 266 l 1,14,-1
 598 266 l 1,15,-1
 598 160 l 1,16,-1
 754 160 l 1,17,-1
 854 174 l 1,18,-1
 932 236 l 1,19,-1
 932 1120 l 1,20,-1
 918 1204 l 1,0,-1
746 1370 m 2,21,22
 847 1370 847 1370 929 1340 c 128,-1,23
 1011 1310 1011 1310 1068.5 1258 c 128,-1,24
 1126 1206 1126 1206 1157 1136.5 c 128,-1,25
 1188 1067 1188 1067 1188 989 c 2,26,-1
 1188 381 l 2,27,28
 1188 303 1188 303 1157 233.5 c 128,-1,29
 1126 164 1126 164 1068.5 112 c 128,-1,30
 1011 60 1011 60 929 30 c 128,-1,31
 847 0 847 0 746 0 c 2,32,-1
 438 0 l 2,33,34
 337 0 337 0 255 30 c 128,-1,35
 173 60 173 60 115.5 112 c 128,-1,36
 58 164 58 164 27 233.5 c 128,-1,37
 -4 303 -4 303 -4 381 c 2,38,-1
 -4 989 l 2,39,40
 -4 1067 -4 1067 27 1136.5 c 128,-1,41
 58 1206 58 1206 115.5 1258 c 128,-1,42
 173 1310 173 1310 255 1340 c 128,-1,43
 337 1370 337 1370 438 1370 c 2,44,-1
 746 1370 l 2,21,22
EndSplineSet
EndChar

StartChar: OE
Encoding: 338 338 274
Width: 1184
GlyphClass: 2
Flags: HMW
LayerCount: 2
Fore
SplineSet
983 559 m 1,0,-1
 698 559 l 1,1,-1
 698 813 l 1,2,-1
 936 813 l 1,3,-1
 936 918 l 1,4,-1
 696 918 l 1,5,-1
 696 1174 l 1,6,-1
 969 1174 l 1,7,-1
 969 1280 l 1,8,-1
 653 1280 l 1,9,-1
 653 1233 l 1,10,-1
 621 1266 l 1,11,-1
 518 1280 l 1,12,-1
 406 1280 l 1,13,-1
 303 1266 l 1,14,-1
 240 1202 l 1,15,-1
 227 1118 l 1,16,-1
 227 614 l 1,17,-1
 240 528 l 1,18,-1
 305 465 l 1,19,-1
 406 453 l 1,20,-1
 518 453 l 1,21,-1
 621 465 l 1,22,-1
 653 498 l 1,23,-1
 653 453 l 1,24,-1
 983 453 l 1,25,-1
 983 559 l 1,0,-1
578 569 m 1,26,-1
 512 559 l 1,27,-1
 412 559 l 1,28,-1
 346 569 l 1,29,-1
 332 629 l 1,30,-1
 332 1108 l 1,31,-1
 342 1163 l 1,32,-1
 412 1174 l 1,33,-1
 512 1174 l 1,34,-1
 582 1163 l 1,35,-1
 592 1104 l 1,36,-1
 592 625 l 1,37,-1
 578 569 l 1,26,-1
746 1370 m 2,38,39
 847 1370 847 1370 929 1340 c 128,-1,40
 1011 1310 1011 1310 1068.5 1258 c 128,-1,41
 1126 1206 1126 1206 1157 1136.5 c 128,-1,42
 1188 1067 1188 1067 1188 989 c 2,43,-1
 1188 381 l 2,44,45
 1188 303 1188 303 1157 233.5 c 128,-1,46
 1126 164 1126 164 1068.5 112 c 128,-1,47
 1011 60 1011 60 929 30 c 128,-1,48
 847 0 847 0 746 0 c 2,49,-1
 438 0 l 2,50,51
 337 0 337 0 255 30 c 128,-1,52
 173 60 173 60 115.5 112 c 128,-1,53
 58 164 58 164 27 233.5 c 128,-1,54
 -4 303 -4 303 -4 381 c 2,55,-1
 -4 989 l 2,56,57
 -4 1067 -4 1067 27 1136.5 c 128,-1,58
 58 1206 58 1206 115.5 1258 c 128,-1,59
 173 1310 173 1310 255 1340 c 128,-1,60
 337 1370 337 1370 438 1370 c 2,61,-1
 746 1370 l 2,38,39
EndSplineSet
EndChar

StartChar: Rcommaaccent
Encoding: 342 342 278
Width: 1184
GlyphClass: 2
Flags: HMW
LayerCount: 2
Fore
SplineSet
666 119 m 1,0,-1
 727 248 l 1,1,-1
 727 377 l 1,2,-1
 576 377 l 1,3,-1
 576 248 l 1,4,-1
 641 248 l 1,5,-1
 602 147 l 1,6,-1
 666 119 l 1,0,-1
746 1370 m 2,7,8
 847 1370 847 1370 929 1340 c 128,-1,9
 1011 1310 1011 1310 1068.5 1258 c 128,-1,10
 1126 1206 1126 1206 1157 1136.5 c 128,-1,11
 1188 1067 1188 1067 1188 989 c 2,12,-1
 1188 381 l 2,13,14
 1188 303 1188 303 1157 233.5 c 128,-1,15
 1126 164 1126 164 1068.5 112 c 128,-1,16
 1011 60 1011 60 929 30 c 128,-1,17
 847 0 847 0 746 0 c 2,18,-1
 438 0 l 2,19,20
 337 0 337 0 255 30 c 128,-1,21
 173 60 173 60 115.5 112 c 128,-1,22
 58 164 58 164 27 233.5 c 128,-1,23
 -4 303 -4 303 -4 381 c 2,24,-1
 -4 989 l 2,25,26
 -4 1067 -4 1067 27 1136.5 c 128,-1,27
 58 1206 58 1206 115.5 1258 c 128,-1,28
 173 1310 173 1310 255 1340 c 128,-1,29
 337 1370 337 1370 438 1370 c 2,30,-1
 746 1370 l 2,7,8
797 700 m 1,31,-1
 797 453 l 1,32,-1
 903 453 l 1,33,-1
 903 711 l 1,34,-1
 868 803 l 1,35,-1
 754 844 l 1,36,-1
 864 897 l 1,37,-1
 895 987 l 1,38,-1
 895 1098 l 1,39,-1
 883 1182 l 1,40,-1
 817 1266 l 1,41,-1
 717 1280 l 1,42,-1
 344 1280 l 1,43,-1
 344 453 l 1,44,-1
 451 453 l 1,45,-1
 451 786 l 1,46,-1
 711 786 l 1,47,-1
 782 754 l 1,48,-1
 797 700 l 1,31,-1
711 1174 m 1,49,-1
 782 1143 l 1,50,-1
 789 1085 l 1,51,-1
 789 979 l 1,52,-1
 774 924 l 1,53,-1
 711 893 l 1,54,-1
 451 893 l 1,55,-1
 451 1174 l 1,56,-1
 711 1174 l 1,49,-1
EndSplineSet
EndChar

StartChar: rcommaaccent
Encoding: 343 343 279
Width: 1184
GlyphClass: 2
Flags: HMW
LayerCount: 2
Fore
SplineSet
666 119 m 1,0,-1
 727 248 l 1,1,-1
 727 377 l 1,2,-1
 576 377 l 1,3,-1
 576 248 l 1,4,-1
 641 248 l 1,5,-1
 602 147 l 1,6,-1
 666 119 l 1,0,-1
746 1370 m 2,7,8
 847 1370 847 1370 929 1340 c 128,-1,9
 1011 1310 1011 1310 1068.5 1258 c 128,-1,10
 1126 1206 1126 1206 1157 1136.5 c 128,-1,11
 1188 1067 1188 1067 1188 989 c 2,12,-1
 1188 381 l 2,13,14
 1188 303 1188 303 1157 233.5 c 128,-1,15
 1126 164 1126 164 1068.5 112 c 128,-1,16
 1011 60 1011 60 929 30 c 128,-1,17
 847 0 847 0 746 0 c 2,18,-1
 438 0 l 2,19,20
 337 0 337 0 255 30 c 128,-1,21
 173 60 173 60 115.5 112 c 128,-1,22
 58 164 58 164 27 233.5 c 128,-1,23
 -4 303 -4 303 -4 381 c 2,24,-1
 -4 989 l 2,25,26
 -4 1067 -4 1067 27 1136.5 c 128,-1,27
 58 1206 58 1206 115.5 1258 c 128,-1,28
 173 1310 173 1310 255 1340 c 128,-1,29
 337 1370 337 1370 438 1370 c 2,30,-1
 746 1370 l 2,7,8
797 700 m 1,31,-1
 797 453 l 1,32,-1
 903 453 l 1,33,-1
 903 711 l 1,34,-1
 868 803 l 1,35,-1
 754 844 l 1,36,-1
 864 897 l 1,37,-1
 895 987 l 1,38,-1
 895 1098 l 1,39,-1
 883 1182 l 1,40,-1
 817 1266 l 1,41,-1
 717 1280 l 1,42,-1
 344 1280 l 1,43,-1
 344 453 l 1,44,-1
 451 453 l 1,45,-1
 451 786 l 1,46,-1
 711 786 l 1,47,-1
 782 754 l 1,48,-1
 797 700 l 1,31,-1
711 1174 m 1,49,-1
 782 1143 l 1,50,-1
 789 1085 l 1,51,-1
 789 979 l 1,52,-1
 774 924 l 1,53,-1
 711 893 l 1,54,-1
 451 893 l 1,55,-1
 451 1174 l 1,56,-1
 711 1174 l 1,49,-1
EndSplineSet
EndChar

StartChar: Scedilla
Encoding: 350 350 286
Width: 1184
GlyphClass: 2
Flags: HMW
LayerCount: 2
Fore
SplineSet
934 766 m 1,0,-1
 920 852 l 1,1,-1
 856 915 l 1,2,-1
 752 926 l 1,3,-1
 528 926 l 1,4,-1
 467 938 l 1,5,6
 462 955 462 955 460 968.5 c 128,-1,7
 458 982 458 982 453 997 c 1,8,-1
 453 1102 l 1,9,-1
 467 1161 l 1,10,-1
 533 1174 l 1,11,-1
 787 1174 l 1,12,-1
 881 1155 l 1,13,-1
 905 1264 l 1,14,-1
 789 1280 l 1,15,-1
 526 1280 l 1,16,-1
 426 1266 l 1,17,-1
 361 1202 l 1,18,-1
 348 1118 l 1,19,-1
 348 981 l 1,20,-1
 361 897 l 1,21,-1
 426 834 l 1,22,-1
 526 821 l 1,23,-1
 752 821 l 1,24,-1
 813 811 l 1,25,26
 816 796 816 796 820 783 c 128,-1,27
 824 770 824 770 827 756 c 1,28,-1
 827 625 l 1,29,30
 825 612 825 612 820.5 597 c 128,-1,31
 816 582 816 582 813 569 c 1,32,-1
 748 559 l 1,33,-1
 500 559 l 1,34,-1
 402 575 l 1,35,-1
 377 467 l 1,36,-1
 494 453 l 1,37,-1
 623 453 l 1,38,-1
 623 418 l 1,39,-1
 551 418 l 1,40,-1
 494 356 l 1,41,-1
 481 299 l 1,42,-1
 481 281 l 1,43,-1
 494 203 l 1,44,-1
 553 143 l 1,45,-1
 696 131 l 1,46,-1
 696 221 l 1,47,-1
 586 231 l 1,48,-1
 571 291 l 1,49,-1
 582 326 l 1,50,-1
 692 336 l 1,51,-1
 692 453 l 1,52,-1
 754 453 l 1,53,-1
 856 465 l 1,54,-1
 920 528 l 1,55,-1
 934 614 l 1,56,-1
 934 766 l 1,0,-1
746 1370 m 2,57,58
 847 1370 847 1370 929 1340 c 128,-1,59
 1011 1310 1011 1310 1068.5 1258 c 128,-1,60
 1126 1206 1126 1206 1157 1136.5 c 128,-1,61
 1188 1067 1188 1067 1188 989 c 2,62,-1
 1188 381 l 2,63,64
 1188 303 1188 303 1157 233.5 c 128,-1,65
 1126 164 1126 164 1068.5 112 c 128,-1,66
 1011 60 1011 60 929 30 c 128,-1,67
 847 0 847 0 746 0 c 2,68,-1
 438 0 l 2,69,70
 337 0 337 0 255 30 c 128,-1,71
 173 60 173 60 115.5 112 c 128,-1,72
 58 164 58 164 27 233.5 c 128,-1,73
 -4 303 -4 303 -4 381 c 2,74,-1
 -4 989 l 2,75,76
 -4 1067 -4 1067 27 1136.5 c 128,-1,77
 58 1206 58 1206 115.5 1258 c 128,-1,78
 173 1310 173 1310 255 1340 c 128,-1,79
 337 1370 337 1370 438 1370 c 2,80,-1
 746 1370 l 2,57,58
EndSplineSet
EndChar

StartChar: scedilla
Encoding: 351 351 287
Width: 1184
GlyphClass: 2
Flags: HMW
LayerCount: 2
Fore
SplineSet
934 766 m 1,0,-1
 920 852 l 1,1,-1
 856 915 l 1,2,-1
 752 926 l 1,3,-1
 528 926 l 1,4,-1
 467 938 l 1,5,6
 462 955 462 955 460 968.5 c 128,-1,7
 458 982 458 982 453 997 c 1,8,-1
 453 1102 l 1,9,-1
 467 1161 l 1,10,-1
 533 1174 l 1,11,-1
 787 1174 l 1,12,-1
 881 1155 l 1,13,-1
 905 1264 l 1,14,-1
 789 1280 l 1,15,-1
 526 1280 l 1,16,-1
 426 1266 l 1,17,-1
 361 1202 l 1,18,-1
 348 1118 l 1,19,-1
 348 981 l 1,20,-1
 361 897 l 1,21,-1
 426 834 l 1,22,-1
 526 821 l 1,23,-1
 752 821 l 1,24,-1
 813 811 l 1,25,26
 816 796 816 796 820 783 c 128,-1,27
 824 770 824 770 827 756 c 1,28,-1
 827 625 l 1,29,30
 825 612 825 612 820.5 597 c 128,-1,31
 816 582 816 582 813 569 c 1,32,-1
 748 559 l 1,33,-1
 500 559 l 1,34,-1
 402 575 l 1,35,-1
 377 467 l 1,36,-1
 494 453 l 1,37,-1
 623 453 l 1,38,-1
 623 418 l 1,39,-1
 551 418 l 1,40,-1
 494 356 l 1,41,-1
 481 299 l 1,42,-1
 481 281 l 1,43,-1
 494 203 l 1,44,-1
 553 143 l 1,45,-1
 696 131 l 1,46,-1
 696 221 l 1,47,-1
 586 231 l 1,48,-1
 571 291 l 1,49,-1
 582 326 l 1,50,-1
 692 336 l 1,51,-1
 692 453 l 1,52,-1
 754 453 l 1,53,-1
 856 465 l 1,54,-1
 920 528 l 1,55,-1
 934 614 l 1,56,-1
 934 766 l 1,0,-1
746 1370 m 2,57,58
 847 1370 847 1370 929 1340 c 128,-1,59
 1011 1310 1011 1310 1068.5 1258 c 128,-1,60
 1126 1206 1126 1206 1157 1136.5 c 128,-1,61
 1188 1067 1188 1067 1188 989 c 2,62,-1
 1188 381 l 2,63,64
 1188 303 1188 303 1157 233.5 c 128,-1,65
 1126 164 1126 164 1068.5 112 c 128,-1,66
 1011 60 1011 60 929 30 c 128,-1,67
 847 0 847 0 746 0 c 2,68,-1
 438 0 l 2,69,70
 337 0 337 0 255 30 c 128,-1,71
 173 60 173 60 115.5 112 c 128,-1,72
 58 164 58 164 27 233.5 c 128,-1,73
 -4 303 -4 303 -4 381 c 2,74,-1
 -4 989 l 2,75,76
 -4 1067 -4 1067 27 1136.5 c 128,-1,77
 58 1206 58 1206 115.5 1258 c 128,-1,78
 173 1310 173 1310 255 1340 c 128,-1,79
 337 1370 337 1370 438 1370 c 2,80,-1
 746 1370 l 2,57,58
EndSplineSet
EndChar

StartChar: Tcommaaccent
Encoding: 354 354 290
Width: 1184
GlyphClass: 2
Flags: HMW
LayerCount: 2
Fore
SplineSet
666 119 m 1,0,-1
 727 248 l 1,1,-1
 727 377 l 1,2,-1
 576 377 l 1,3,-1
 576 248 l 1,4,-1
 641 248 l 1,5,-1
 602 147 l 1,6,-1
 666 119 l 1,0,-1
936 1280 m 1,7,-1
 358 1280 l 1,8,-1
 358 1174 l 1,9,-1
 594 1174 l 1,10,-1
 594 453 l 1,11,-1
 701 453 l 1,12,-1
 701 1174 l 1,13,-1
 936 1174 l 1,14,-1
 936 1280 l 1,7,-1
746 1370 m 2,15,16
 847 1370 847 1370 929 1340 c 128,-1,17
 1011 1310 1011 1310 1068.5 1258 c 128,-1,18
 1126 1206 1126 1206 1157 1136.5 c 128,-1,19
 1188 1067 1188 1067 1188 989 c 2,20,-1
 1188 381 l 2,21,22
 1188 303 1188 303 1157 233.5 c 128,-1,23
 1126 164 1126 164 1068.5 112 c 128,-1,24
 1011 60 1011 60 929 30 c 128,-1,25
 847 0 847 0 746 0 c 2,26,-1
 438 0 l 2,27,28
 337 0 337 0 255 30 c 128,-1,29
 173 60 173 60 115.5 112 c 128,-1,30
 58 164 58 164 27 233.5 c 128,-1,31
 -4 303 -4 303 -4 381 c 2,32,-1
 -4 989 l 2,33,34
 -4 1067 -4 1067 27 1136.5 c 128,-1,35
 58 1206 58 1206 115.5 1258 c 128,-1,36
 173 1310 173 1310 255 1340 c 128,-1,37
 337 1370 337 1370 438 1370 c 2,38,-1
 746 1370 l 2,15,16
EndSplineSet
EndChar

StartChar: tcommaaccent
Encoding: 355 355 291
Width: 1184
GlyphClass: 2
Flags: HMW
LayerCount: 2
Fore
SplineSet
666 119 m 1,0,-1
 727 248 l 1,1,-1
 727 377 l 1,2,-1
 576 377 l 1,3,-1
 576 248 l 1,4,-1
 641 248 l 1,5,-1
 602 147 l 1,6,-1
 666 119 l 1,0,-1
936 1280 m 1,7,-1
 358 1280 l 1,8,-1
 358 1174 l 1,9,-1
 594 1174 l 1,10,-1
 594 453 l 1,11,-1
 701 453 l 1,12,-1
 701 1174 l 1,13,-1
 936 1174 l 1,14,-1
 936 1280 l 1,7,-1
746 1370 m 2,15,16
 847 1370 847 1370 929 1340 c 128,-1,17
 1011 1310 1011 1310 1068.5 1258 c 128,-1,18
 1126 1206 1126 1206 1157 1136.5 c 128,-1,19
 1188 1067 1188 1067 1188 989 c 2,20,-1
 1188 381 l 2,21,22
 1188 303 1188 303 1157 233.5 c 128,-1,23
 1126 164 1126 164 1068.5 112 c 128,-1,24
 1011 60 1011 60 929 30 c 128,-1,25
 847 0 847 0 746 0 c 2,26,-1
 438 0 l 2,27,28
 337 0 337 0 255 30 c 128,-1,29
 173 60 173 60 115.5 112 c 128,-1,30
 58 164 58 164 27 233.5 c 128,-1,31
 -4 303 -4 303 -4 381 c 2,32,-1
 -4 989 l 2,33,34
 -4 1067 -4 1067 27 1136.5 c 128,-1,35
 58 1206 58 1206 115.5 1258 c 128,-1,36
 173 1310 173 1310 255 1340 c 128,-1,37
 337 1370 337 1370 438 1370 c 2,38,-1
 746 1370 l 2,15,16
EndSplineSet
EndChar

StartChar: tcaron
Encoding: 357 357 293
Width: 1184
GlyphClass: 2
Flags: HMW
LayerCount: 2
Fore
SplineSet
873 856 m 1,0,-1
 934 985 l 1,1,-1
 934 1114 l 1,2,-1
 782 1114 l 1,3,-1
 782 985 l 1,4,-1
 848 985 l 1,5,-1
 809 885 l 1,6,-1
 873 856 l 1,0,-1
936 1280 m 1,7,-1
 358 1280 l 1,8,-1
 358 1174 l 1,9,-1
 594 1174 l 1,10,-1
 594 453 l 1,11,-1
 701 453 l 1,12,-1
 701 1174 l 1,13,-1
 936 1174 l 1,14,-1
 936 1280 l 1,7,-1
746 1370 m 2,15,16
 847 1370 847 1370 929 1340 c 128,-1,17
 1011 1310 1011 1310 1068.5 1258 c 128,-1,18
 1126 1206 1126 1206 1157 1136.5 c 128,-1,19
 1188 1067 1188 1067 1188 989 c 2,20,-1
 1188 381 l 2,21,22
 1188 303 1188 303 1157 233.5 c 128,-1,23
 1126 164 1126 164 1068.5 112 c 128,-1,24
 1011 60 1011 60 929 30 c 128,-1,25
 847 0 847 0 746 0 c 2,26,-1
 438 0 l 2,27,28
 337 0 337 0 255 30 c 128,-1,29
 173 60 173 60 115.5 112 c 128,-1,30
 58 164 58 164 27 233.5 c 128,-1,31
 -4 303 -4 303 -4 381 c 2,32,-1
 -4 989 l 2,33,34
 -4 1067 -4 1067 27 1136.5 c 128,-1,35
 58 1206 58 1206 115.5 1258 c 128,-1,36
 173 1310 173 1310 255 1340 c 128,-1,37
 337 1370 337 1370 438 1370 c 2,38,-1
 746 1370 l 2,15,16
EndSplineSet
EndChar

StartChar: Tbar
Encoding: 358 358 294
Width: 1184
GlyphClass: 2
Flags: HMW
LayerCount: 2
Fore
SplineSet
936 1280 m 1,0,-1
 358 1280 l 1,1,-1
 358 1174 l 1,2,-1
 594 1174 l 1,3,-1
 594 897 l 1,4,-1
 455 897 l 1,5,-1
 455 805 l 1,6,-1
 594 805 l 1,7,-1
 594 453 l 1,8,-1
 701 453 l 1,9,-1
 701 805 l 1,10,-1
 832 805 l 1,11,-1
 832 897 l 1,12,-1
 701 897 l 1,13,-1
 701 1174 l 1,14,-1
 936 1174 l 1,15,-1
 936 1280 l 1,0,-1
746 1370 m 2,16,17
 847 1370 847 1370 929 1340 c 128,-1,18
 1011 1310 1011 1310 1068.5 1258 c 128,-1,19
 1126 1206 1126 1206 1157 1136.5 c 128,-1,20
 1188 1067 1188 1067 1188 989 c 2,21,-1
 1188 381 l 2,22,23
 1188 303 1188 303 1157 233.5 c 128,-1,24
 1126 164 1126 164 1068.5 112 c 128,-1,25
 1011 60 1011 60 929 30 c 128,-1,26
 847 0 847 0 746 0 c 2,27,-1
 438 0 l 2,28,29
 337 0 337 0 255 30 c 128,-1,30
 173 60 173 60 115.5 112 c 128,-1,31
 58 164 58 164 27 233.5 c 128,-1,32
 -4 303 -4 303 -4 381 c 2,33,-1
 -4 989 l 2,34,35
 -4 1067 -4 1067 27 1136.5 c 128,-1,36
 58 1206 58 1206 115.5 1258 c 128,-1,37
 173 1310 173 1310 255 1340 c 128,-1,38
 337 1370 337 1370 438 1370 c 2,39,-1
 746 1370 l 2,16,17
EndSplineSet
EndChar

StartChar: Uogonek
Encoding: 370 370 306
Width: 1184
GlyphClass: 2
Flags: HMW
LayerCount: 2
Fore
SplineSet
946 1280 m 1,0,-1
 840 1280 l 1,1,-1
 840 625 l 1,2,3
 838 612 838 612 833.5 597 c 128,-1,4
 829 582 829 582 825 569 c 1,5,-1
 760 559 l 1,6,-1
 504 559 l 1,7,-1
 438 569 l 1,8,-1
 424 629 l 1,9,-1
 424 1280 l 1,10,-1
 320 1280 l 1,11,-1
 320 614 l 1,12,-1
 332 528 l 1,13,-1
 397 465 l 1,14,-1
 498 453 l 1,15,-1
 684 453 l 1,16,-1
 612 414 l 1,17,-1
 555 356 l 1,18,-1
 543 281 l 1,19,-1
 555 203 l 1,20,-1
 614 143 l 1,21,-1
 758 131 l 1,22,-1
 758 221 l 1,23,-1
 647 231 l 1,24,-1
 633 291 l 1,25,-1
 643 326 l 1,26,-1
 754 453 l 1,27,-1
 766 453 l 1,28,-1
 868 465 l 1,29,-1
 932 528 l 1,30,-1
 946 614 l 1,31,-1
 946 1280 l 1,0,-1
746 1370 m 2,32,33
 847 1370 847 1370 929 1340 c 128,-1,34
 1011 1310 1011 1310 1068.5 1258 c 128,-1,35
 1126 1206 1126 1206 1157 1136.5 c 128,-1,36
 1188 1067 1188 1067 1188 989 c 2,37,-1
 1188 381 l 2,38,39
 1188 303 1188 303 1157 233.5 c 128,-1,40
 1126 164 1126 164 1068.5 112 c 128,-1,41
 1011 60 1011 60 929 30 c 128,-1,42
 847 0 847 0 746 0 c 2,43,-1
 438 0 l 2,44,45
 337 0 337 0 255 30 c 128,-1,46
 173 60 173 60 115.5 112 c 128,-1,47
 58 164 58 164 27 233.5 c 128,-1,48
 -4 303 -4 303 -4 381 c 2,49,-1
 -4 989 l 2,50,51
 -4 1067 -4 1067 27 1136.5 c 128,-1,52
 58 1206 58 1206 115.5 1258 c 128,-1,53
 173 1310 173 1310 255 1340 c 128,-1,54
 337 1370 337 1370 438 1370 c 2,55,-1
 746 1370 l 2,32,33
EndSplineSet
EndChar

StartChar: uogonek
Encoding: 371 371 307
Width: 1184
GlyphClass: 2
Flags: HMW
LayerCount: 2
Fore
SplineSet
746 1370 m 2,0,1
 847 1370 847 1370 929 1340 c 128,-1,2
 1011 1310 1011 1310 1068.5 1258 c 128,-1,3
 1126 1206 1126 1206 1157 1136.5 c 128,-1,4
 1188 1067 1188 1067 1188 989 c 2,5,-1
 1188 381 l 2,6,7
 1188 303 1188 303 1157 233.5 c 128,-1,8
 1126 164 1126 164 1068.5 112 c 128,-1,9
 1011 60 1011 60 929 30 c 128,-1,10
 847 0 847 0 746 0 c 2,11,-1
 438 0 l 2,12,13
 337 0 337 0 255 30 c 128,-1,14
 173 60 173 60 115.5 112 c 128,-1,15
 58 164 58 164 27 233.5 c 128,-1,16
 -4 303 -4 303 -4 381 c 2,17,-1
 -4 989 l 2,18,19
 -4 1067 -4 1067 27 1136.5 c 128,-1,20
 58 1206 58 1206 115.5 1258 c 128,-1,21
 173 1310 173 1310 255 1340 c 128,-1,22
 337 1370 337 1370 438 1370 c 2,23,-1
 746 1370 l 2,0,1
946 1280 m 1,24,-1
 840 1280 l 1,25,-1
 840 625 l 1,26,27
 838 610 838 610 825 569 c 1,28,-1
 760 559 l 1,29,-1
 504 559 l 1,30,-1
 438 569 l 1,31,-1
 424 629 l 1,32,-1
 424 1280 l 1,33,-1
 320 1280 l 1,34,-1
 320 614 l 1,35,-1
 332 528 l 1,36,-1
 397 465 l 1,37,-1
 498 453 l 1,38,-1
 684 453 l 1,39,-1
 612 414 l 1,40,-1
 555 356 l 1,41,-1
 543 281 l 1,42,-1
 555 203 l 1,43,-1
 614 143 l 1,44,-1
 758 131 l 1,45,-1
 758 221 l 1,46,-1
 647 231 l 1,47,-1
 633 291 l 1,48,-1
 643 326 l 1,49,-1
 754 453 l 1,50,-1
 766 453 l 1,51,-1
 868 465 l 1,52,-1
 932 528 l 1,53,-1
 946 614 l 1,54,-1
 946 1280 l 1,24,-1
EndSplineSet
EndChar

StartChar: longs
Encoding: 383 383 319
Width: 1184
GlyphClass: 2
Flags: HMW
LayerCount: 2
Fore
SplineSet
621 920 m 256,0,1
 610 920 610 920 597 916 c 128,-1,2
 584 912 584 912 584 898 c 2,3,-1
 584 541 l 2,4,5
 584 529 584 529 597.5 524 c 128,-1,6
 611 519 611 519 621 519 c 0,7,8
 630 519 630 519 644 524 c 128,-1,9
 658 529 658 529 658 541 c 2,10,-1
 658 898 l 2,11,12
 658 912 658 912 645 916 c 128,-1,13
 632 920 632 920 621 920 c 256,0,1
438 0 m 2,14,15
 337 0 337 0 255 30 c 128,-1,16
 173 60 173 60 115.5 112 c 128,-1,17
 58 164 58 164 27 233.5 c 128,-1,18
 -4 303 -4 303 -4 381 c 2,19,-1
 -4 989 l 2,20,21
 -4 1067 -4 1067 27 1136.5 c 128,-1,22
 58 1206 58 1206 115.5 1258 c 128,-1,23
 173 1310 173 1310 255 1340 c 128,-1,24
 337 1370 337 1370 438 1370 c 2,25,-1
 746 1370 l 2,26,27
 847 1370 847 1370 929 1340 c 128,-1,28
 1011 1310 1011 1310 1068.5 1258 c 128,-1,29
 1126 1206 1126 1206 1157 1136.5 c 128,-1,30
 1188 1067 1188 1067 1188 989 c 2,31,-1
 1188 381 l 2,32,33
 1188 303 1188 303 1157 233.5 c 128,-1,34
 1126 164 1126 164 1068.5 112 c 128,-1,35
 1011 60 1011 60 929 30 c 128,-1,36
 847 0 847 0 746 0 c 2,37,-1
 438 0 l 2,14,15
621 1152 m 0,38,39
 670 1152 670 1152 714 1134 c 128,-1,40
 758 1116 758 1116 791.5 1084 c 128,-1,41
 825 1052 825 1052 844.5 1008.5 c 128,-1,42
 864 965 864 965 864 914 c 0,43,44
 864 862 864 862 851.5 825.5 c 128,-1,45
 839 789 839 789 820.5 763.5 c 128,-1,46
 802 738 802 738 780.5 720 c 128,-1,47
 759 702 759 702 741 687 c 0,48,49
 734 681 734 681 734 672 c 0,50,51
 734 659 734 659 745 645.5 c 128,-1,52
 756 632 756 632 772 632 c 0,53,54
 780 632 780 632 791 638 c 1,55,56
 821 658 821 658 847.5 684 c 128,-1,57
 874 710 874 710 894 743.5 c 128,-1,58
 914 777 914 777 926 820.5 c 128,-1,59
 938 864 938 864 938 918 c 0,60,61
 938 983 938 983 913 1040.5 c 128,-1,62
 888 1098 888 1098 845 1140.5 c 128,-1,63
 802 1183 802 1183 744 1207.5 c 128,-1,64
 686 1232 686 1232 621 1232 c 256,65,66
 556 1232 556 1232 498 1207.5 c 128,-1,67
 440 1183 440 1183 396.5 1140.5 c 128,-1,68
 353 1098 353 1098 328 1040.5 c 128,-1,69
 303 983 303 983 303 918 c 0,70,71
 303 864 303 864 315 820.5 c 128,-1,72
 327 777 327 777 347 743.5 c 128,-1,73
 367 710 367 710 394 684 c 128,-1,74
 421 658 421 658 451 638 c 0,75,76
 460 632 460 632 469 632 c 0,77,78
 485 632 485 632 495.5 645.5 c 128,-1,79
 506 659 506 659 506 673 c 0,80,81
 506 682 506 682 500 687 c 0,82,83
 482 702 482 702 461 719.5 c 128,-1,84
 440 737 440 737 421 763 c 128,-1,85
 402 789 402 789 389.5 825.5 c 128,-1,86
 377 862 377 862 377 914 c 0,87,88
 377 965 377 965 396.5 1008.5 c 128,-1,89
 416 1052 416 1052 449.5 1084 c 128,-1,90
 483 1116 483 1116 527 1134 c 128,-1,91
 571 1152 571 1152 621 1152 c 0,38,39
EndSplineSet
EndChar

StartChar: florin
Encoding: 402 402 320
Width: 1184
GlyphClass: 2
Flags: HMW
LayerCount: 2
Fore
SplineSet
398 831 m 1,0,-1
 501 831 l 1,1,-1
 501 352 l 1,2,-1
 352 352 l 1,3,-1
 352 256 l 1,4,-1
 501 256 l 1,5,-1
 608 352 l 1,6,-1
 608 831 l 1,7,-1
 744 831 l 1,8,-1
 744 918 l 1,9,-1
 608 918 l 1,10,-1
 608 1174 l 1,11,-1
 800 1174 l 1,12,-1
 800 1280 l 1,13,-1
 608 1280 l 1,14,-1
 501 1174 l 1,15,-1
 501 918 l 1,16,-1
 398 918 l 1,17,-1
 398 831 l 1,0,-1
746 1370 m 2,18,19
 847 1370 847 1370 929 1340 c 128,-1,20
 1011 1310 1011 1310 1068.5 1258 c 128,-1,21
 1126 1206 1126 1206 1157 1136.5 c 128,-1,22
 1188 1067 1188 1067 1188 989 c 2,23,-1
 1188 381 l 2,24,25
 1188 303 1188 303 1157 233.5 c 128,-1,26
 1126 164 1126 164 1068.5 112 c 128,-1,27
 1011 60 1011 60 929 30 c 128,-1,28
 847 0 847 0 746 0 c 2,29,-1
 438 0 l 2,30,31
 337 0 337 0 255 30 c 128,-1,32
 173 60 173 60 115.5 112 c 128,-1,33
 58 164 58 164 27 233.5 c 128,-1,34
 -4 303 -4 303 -4 381 c 2,35,-1
 -4 989 l 2,36,37
 -4 1067 -4 1067 27 1136.5 c 128,-1,38
 58 1206 58 1206 115.5 1258 c 128,-1,39
 173 1310 173 1310 255 1340 c 128,-1,40
 337 1370 337 1370 438 1370 c 2,41,-1
 746 1370 l 2,18,19
EndSplineSet
EndChar

StartChar: uni0202
Encoding: 514 514 330
Width: 1184
GlyphClass: 2
Flags: HMW
LayerCount: 2
Fore
SplineSet
356 1300 m 1,0,1
 271 1351 271 1351 226.5 1419.5 c 128,-1,2
 182 1488 182 1488 182 1579 c 0,3,4
 182 1644 182 1644 213 1702 c 128,-1,5
 244 1760 244 1760 301.5 1803.5 c 128,-1,6
 359 1847 359 1847 441 1872.5 c 128,-1,7
 523 1898 523 1898 624 1898 c 0,8,9
 726 1898 726 1898 807.5 1872.5 c 128,-1,10
 889 1847 889 1847 947 1803.5 c 128,-1,11
 1005 1760 1005 1760 1036 1702 c 128,-1,12
 1067 1644 1067 1644 1067 1579 c 0,13,14
 1067 1488 1067 1488 1022 1419.5 c 128,-1,15
 977 1351 977 1351 893 1300 c 1,16,-1
 356 1300 l 1,0,1
442 1454 m 1,17,-1
 532 1454 l 1,18,-1
 542 1523 l 1,19,-1
 598 1533 l 1,20,-1
 651 1533 l 1,21,-1
 710 1519 l 1,22,-1
 721 1454 l 1,23,-1
 811 1454 l 1,24,-1
 798 1552 l 1,25,-1
 739 1611 l 1,26,-1
 661 1624 l 1,27,-1
 590 1624 l 1,28,-1
 512 1611 l 1,29,-1
 454 1554 l 1,30,-1
 442 1454 l 1,17,-1
746 1370 m 2,31,32
 847 1370 847 1370 929 1340 c 128,-1,33
 1011 1310 1011 1310 1068.5 1258 c 128,-1,34
 1126 1206 1126 1206 1157 1136.5 c 128,-1,35
 1188 1067 1188 1067 1188 989 c 2,36,-1
 1188 381 l 2,37,38
 1188 303 1188 303 1157 233.5 c 128,-1,39
 1126 164 1126 164 1068.5 112 c 128,-1,40
 1011 60 1011 60 929 30 c 128,-1,41
 847 0 847 0 746 0 c 2,42,-1
 438 0 l 2,43,44
 337 0 337 0 255 30 c 128,-1,45
 173 60 173 60 115.5 112 c 128,-1,46
 58 164 58 164 27 233.5 c 128,-1,47
 -4 303 -4 303 -4 381 c 2,48,-1
 -4 989 l 2,49,50
 -4 1067 -4 1067 27 1136.5 c 128,-1,51
 58 1206 58 1206 115.5 1258 c 128,-1,52
 173 1310 173 1310 255 1340 c 128,-1,53
 337 1370 337 1370 438 1370 c 2,54,-1
 746 1370 l 2,31,32
838 453 m 1,55,-1
 952 453 l 1,56,-1
 873 1198 l 1,57,-1
 811 1260 l 1,58,-1
 678 1280 l 1,59,-1
 571 1280 l 1,60,-1
 438 1260 l 1,61,-1
 377 1198 l 1,62,-1
 295 453 l 1,63,-1
 414 453 l 1,64,-1
 430 666 l 1,65,-1
 440 758 l 1,66,-1
 809 758 l 1,67,-1
 819 666 l 1,68,-1
 838 453 l 1,55,-1
768 1159 m 1,69,70
 775 1078 775 1078 784 1006 c 128,-1,71
 793 934 793 934 801 854 c 1,72,-1
 449 854 l 1,73,-1
 479 1159 l 1,74,75
 507 1162 507 1162 527.5 1166 c 128,-1,76
 548 1170 548 1170 576 1174 c 1,77,-1
 674 1174 l 1,78,-1
 768 1159 l 1,69,70
EndSplineSet
EndChar

